<svg xmlns="http://www.w3.org/2000/svg" width="167" height="167" viewBox="0 0 167 167">
  <g id="Group_6582" data-name="Group 6582" transform="translate(8414 19271)">
    <rect id="Rectangle_2471" data-name="Rectangle 2471" width="167" height="167" transform="translate(-8414 -19271)" fill="none" opacity="0.707"/>
    <g id="google" transform="translate(-8401.387 -19260.17)">
      <path id="Path_4767" data-name="Path 4767" d="M200.282,121.611a62.247,62.247,0,0,0-1.533-14.85h-68.2v26.956h40.031c-.807,6.7-5.165,16.788-14.85,23.567l-.136.9,21.563,16.7,1.494.149c13.72-12.671,21.63-31.315,21.63-53.429" transform="translate(-57.912 -47.359)" fill="#4285f4"/>
      <path id="Path_4768" data-name="Path 4768" d="M78.815,214.641c19.612,0,36.076-6.457,48.1-17.594L104,179.291c-6.134,4.278-14.366,7.264-25.181,7.264A43.729,43.729,0,0,1,37.492,156.37l-.852.072L14.218,173.795l-.293.815a72.585,72.585,0,0,0,64.89,40.032" transform="translate(-6.177 -69.366)" fill="#34a853"/>
      <path id="Path_4769" data-name="Path 4769" d="M31.315,118.638a44.718,44.718,0,0,1-2.421-14.366,46.99,46.99,0,0,1,2.34-14.366l-.041-.963L8.491,71.312l-.743.353a72.485,72.485,0,0,0,0,65.213l23.567-18.24" transform="translate(0 -31.634)" fill="#fbbc05"/>
      <path id="Path_4770" data-name="Path 4770" d="M78.815,28.086A40.258,40.258,0,0,1,106.9,38.9l20.5-20.016A69.789,69.789,0,0,0,78.815,0a72.585,72.585,0,0,0-64.89,40.031l23.486,18.24c5.892-17.514,22.2-30.185,41.4-30.185" transform="translate(-6.177)" fill="#eb4335"/>
    </g>
  </g>
</svg>
