<svg id="Layer_1" data-name="Layer 1" xmlns="http://www.w3.org/2000/svg" width="132.95" height="151.17" viewBox="0 0 132.95 151.17"><defs><style>.cls-1{fill:#95bf47;}.cls-2{fill:#5e8e3e;}.cls-3{fill:#fff;}</style></defs><title>shopify</title><path class="cls-1" d="M125,30.47a1.43,1.43,0,0,0-1.42-1.22c-.6,0-12.13-.84-12.13-.84s-8-8-9-8.87a3.56,3.56,0,0,0-3.26-.37c-.13,0-1.83.5-4.5,1.34C92,12.73,87.25,5.58,78.88,5.58h-.74a10.17,10.17,0,0,0-7.89-4.5c-19.55,0-28.9,24.41-31.81,36.77-7.53,2.31-13,4-13.59,4.25-4.25,1.33-4.37,1.41-4.85,5.46-.43,2.94-11.47,88.51-11.47,88.51L94.8,152.22l46.67-10.06S125.08,31.32,125,30.47ZM89.88,22c-2.19.73-4.63,1.42-7.28,2.31v-1.6a38.17,38.17,0,0,0-1.72-11.77c4.37.49,7.17,5.34,9,11ZM75.55,11.77a36.09,36.09,0,0,1,1.94,13.11v.87c-4.74,1.41-9.9,3-15,4.61C65.35,19.3,70.76,13.84,75.55,11.77ZM69.72,6.3a4.25,4.25,0,0,1,2.55.85c-6.19,2.91-13,10.32-15.78,25.13-4.13,1.42-8.14,2.56-11.9,3.65C47.86,24.64,55.75,6.3,69.72,6.3Z" transform="translate(-8.53 -1.08)"/><path class="cls-2" d="M123.63,29.25c-.61,0-12.14-.84-12.14-.84s-8-8-9-8.87a2.33,2.33,0,0,0-1.21-.61L94.8,152.25l46.67-10.09L125,30.58A1.69,1.69,0,0,0,123.63,29.25Z" transform="translate(-8.53 -1.08)"/><path class="cls-3" d="M78.82,55.11,73.16,72.24A26.74,26.74,0,0,0,62,69.59c-9.11,0-9.47,5.66-9.47,7.16,0,7.78,20.4,10.8,20.4,29.15,0,14.44-9.11,23.67-21.5,23.67-14.81,0-22.33-9.23-22.33-9.23l4-13.11s7.77,6.67,14.33,6.67a5.85,5.85,0,0,0,6.06-5.64,1.09,1.09,0,0,1,0-.18c0-10.2-16.75-10.68-16.75-27.44,0-14.15,10.07-27.81,30.59-27.81C75,52.8,78.82,55.11,78.82,55.11Z" transform="translate(-8.53 -1.08)"/></svg>