<svg id="an" xmlns="http://www.w3.org/2000/svg" xmlns:xlink="http://www.w3.org/1999/xlink" width="640" height="480" viewBox="0 0 640 480">
  <defs>
    <clipPath id="clip-path">
      <path id="Path_6" data-name="Path 6" d="M640,480H0V0H640Z" fill="#fff" clip-rule="evenodd"/>
    </clipPath>
  </defs>
  <g id="Mask_Group_1" data-name="Mask Group 1" clip-path="url(#clip-path)">
    <g id="Flag_of_the_Netherlands_Antilles__1986_2010_" data-name="Flag_of_the_Netherlands_Antilles_(1986–2010)" transform="translate(320 192.593)">
      <path id="Path_8" data-name="Path 8" d="M-320-165.926H320V260.741H-320Z" fill="#fff"/>
      <path id="Path_9" data-name="Path 9" d="M-71.111-165.926H71.111V260.741H-71.111Z" fill="#dc171d"/>
      <path id="Path_10" data-name="Path 10" d="M-320-23.7H320V118.519H-320Z" fill="#012a87"/>
      <g id="a">
        <g id="b">
          <path id="c" d="M0,0V17.778H8.889Z" transform="translate(0 -17.778) rotate(18)" fill="#fff"/>
          <path id="Path_11" data-name="Path 11" d="M0,0V-17.778H8.889Z" transform="translate(0 -17.778) rotate(162)" fill="#fff"/>
        </g>
        <g id="Group_3" data-name="Group 3" transform="rotate(72)">
          <path id="c-2" data-name="c" d="M0,0V17.778H8.889Z" transform="translate(0 -17.778) rotate(18)" fill="#fff"/>
          <path id="Path_12" data-name="Path 12" d="M0,0V-17.778H8.889Z" transform="translate(0 -17.778) rotate(162)" fill="#fff"/>
        </g>
        <g id="Group_4" data-name="Group 4" transform="rotate(-72)">
          <path id="c-3" data-name="c" d="M0,0V17.778H8.889Z" transform="translate(0 -17.778) rotate(18)" fill="#fff"/>
          <path id="Path_13" data-name="Path 13" d="M0,0V-17.778H8.889Z" transform="translate(0 -17.778) rotate(162)" fill="#fff"/>
        </g>
        <g id="Group_5" data-name="Group 5" transform="matrix(-0.809, 0.588, -0.588, -0.809, 0, 0)">
          <path id="c-4" data-name="c" d="M0,0V17.778H8.889Z" transform="translate(0 -17.778) rotate(18)" fill="#fff"/>
          <path id="Path_14" data-name="Path 14" d="M0,0V-17.778H8.889Z" transform="translate(0 -17.778) rotate(162)" fill="#fff"/>
        </g>
        <g id="Group_6" data-name="Group 6" transform="matrix(-0.809, -0.588, 0.588, -0.809, 0, 0)">
          <path id="c-5" data-name="c" d="M0,0V17.778H8.889Z" transform="translate(0 -17.778) rotate(18)" fill="#fff"/>
          <path id="Path_15" data-name="Path 15" d="M0,0V-17.778H8.889Z" transform="translate(0 -17.778) rotate(162)" fill="#fff"/>
        </g>
      </g>
      <g id="d">
        <g id="Group_11" data-name="Group 11" transform="translate(94.815 39.274)">
          <g id="b-2" data-name="b">
            <path id="c-6" data-name="c" d="M0,0V17.778H8.889Z" transform="translate(0 -17.778) rotate(18)" fill="#fff"/>
            <path id="Path_16" data-name="Path 16" d="M0,0V-17.778H8.889Z" transform="translate(0 -17.778) rotate(162)" fill="#fff"/>
          </g>
          <g id="Group_7" data-name="Group 7" transform="rotate(72)">
            <path id="c-7" data-name="c" d="M0,0V17.778H8.889Z" transform="translate(0 -17.778) rotate(18)" fill="#fff"/>
            <path id="Path_17" data-name="Path 17" d="M0,0V-17.778H8.889Z" transform="translate(0 -17.778) rotate(162)" fill="#fff"/>
          </g>
          <g id="Group_8" data-name="Group 8" transform="rotate(-72)">
            <path id="c-8" data-name="c" d="M0,0V17.778H8.889Z" transform="translate(0 -17.778) rotate(18)" fill="#fff"/>
            <path id="Path_18" data-name="Path 18" d="M0,0V-17.778H8.889Z" transform="translate(0 -17.778) rotate(162)" fill="#fff"/>
          </g>
          <g id="Group_9" data-name="Group 9" transform="matrix(-0.809, 0.588, -0.588, -0.809, 0, 0)">
            <path id="c-9" data-name="c" d="M0,0V17.778H8.889Z" transform="translate(0 -17.778) rotate(18)" fill="#fff"/>
            <path id="Path_19" data-name="Path 19" d="M0,0V-17.778H8.889Z" transform="translate(0 -17.778) rotate(162)" fill="#fff"/>
          </g>
          <g id="Group_10" data-name="Group 10" transform="matrix(-0.809, -0.588, 0.588, -0.809, 0, 0)">
            <path id="c-10" data-name="c" d="M0,0V17.778H8.889Z" transform="translate(0 -17.778) rotate(18)" fill="#fff"/>
            <path id="Path_20" data-name="Path 20" d="M0,0V-17.778H8.889Z" transform="translate(0 -17.778) rotate(162)" fill="#fff"/>
          </g>
        </g>
        <g id="Group_16" data-name="Group 16" transform="translate(39.274 94.815)">
          <g id="b-3" data-name="b">
            <path id="c-11" data-name="c" d="M0,0V17.778H8.889Z" transform="translate(0 -17.778) rotate(18)" fill="#fff"/>
            <path id="Path_21" data-name="Path 21" d="M0,0V-17.778H8.889Z" transform="translate(0 -17.778) rotate(162)" fill="#fff"/>
          </g>
          <g id="Group_12" data-name="Group 12" transform="rotate(72)">
            <path id="c-12" data-name="c" d="M0,0V17.778H8.889Z" transform="translate(0 -17.778) rotate(18)" fill="#fff"/>
            <path id="Path_22" data-name="Path 22" d="M0,0V-17.778H8.889Z" transform="translate(0 -17.778) rotate(162)" fill="#fff"/>
          </g>
          <g id="Group_13" data-name="Group 13" transform="rotate(-72)">
            <path id="c-13" data-name="c" d="M0,0V17.778H8.889Z" transform="translate(0 -17.778) rotate(18)" fill="#fff"/>
            <path id="Path_23" data-name="Path 23" d="M0,0V-17.778H8.889Z" transform="translate(0 -17.778) rotate(162)" fill="#fff"/>
          </g>
          <g id="Group_14" data-name="Group 14" transform="matrix(-0.809, 0.588, -0.588, -0.809, 0, 0)">
            <path id="c-14" data-name="c" d="M0,0V17.778H8.889Z" transform="translate(0 -17.778) rotate(18)" fill="#fff"/>
            <path id="Path_24" data-name="Path 24" d="M0,0V-17.778H8.889Z" transform="translate(0 -17.778) rotate(162)" fill="#fff"/>
          </g>
          <g id="Group_15" data-name="Group 15" transform="matrix(-0.809, -0.588, 0.588, -0.809, 0, 0)">
            <path id="c-15" data-name="c" d="M0,0V17.778H8.889Z" transform="translate(0 -17.778) rotate(18)" fill="#fff"/>
            <path id="Path_25" data-name="Path 25" d="M0,0V-17.778H8.889Z" transform="translate(0 -17.778) rotate(162)" fill="#fff"/>
          </g>
        </g>
      </g>
      <g id="Group_27" data-name="Group 27" transform="rotate(180)">
        <g id="Group_21" data-name="Group 21" transform="translate(94.815 -39.274)">
          <g id="b-4" data-name="b">
            <path id="c-16" data-name="c" d="M0,0V-17.778H8.889Z" transform="translate(0 17.778) rotate(-18)" fill="#fff"/>
            <path id="Path_26" data-name="Path 26" d="M0,0V17.778H8.889Z" transform="translate(0 17.778) rotate(-162)" fill="#fff"/>
          </g>
          <g id="Group_17" data-name="Group 17" transform="rotate(-72)">
            <path id="c-17" data-name="c" d="M0,0V-17.778H8.889Z" transform="translate(0 17.778) rotate(-18)" fill="#fff"/>
            <path id="Path_27" data-name="Path 27" d="M0,0V17.778H8.889Z" transform="translate(0 17.778) rotate(-162)" fill="#fff"/>
          </g>
          <g id="Group_18" data-name="Group 18" transform="rotate(72)">
            <path id="c-18" data-name="c" d="M0,0V-17.778H8.889Z" transform="translate(0 17.778) rotate(-18)" fill="#fff"/>
            <path id="Path_28" data-name="Path 28" d="M0,0V17.778H8.889Z" transform="translate(0 17.778) rotate(-162)" fill="#fff"/>
          </g>
          <g id="Group_19" data-name="Group 19" transform="matrix(-0.809, -0.588, 0.588, -0.809, 0, 0)">
            <path id="c-19" data-name="c" d="M0,0V-17.778H8.889Z" transform="translate(0 17.778) rotate(-18)" fill="#fff"/>
            <path id="Path_29" data-name="Path 29" d="M0,0V17.778H8.889Z" transform="translate(0 17.778) rotate(-162)" fill="#fff"/>
          </g>
          <g id="Group_20" data-name="Group 20" transform="matrix(-0.809, 0.588, -0.588, -0.809, 0, 0)">
            <path id="c-20" data-name="c" d="M0,0V-17.778H8.889Z" transform="translate(0 17.778) rotate(-18)" fill="#fff"/>
            <path id="Path_30" data-name="Path 30" d="M0,0V17.778H8.889Z" transform="translate(0 17.778) rotate(-162)" fill="#fff"/>
          </g>
        </g>
        <g id="Group_26" data-name="Group 26" transform="translate(39.274 -94.815)">
          <g id="b-5" data-name="b">
            <path id="c-21" data-name="c" d="M0,0V-17.778H8.889Z" transform="translate(0 17.778) rotate(-18)" fill="#fff"/>
            <path id="Path_31" data-name="Path 31" d="M0,0V17.778H8.889Z" transform="translate(0 17.778) rotate(-162)" fill="#fff"/>
          </g>
          <g id="Group_22" data-name="Group 22" transform="rotate(-72)">
            <path id="c-22" data-name="c" d="M0,0V-17.778H8.889Z" transform="translate(0 17.778) rotate(-18)" fill="#fff"/>
            <path id="Path_32" data-name="Path 32" d="M0,0V17.778H8.889Z" transform="translate(0 17.778) rotate(-162)" fill="#fff"/>
          </g>
          <g id="Group_23" data-name="Group 23" transform="rotate(72)">
            <path id="c-23" data-name="c" d="M0,0V-17.778H8.889Z" transform="translate(0 17.778) rotate(-18)" fill="#fff"/>
            <path id="Path_33" data-name="Path 33" d="M0,0V17.778H8.889Z" transform="translate(0 17.778) rotate(-162)" fill="#fff"/>
          </g>
          <g id="Group_24" data-name="Group 24" transform="matrix(-0.809, -0.588, 0.588, -0.809, 0, 0)">
            <path id="c-24" data-name="c" d="M0,0V-17.778H8.889Z" transform="translate(0 17.778) rotate(-18)" fill="#fff"/>
            <path id="Path_34" data-name="Path 34" d="M0,0V17.778H8.889Z" transform="translate(0 17.778) rotate(-162)" fill="#fff"/>
          </g>
          <g id="Group_25" data-name="Group 25" transform="matrix(-0.809, 0.588, -0.588, -0.809, 0, 0)">
            <path id="c-25" data-name="c" d="M0,0V-17.778H8.889Z" transform="translate(0 17.778) rotate(-18)" fill="#fff"/>
            <path id="Path_35" data-name="Path 35" d="M0,0V17.778H8.889Z" transform="translate(0 17.778) rotate(-162)" fill="#fff"/>
          </g>
        </g>
      </g>
    </g>
  </g>
</svg>
