<svg id="Layer_1" data-name="Layer 1" xmlns="http://www.w3.org/2000/svg" width="464.52" height="281.36" viewBox="0 0 464.52 281.36"><defs><style>.cls-11{fill:#e44d26;}.cls-12{fill:#f16529;}</style></defs><path d="M144.56,107.5h22v21.78h20.25V107.5h22v65.91h-22v-22H166.72v22H144.56m93.23-43.94H218.4v-22h60.85v22H259.76v43.94h-22m51.1-65.91h23l14.13,23.21,14.14-23.21h23v65.91h-22V140.74l-15.38,23.69-15.38-23.69v32.67H288.89M374.1,107.5h22v44.13h31.15v21.78H374.1"></path><path class="cls-11" d="M36.43,90.56l8,90.29,36.1,10,36.25-10,8-90.24Zm70.88,29.52H65l1,11.33h40.29l-3,34-22.62,6.28v.06l-22.71-6.34L56.37,148H67.48l.78,8.85,12.36,3.31L93,156.86l1.3-14.38H80.59v0H55.88l-3-33.45h55.47Z"></path><polygon class="cls-11" points="80.64 160.18 80.62 160.17 80.59 160.18 80.64 160.18"></polygon><line class="cls-11" x1="80.59" y1="171.68" x2="80.64" y2="171.67"></line><polygon class="cls-12" points="94.25 142.48 80.64 142.48 80.64 160.16 92.95 156.86 94.25 142.48"></polygon><polygon class="cls-12" points="80.64 97.97 80.64 109.01 108.33 109.01 107.31 120.08 80.64 120.08 80.64 131.41 106.31 131.41 103.26 165.39 80.64 171.67 80.64 183.16 109.89 175 116.79 97.97 80.64 97.97"></polygon></svg>