<svg id="Layer_6" data-name="Layer 1" xmlns="http://www.w3.org/2000/svg" width="464.52" height="281.36" viewBox="0 0 464.52 281.36"><defs><style>.cls-61{fill:#95bf47;}.cls-2{fill:#5e8e3e;}</style></defs><path class="cls-61" d="M115.11,103.86a1,1,0,0,0-1-.87c-.4,0-9.16-.67-9.16-.67s-6.09-6.08-6.83-6.69a2.81,2.81,0,0,0-2.47-.33c-.07,0-1.34.4-3.41,1.07-2.08-6-5.62-11.37-12-11.37h-.6a7.76,7.76,0,0,0-5.89-3.35c-14.71,0-21.8,18.4-24,27.76-5.75,1.81-9.83,3-10.3,3.21-3.21,1-3.28,1.07-3.68,4.08-.33,2.28-8.7,67-8.7,67l65.09,12.18,35.32-7.63C127.56,188.08,115.18,104.46,115.11,103.86ZM79.19,99.58v.67c-3.61,1.14-7.42,2.27-11.37,3.54,2.21-8.42,6.42-12.57,9.9-14.11A28,28,0,0,1,79.19,99.58Zm-5.75-14a3.18,3.18,0,0,1,1.87.67c-4.75,2.21-9.76,7.76-11.84,19-3.14,1-6.15,1.87-9,2.81C56.85,99.45,62.87,85.53,73.44,85.53ZM76,135.3a20.14,20.14,0,0,0-8.49-2.07c-6.89,0-7.23,4.34-7.23,5.41,0,5.89,15.39,8.17,15.39,22,0,10.91-6.89,17.93-16.19,17.93-11.24,0-16.86-7-16.86-7l3-9.9s5.89,5.09,10.84,5.09a4.4,4.4,0,0,0,4.62-4.42c0-7.69-12.58-8-12.58-20.74,0-10.63,7.63-20.93,23.08-20.93,5.75-.07,8.69,1.67,8.69,1.67Zm7.16-36.25V97.84a25.74,25.74,0,0,0-1.34-8.9c3.35.41,5.42,4.08,6.82,8.37C87,97.77,85.08,98.38,83.14,99.05Z"/><path class="cls-2" d="M114.11,102.86c-.4,0-9.16-.67-9.16-.67s-6.09-6.09-6.83-6.69a1.26,1.26,0,0,0-.87-.4L92.37,195.84l35.32-7.63s-12.38-83.75-12.44-84.35A1.81,1.81,0,0,0,114.11,102.86Z"/><path d="M168.69,146.67c-3.54-1.87-5.35-3.54-5.35-5.75,0-2.81,2.54-4.62,6.49-4.62a23.39,23.39,0,0,1,8.7,1.88l3.21-9.84s-3-2.27-11.64-2.27c-12.11,0-20.54,7-20.54,16.72,0,5.55,3.95,9.77,9.17,12.78,4.28,2.34,5.75,4.08,5.75,6.62s-2.14,4.75-6.09,4.75a27.34,27.34,0,0,1-11.37-3l-3.41,9.83s5.08,3.41,13.65,3.41c12.44,0,21.47-6.15,21.47-17.19C178.59,154,174.11,149.82,168.69,146.67Zm49.64-20.73c-6.16,0-11,2.94-14.65,7.35l-.14-.06,5.36-27.83H195.05l-13.51,70.9h13.84L200,152.09c1.81-9.16,6.55-14.85,11-14.85,3.14,0,4.35,2.14,4.35,5.15a27.88,27.88,0,0,1-.6,6.15L209.5,176.3h13.84l5.42-28.62a52,52,0,0,0,1-9.1c-.07-8-4.15-12.64-11.44-12.64Zm42.74,0c-16.72,0-27.76,15.05-27.76,31.84,0,10.7,6.62,19.39,19.07,19.39,16.38,0,27.42-14.64,27.42-31.84C279.87,135.37,274.11,125.94,261.07,125.94Zm-6.82,40.67c-4.75,0-6.69-4-6.69-9.1,0-8,4.08-20.87,11.64-20.87,4.88,0,6.55,4.28,6.55,8.36,0,8.49-4.21,21.61-11.5,21.61Zm61.07-40.67c-9.36,0-14.65,8.29-14.65,8.29h-.13l.8-7.42H289c-.6,5-1.74,12.7-2.81,18.39L276.66,196H290.5l3.88-20.53h.34a16.23,16.23,0,0,0,8.09,1.8c16.32,0,27-16.72,27-33.58C329.7,134.3,325.49,125.94,315.32,125.94Zm-13.24,40.8a8.75,8.75,0,0,1-5.76-2.07l2.28-12.91c1.6-8.7,6.15-14.39,11-14.39,4.28,0,5.55,3.95,5.55,7.63.07,9-5.29,21.74-13,21.74Zm47.42-60.67a8,8,0,0,0-8,8c0,4.08,2.61,7,6.56,7h.13a7.76,7.76,0,0,0,8.09-8A6.49,6.49,0,0,0,349.5,106.07Zm-19.4,70.17H344L353.31,127H339.4m49.23-.07H379l.47-2.28c.8-4.74,3.61-8.89,8.29-8.89a13.88,13.88,0,0,1,4.42.73l2.67-10.9s-2.34-1.2-7.55-1.2A20.75,20.75,0,0,0,373.72,109c-4.75,4-7,9.83-8,15.72l-.4,2.28H358.8l-2.07,10.5h6.48l-7.35,38.79H369.7l7.36-38.79h9.57l2-10.57ZM422,127s-8.69,21.87-12.51,33.84h-.13C409.1,157,406,127,406,127H391.38l8.36,45.08a3.14,3.14,0,0,1-.34,2.27,23.56,23.56,0,0,1-7.56,8.37,31,31,0,0,1-7.89,3.94l3.88,11.78a31.8,31.8,0,0,0,13.58-7.56c6.29-5.89,12.17-15,18.19-27.5l16.93-36.45H422Z"/></svg>
