<svg id="Layer_4" data-name="Layer 1" xmlns="http://www.w3.org/2000/svg" width="464.52" height="281.36" viewBox="0 0 464.52 281.36"><defs><style>.cls-41{fill-rule:evenodd;}</style></defs><g id="squarespace-logo-stacked-white"><g id="Group-31"><path id="Fill-1" class="cls-41" d="M190.5,113.15l45.27-45.27a16.33,16.33,0,0,1,23.06,0l3.52,3.53,7.06-7.05-3.53-3.53a26.3,26.3,0,0,0-37.17,0l-45.27,45.27Z"/><path id="Fill-3" class="cls-41" d="M250.93,82.83l-7.06-7.06L198.6,121A16.3,16.3,0,1,1,175.54,98l39.07-39.07-7.06-7.05L168.49,90.93a26.28,26.28,0,0,0,37.17,37.17Z"/><path id="Fill-5" class="cls-41" d="M296,90.93a26.32,26.32,0,0,0-37.16,0l-45.28,45.28,7.06,7L265.88,98a16.31,16.31,0,0,1,23.06,23.06l-39.07,39.06,7.06,7.06L296,128.1a26.31,26.31,0,0,0,0-37.17"/><path id="Fill-7" class="cls-41" d="M274,105.88l-45.28,45.28a16.33,16.33,0,0,1-23.05,0l-3.53-3.53-7.06,7.06,3.53,3.52a26.3,26.3,0,0,0,37.17,0L281,112.94Z"/><path id="Fill-9" class="cls-41" d="M80.23,218.31a5.34,5.34,0,0,0,2,3.36,6.83,6.83,0,0,0,4.23,1.22,6,6,0,0,0,4-1.2,3.88,3.88,0,0,0,1.42-3.14,3.2,3.2,0,0,0-.38-1.61,3.32,3.32,0,0,0-1.06-1.12,6.49,6.49,0,0,0-1.67-.77c-.66-.21-1.4-.44-2.23-.68l-2.14-.59A19.83,19.83,0,0,1,81,212.52a10.48,10.48,0,0,1-2.58-1.73,6.8,6.8,0,0,1-1.64-2.29,7.54,7.54,0,0,1-.55-3,7.74,7.74,0,0,1,.71-3.31,7.49,7.49,0,0,1,2-2.58,9.79,9.79,0,0,1,3.19-1.69,13.42,13.42,0,0,1,4.22-.62,10.85,10.85,0,0,1,7,2.09,8.21,8.21,0,0,1,3,5.59l-4.77.4a4.82,4.82,0,0,0-1.75-2.79,6,6,0,0,0-3.66-1,5.31,5.31,0,0,0-3.43,1,3.24,3.24,0,0,0-1.23,2.61,3,3,0,0,0,.36,1.53,3.4,3.4,0,0,0,1,1.08,7.93,7.93,0,0,0,1.65.81c.65.24,1.39.49,2.21.76l2,.63a35.18,35.18,0,0,1,3.44,1.26,10.16,10.16,0,0,1,2.61,1.57,6.1,6.1,0,0,1,1.65,2.19,7.53,7.53,0,0,1,.58,3.14,8.27,8.27,0,0,1-.8,3.64,8,8,0,0,1-2.22,2.81,10.44,10.44,0,0,1-3.41,1.79,14.19,14.19,0,0,1-4.35.64A12.52,12.52,0,0,1,79,225a9,9,0,0,1-3.62-6.25Z"/><path id="Fill-11" class="cls-41" d="M117.43,201.68a8.94,8.94,0,0,0-3.84.79,8.28,8.28,0,0,0-2.86,2.21,9.87,9.87,0,0,0-1.79,3.33,13.73,13.73,0,0,0-.62,4.19,13.27,13.27,0,0,0,.64,4.21,10.24,10.24,0,0,0,1.81,3.38,8.36,8.36,0,0,0,2.86,2.24,8.67,8.67,0,0,0,3.85.82,9,9,0,0,0,3.83-.78,8,8,0,0,0,2.87-2.16,9.85,9.85,0,0,0,1.81-3.36,14,14,0,0,0,.64-4.31A13.77,13.77,0,0,0,126,208a9.8,9.8,0,0,0-1.81-3.33,8.18,8.18,0,0,0-2.89-2.19,9,9,0,0,0-3.86-.79m0-4.3a15.32,15.32,0,0,1,5.88,1.09,12.89,12.89,0,0,1,4.54,3.07,13.76,13.76,0,0,1,2.91,4.71,16.93,16.93,0,0,1,1,6,16.26,16.26,0,0,1-1.09,6.11,13.58,13.58,0,0,1-3.13,4.72l3.82,4.49V229h-4.85l-2.67-3.27a14.91,14.91,0,0,1-3,1,15.56,15.56,0,0,1-3.43.36,15.37,15.37,0,0,1-5.94-1.1,12.75,12.75,0,0,1-4.5-3.06,13.82,13.82,0,0,1-2.87-4.7,18.15,18.15,0,0,1,0-11.94,13.67,13.67,0,0,1,2.89-4.69,13.12,13.12,0,0,1,4.52-3.09,15,15,0,0,1,5.87-1.11"/><path id="Fill-13" class="cls-41" d="M150.82,223.05a6.13,6.13,0,0,0,4.78-1.89q1.71-1.89,1.71-5.79V197.94h5v17.55a15.72,15.72,0,0,1-.79,5.31,9.29,9.29,0,0,1-2.27,3.62,8.93,8.93,0,0,1-3.62,2.07,18,18,0,0,1-9.65,0,8.92,8.92,0,0,1-3.6-2.07,9.18,9.18,0,0,1-2.27-3.62,15.7,15.7,0,0,1-.8-5.31V197.94h5v17.43q0,3.9,1.71,5.79a6.1,6.1,0,0,0,4.77,1.89"/><path id="Fill-15" class="cls-41" d="M176.53,214.05H186l-1.55-4.53c-.61-1.78-1.1-3.23-1.47-4.34s-.71-2.1-1-3h-1.23l-.48,1.36-.54,1.51c-.2.56-.42,1.19-.65,1.91s-.54,1.55-.88,2.51Zm-9,11.07,10.14-27.18h7.52l10,27.18v1.39h-4.93l-2.87-8.16H175l-2.87,8.16H167.5Z"/><path id="Fill-17" class="cls-41" d="M206.45,211h4.34a8.38,8.38,0,0,0,4.52-1.05,3.72,3.72,0,0,0,1.65-3.41,3.53,3.53,0,0,0-1.67-3.35,9.15,9.15,0,0,0-4.5-1h-4.34Zm16.76,15.52h-4.82l-8.71-11.22h-3.23v11.22h-4.93V197.94h9.27a27.6,27.6,0,0,1,4.16.3,8.41,8.41,0,0,1,3.56,1.37,7.48,7.48,0,0,1,3.38,6.72,9.24,9.24,0,0,1-.57,3.4,7.7,7.7,0,0,1-3.74,4.12,11.88,11.88,0,0,1-2.61,1l8.24,10.31Z"/><polygon id="Fill-19" class="cls-41" points="229.49 197.94 248 197.94 248 202.31 234.39 202.31 234.39 209.79 247.04 209.79 247.04 214.09 234.39 214.09 234.39 222.13 248.28 222.13 248.28 226.51 229.49 226.51 229.49 197.94"/><path id="Fill-21" class="cls-41" d="M259.42,218.31a5.38,5.38,0,0,0,2.05,3.36,6.86,6.86,0,0,0,4.24,1.22,6,6,0,0,0,4-1.2,3.9,3.9,0,0,0,1.41-3.14,3.2,3.2,0,0,0-.38-1.61,3.39,3.39,0,0,0-1.05-1.12,6.65,6.65,0,0,0-1.67-.77c-.67-.21-1.41-.44-2.23-.68l-2.15-.59a19.71,19.71,0,0,1-3.42-1.26,10.54,10.54,0,0,1-2.59-1.73A6.64,6.64,0,0,1,256,208.5a8.13,8.13,0,0,1,.16-6.31,7.26,7.26,0,0,1,2-2.58,9.63,9.63,0,0,1,3.18-1.69,13.47,13.47,0,0,1,4.22-.62,10.84,10.84,0,0,1,7,2.09,8.22,8.22,0,0,1,3,5.59l-4.78.4a4.77,4.77,0,0,0-1.75-2.79,6,6,0,0,0-3.66-1,5.26,5.26,0,0,0-3.42,1,3.22,3.22,0,0,0-1.24,2.61,3,3,0,0,0,.36,1.53,3.33,3.33,0,0,0,1,1.08,7.93,7.93,0,0,0,1.65.81c.65.24,1.38.49,2.21.76l2,.63a36.16,36.16,0,0,1,3.44,1.26,10.09,10.09,0,0,1,2.6,1.57,6.25,6.25,0,0,1,1.66,2.19,7.7,7.7,0,0,1,.57,3.14,8.26,8.26,0,0,1-.79,3.64,8,8,0,0,1-2.23,2.81,10.49,10.49,0,0,1-3.4,1.79,14.3,14.3,0,0,1-4.36.64,12.47,12.47,0,0,1-7.36-2.07,9,9,0,0,1-3.63-6.25Z"/><path id="Fill-23" class="cls-41" d="M288.55,211.23h4.77a12,12,0,0,0,2.41-.22,5.51,5.51,0,0,0,1.91-.73,3.55,3.55,0,0,0,1.28-1.38,4.59,4.59,0,0,0,.45-2.13,4.8,4.8,0,0,0-.45-2.19,3.64,3.64,0,0,0-1.26-1.4,5.53,5.53,0,0,0-1.89-.73,12.56,12.56,0,0,0-2.37-.22h-4.85Zm-5-13.29H294a15.25,15.25,0,0,1,4.88.67,8.38,8.38,0,0,1,3.18,1.87,7,7,0,0,1,1.75,2.81,10.85,10.85,0,0,1,.54,3.48,9.46,9.46,0,0,1-.74,3.88,7,7,0,0,1-2.13,2.73A9.65,9.65,0,0,1,298.1,215a17.24,17.24,0,0,1-4.5.54h-5.05v11h-5Z"/><path id="Fill-25" class="cls-41" d="M314.69,214.05h9.44l-1.56-4.53c-.61-1.78-1.1-3.23-1.47-4.34s-.7-2.1-1-3h-1.24l-.48,1.36c-.15.45-.33.95-.53,1.51s-.42,1.19-.66,1.91-.53,1.55-.87,2.51Zm-9,11.07,10.15-27.18h7.52l10,27.18v1.39h-4.94l-2.86-8.16H313.18l-2.86,8.16h-4.66Z"/><path id="Fill-27" class="cls-41" d="M363.6,219a14.42,14.42,0,0,1-1.77,3.15,11.82,11.82,0,0,1-2.65,2.58,12.55,12.55,0,0,1-3.6,1.74,15.06,15.06,0,0,1-4.55.65,14.58,14.58,0,0,1-5.79-1.12,13,13,0,0,1-4.45-3.08,13.78,13.78,0,0,1-2.85-4.7,18,18,0,0,1,0-11.82,13.65,13.65,0,0,1,2.87-4.71,13.31,13.31,0,0,1,4.47-3.13,14.54,14.54,0,0,1,5.83-1.13,13.43,13.43,0,0,1,7.85,2.19,11.74,11.74,0,0,1,4.48,5.81l-5.05,1a8.36,8.36,0,0,0-2.89-3.44,7.73,7.73,0,0,0-4.47-1.25,8.41,8.41,0,0,0-3.76.81,8,8,0,0,0-2.79,2.24,10,10,0,0,0-1.73,3.37,14,14,0,0,0-.6,4.16,13.73,13.73,0,0,0,.62,4.19,9.87,9.87,0,0,0,1.79,3.33,8.4,8.4,0,0,0,2.84,2.2,9,9,0,0,0,3.82.79,7.49,7.49,0,0,0,4.6-1.35,9.59,9.59,0,0,0,2.81-3.31Z"/><polygon id="Fill-29" class="cls-41" points="370.33 197.94 388.83 197.94 388.83 202.31 375.22 202.31 375.22 209.79 387.88 209.79 387.88 214.09 375.22 214.09 375.22 222.13 389.11 222.13 389.11 226.51 370.33 226.51 370.33 197.94"/></g></g></svg>
