<svg id="Layer_3" data-name="Layer 1" xmlns="http://www.w3.org/2000/svg" width="464.52" height="281.36" viewBox="0 0 464.52 281.36"><defs><style>.cls-31{fill:#fbbd71;}</style></defs><path class="cls-31" d="M251.65,89.52c-5.25,2.62-7.53,7.52-7.53,20.82a20.86,20.86,0,0,1,6.83-4.2,28.33,28.33,0,0,0,6.82-3.76C262.32,99,263,94.85,263,87.68,262.93,87.68,255.76,87.24,251.65,89.52Z"></path><path d="M219.54,92.58c-4.55,3.76-5.68,10.23-5.68,10.23l-14.7,56.34-12.07-46.1c-1.14-4.9-3.41-10.94-6.82-15.13-4.2-5.34-13-5.69-14-5.69-.79,0-9.45.35-14,5.69-3.41,4.19-5.68,10.23-6.82,15.13l-11.37,46.1-14.7-56.34a20.67,20.67,0,0,0-5.68-10.23c-7.17-6.47-17.76-4.9-17.76-4.9l28,105.41s9.1.79,13.65-1.49c6-3.06,9.1-5.25,12.51-19.68,3.41-12.86,12.51-50.3,13.21-52.92.35-1.14,1.13-4.55,3.41-4.55s3.06,3.06,3.41,4.55c.79,2.62,9.8,40.06,13.21,52.92,3.76,14.34,6.38,16.62,12.51,19.68,4.55,2.28,13.64,1.49,13.64,1.49L237.3,87.68S226.72,86.19,219.54,92.58Z"></path><path d="M262.93,104.65a20.83,20.83,0,0,1-5.69,4.9c-2.62,1.49-4.89,2.27-7.52,3.76-4.55,2.28-5.68,4.55-5.68,8v6.82h0v64.65s7.17.79,11.72-1.49c6-3.06,7.17-6,7.17-18.89V108.85h0v-4.2Z"></path><path d="M332.47,140.6,368,88s-14.7-2.62-22.31,4.2c-4.9,4.2-9.8,12.07-9.8,12.07L323,123.2c-.78,1.13-1.48,1.92-2.62,1.92a3.41,3.41,0,0,1-2.62-1.92l-12.86-18.9a109.88,109.88,0,0,0-9.8-12.07c-7.52-6.82-22.31-4.2-22.31-4.2l34.38,52.49L272,193s15.48,1.92,23.09-4.9c4.9-4.2,9.45-11.37,9.45-11.37l12.86-18.89c.78-1.14,1.48-1.93,2.62-1.93a3.4,3.4,0,0,1,2.62,1.93l12.86,18.89s4.9,7.17,9.45,11.37c7.52,6.82,22.66,4.9,22.66,4.9Z"></path></svg>