<svg id="Layer_2" data-name="Layer 1" xmlns="http://www.w3.org/2000/svg" width="464.52" height="281.36" viewBox="0 0 464.52 281.36"><defs><style>.cls-221{fill:#00749a;}.cls-22{fill:#464342;}</style></defs><path class="cls-221" d="M216,188.66H199v1.81c5.33,0,6.19,1.14,6.19,7.91v12.19c0,6.77-.86,8-6.19,8-4.1-.58-6.86-2.77-10.67-7l-4.38-4.76c5.9-1.05,9-4.77,9-9,0-5.24-4.48-9.24-12.87-9.24H163.32v1.81c5.33,0,6.19,1.14,6.19,7.91v12.19c0,6.77-.86,8-6.19,8v1.81h19v-1.81c-5.34,0-6.2-1.24-6.2-8v-3.43h1.62l10.58,13.25H216c13.63,0,19.53-7.24,19.53-15.92S229.63,188.66,216,188.66Zm-39.92,15.53V191.52H180c4.29,0,6.19,2.95,6.19,6.38s-1.9,6.29-6.19,6.29Zm40.21,13.24h-.67c-3.43,0-3.9-.85-3.9-5.24V191.52h4.57c9.91,0,11.72,7.24,11.72,12.86C228,210.19,226.2,217.43,216.29,217.43Z"></path><path class="cls-221" d="M110.25,207.71l6.58-19.43c1.9-5.62,1-7.24-5-7.24v-1.91h17.91V181c-6,0-7.43,1.43-9.81,8.38L109,222h-1.23l-9.72-29.83L88.15,222H86.91L76.34,189.42C74.05,182.47,72.53,181,67,181v-1.91H88.15V181c-5.62,0-7.15,1.33-5.15,7.24l6.39,19.43L99,179.13h1.81Z"></path><path class="cls-221" d="M142.64,221.62c-10.48,0-19-7.71-19-17.15s8.58-17.05,19-17.05,19.06,7.72,19.06,17.05S153.12,221.62,142.64,221.62Zm0-31.24c-8.76,0-11.81,7.9-11.81,14.09s3,14.11,11.81,14.11,11.91-7.82,11.91-14.11S151.5,190.38,142.64,190.38Z"></path><path class="cls-22" d="M259.06,218.48v1.91H237.25v-1.91c6.38,0,7.52-1.62,7.52-11.15V192.09c0-9.53-1.14-11.05-7.52-11.05v-1.91H257c9.81,0,15.24,5.05,15.24,11.82,0,6.57-5.43,11.71-15.24,11.71h-5.43v4.67C251.54,216.86,252.68,218.48,259.06,218.48ZM257,182.56h-5.43v16.58H257c5.33,0,7.81-3.72,7.81-8.19S262.3,182.56,257,182.56Z"></path><path class="cls-22" d="M337.66,211.43l-.47,1.71c-.86,3.15-1.91,4.29-8.67,4.29h-1.34c-4.95,0-5.81-1.14-5.81-7.91v-4.38c7.43,0,8,.67,8,5.62h1.81V196.57h-1.81c0,5-.57,5.62-8,5.62V191.52h5.24c6.77,0,7.81,1.14,8.67,4.29l.48,1.8h1.52l-.66-9h-28v1.81c5.34,0,6.2,1.14,6.2,7.91v12.19c0,6.19-.73,7.75-4.94,8-4-.61-6.74-2.79-10.5-6.92L295,206.86c5.91-1.05,9-4.77,9-9,0-5.24-4.47-9.24-12.86-9.24H274.4v1.81c5.34,0,6.2,1.14,6.2,7.91v12.19c0,6.77-.86,8-6.2,8v1.81h19v-1.81c-5.33,0-6.19-1.24-6.19-8v-3.43h1.62l10.58,13.25h39.15l.57-9Zm-50.49-7.24V191.52h3.91c4.28,0,6.19,2.95,6.19,6.38s-1.91,6.29-6.19,6.29Z"></path><path class="cls-22" d="M357,221.62a14.07,14.07,0,0,1-8.57-3.24,6.84,6.84,0,0,0-1.53,3.24h-1.81V208.48H347c.76,6.28,5.14,10,10.76,10,3.05,0,5.53-1.71,5.53-4.57,0-2.48-2.19-4.39-6.1-6.2l-5.43-2.57c-3.81-1.81-6.67-4.95-6.67-9.14,0-4.58,4.29-8.48,10.2-8.48a12,12,0,0,1,7.43,2.47,5.38,5.38,0,0,0,1.24-2.57h1.81v11.24h-2c-.67-4.47-3.15-8.19-8.2-8.19-2.66,0-5.14,1.52-5.14,3.91s2,3.81,6.57,5.9l5.24,2.58c4.58,2.19,6.39,5.71,6.39,8.57C368.63,217.43,363.39,221.62,357,221.62Z"></path><path class="cls-22" d="M386.35,221.62a14.08,14.08,0,0,1-8.58-3.24,6.84,6.84,0,0,0-1.52,3.24h-1.81V208.48h1.9c.76,6.28,5.15,10,10.77,10,3.05,0,5.52-1.71,5.52-4.57,0-2.48-2.19-4.39-6.09-6.2l-5.43-2.57c-3.82-1.81-6.67-4.95-6.67-9.14,0-4.58,4.28-8.48,10.19-8.48a12,12,0,0,1,7.43,2.47,5.38,5.38,0,0,0,1.24-2.57h1.81v11.24h-2c-.67-4.47-3.14-8.19-8.19-8.19-2.67,0-5.15,1.52-5.15,3.91s2,3.81,6.58,5.9l5.23,2.58c4.58,2.19,6.39,5.71,6.39,8.57C398,217.43,392.73,221.62,386.35,221.62Z"></path><path class="cls-22" d="M190.32,108.7a42.16,42.16,0,0,0,23.76,37.94L194,91.54A42,42,0,0,0,190.32,108.7Z"></path><path class="cls-22" d="M261,106.57a22.26,22.26,0,0,0-3.48-11.63c-2.14-3.47-4.14-6.41-4.14-9.89a7.3,7.3,0,0,1,7.08-7.48c.18,0,.36,0,.54,0a42.17,42.17,0,0,0-63.7,7.94c1,0,1.93,0,2.72,0,4.41,0,11.23-.53,11.23-.53a1.74,1.74,0,0,1,.27,3.47s-2.28.27-4.82.4L222,134.6l9.23-27.67-6.57-18c-2.27-.13-4.42-.4-4.42-.4-2.27-.14-2-3.61.27-3.48,0,0,7,.54,11.1.54,4.41,0,11.24-.54,11.24-.54a1.75,1.75,0,0,1,.27,3.48s-2.29.27-4.83.4l15.24,45.32,4.21-14C259.56,114.37,261,110.18,261,106.57Z"></path><path class="cls-22" d="M233.22,112.38l-12.65,36.76a42.15,42.15,0,0,0,25.91-.67,4.51,4.51,0,0,1-.3-.58Z"></path><path class="cls-22" d="M269.48,88.47a32.49,32.49,0,0,1,.28,4.33,39.94,39.94,0,0,1-3.2,15.11l-12.88,37.23a42.18,42.18,0,0,0,15.8-56.67Z"></path><path class="cls-22" d="M232.48,59.55a49.15,49.15,0,1,0,49.15,49.15A49.21,49.21,0,0,0,232.48,59.55Zm0,96a46.9,46.9,0,1,1,46.9-46.89A46.94,46.94,0,0,1,232.48,155.59Z"></path></svg>