<svg xmlns="http://www.w3.org/2000/svg" width="236.825" height="36.984" viewBox="0 0 236.825 36.984">
  <g id="Group_9117" data-name="Group 9117" transform="translate(-23.125 -13)">
    <g id="Layer_2" data-name="Layer 2" transform="translate(23.125 12.997)">
      <g id="Layer_1" data-name="Layer 1" transform="translate(0 0.004)">
        <g id="Layer_2-2" data-name="Layer 2-2" transform="translate(0 4.747)">
          <path id="Path_2041" data-name="Path 2041" d="M13.981,51.973A13.981,13.981,0,1,1,27.963,37.991h0A14.005,14.005,0,0,1,13.981,51.973Zm0-26.836A12.854,12.854,0,1,0,26.836,37.991,12.854,12.854,0,0,0,13.981,25.137Z" transform="translate(0 -24.01)" fill="#313a53"/>
        </g>
        <path id="Path_2042" data-name="Path 2042" d="M20.54,32.31h0A12.34,12.34,0,1,0,32.88,44.65,12.34,12.34,0,0,0,20.54,32.31Zm3.935,12.834-7.633,6.724V45.144H11.72V39.627H29.4v5.517Z" transform="translate(-6.578 -25.921)" fill="#313a53"/>
        <g id="Layer_5" data-name="Layer 5" transform="translate(31.621 0)">
          <path id="Path_2043" data-name="Path 2043" d="M171.427,24.883a1.624,1.624,0,0,1,.494,1.206v.04a1.693,1.693,0,0,1-.494,1.187,1.606,1.606,0,0,1-1.187.514h-1.483a5.159,5.159,0,0,1-3.738-1.542,5.08,5.08,0,0,1-1.543-3.718V11.04h-1.9a1.7,1.7,0,0,1-1.187-.494,1.582,1.582,0,0,1-.494-1.187v-.04a1.74,1.74,0,0,1,.494-1.206,1.592,1.592,0,0,1,1.187-.514h1.9V1.686a1.74,1.74,0,0,1,.494-1.206A1.564,1.564,0,0,1,165.159,0h.059A1.655,1.655,0,0,1,166.9,1.686V7.518h.138v.059h3.2a1.628,1.628,0,0,1,1.187.514,1.653,1.653,0,0,1,.494,1.206v.04a1.693,1.693,0,0,1-.494,1.187,1.582,1.582,0,0,1-1.187.494h-3.2V11.1H166.9v11.43a1.732,1.732,0,0,0,.534,1.285,1.8,1.8,0,0,0,1.305.554h1.483a1.887,1.887,0,0,1,1.206.516Z" transform="translate(-159.898 -0.004)" fill="#313a53"/>
        </g>
        <g id="Layer_6" data-name="Layer 6" transform="translate(42.933 9.395)">
          <path id="Path_2044" data-name="Path 2044" d="M226.375,47.509a9.225,9.225,0,0,0-9.275,9.174v.1a9.011,9.011,0,0,0,9.275,9.018,7.906,7.906,0,0,0,5.438-1.839,1.951,1.951,0,0,0,1.76,1.839,1.78,1.78,0,0,0,1.839-1.719V56.764A9.034,9.034,0,0,0,226.375,47.509Zm0,14.693a5.544,5.544,0,0,1-5.7-5.438,5.772,5.772,0,0,1,5.7-5.7,5.574,5.574,0,0,1,5.438,5.715A5.321,5.321,0,0,1,226.375,62.2Z" transform="translate(-217.1 -47.509)" fill="#313a53"/>
        </g>
        <g id="Layer_7" data-name="Layer 7" transform="translate(63.44 9.316)">
          <path id="Path_2045" data-name="Path 2045" d="M330.015,47.11a9.215,9.215,0,1,0,0,18.431h0a9.492,9.492,0,0,0,5.577-1.9V65.66a5.593,5.593,0,0,1-10.62,2.334,1.845,1.845,0,0,0-2.432-.811,1.813,1.813,0,0,0-.858,2.417v.016a9.221,9.221,0,0,0,17.5-4.054V56.345a9.2,9.2,0,0,0-9.156-9.235Zm0,14.772a5.577,5.577,0,1,1,5.577-5.577,5.577,5.577,0,0,1-5.577,5.577Z" transform="translate(-320.8 -47.11)" fill="#313a53"/>
        </g>
        <g id="Layer_8" data-name="Layer 8" transform="translate(84.027 9.316)">
          <path id="Path_2046" data-name="Path 2046" d="M434.115,47.11a9.215,9.215,0,0,0,0,18.431,9.524,9.524,0,0,0,5.577-1.9V65.66a5.593,5.593,0,0,1-10.62,2.334,1.845,1.845,0,0,0-2.432-.811,1.8,1.8,0,0,0-.872,2.387l.022.045a9.158,9.158,0,0,0,8.306,5.161,9.251,9.251,0,0,0,9.215-9.215V56.345A9.249,9.249,0,0,0,434.115,47.11Zm0,14.772a5.577,5.577,0,1,1,5.577-5.577A5.577,5.577,0,0,1,434.115,61.882Z" transform="translate(-424.9 -47.11)" fill="#313a53"/>
        </g>
        <g id="Layer_9" data-name="Layer 9" transform="translate(104.494 0.157)">
          <path id="Path_2047" data-name="Path 2047" d="M537.615,9.9a9.255,9.255,0,0,0-5.577,1.859V2.619a1.819,1.819,0,0,0-3.639,0V19.092a9.206,9.206,0,1,0,18.411.008h0a9.117,9.117,0,0,0-9.037-9.2A.841.841,0,0,0,537.615,9.9Zm0,14.772a5.572,5.572,0,1,1,.012,0Z" transform="translate(-528.4 -0.8)" fill="#313a53"/>
        </g>
        <g id="Layer_10" data-name="Layer 10" transform="translate(125.061 9.316)">
          <path id="Path_2048" data-name="Path 2048" d="M641.615,47.11a9.215,9.215,0,1,0,9.215,9.215h0A9.223,9.223,0,0,0,641.615,47.11Zm0,14.772a5.577,5.577,0,1,1,5.577-5.577A5.577,5.577,0,0,1,641.615,61.882Z" transform="translate(-632.4 -47.11)" fill="#313a53"/>
        </g>
        <g id="Layer_11" data-name="Layer 11" transform="translate(145.223 9.283)">
          <path id="Path_2049" data-name="Path 2049" d="M744.192,56.2l4.845-6.289a1.833,1.833,0,0,0-.332-2.571h0a1.744,1.744,0,0,0-2.456.263c-.018.024-.038.047-.055.073L741.9,53.209l-4.291-5.537a1.78,1.78,0,0,0-2.49-.368l-.042.032a1.827,1.827,0,0,0-.342,2.571h0l4.845,6.289-4.845,6.289a1.78,1.78,0,0,0,.295,2.5l.042.032a1.78,1.78,0,0,0,2.506-.259c.01,0,.018-.022.028-.034l4.291-5.537,4.291,5.537a1.839,1.839,0,0,0,1.424.692,1.722,1.722,0,0,0,1.088-.4,1.78,1.78,0,0,0,.368-2.492l-.032-.04Z" transform="translate(-734.355 -46.947)" fill="#313a53"/>
        </g>
      </g>
    </g>
    <path id="Path_10198" data-name="Path 10198" d="M6.4.24a5.828,5.828,0,0,1-2.55-.533A4.19,4.19,0,0,1,2.122-1.77,3.837,3.837,0,0,1,1.5-3.93v-7a.748.748,0,0,1,.225-.562.768.768,0,0,1,.555-.218.761.761,0,0,1,.563.218.761.761,0,0,1,.217.563v7A2.469,2.469,0,0,0,3.487-2.5a2.866,2.866,0,0,0,1.185.975A4.062,4.062,0,0,0,6.4-1.17a3.79,3.79,0,0,0,1.673-.352A2.8,2.8,0,0,0,9.217-2.5,2.533,2.533,0,0,0,9.63-3.93v-7a.748.748,0,0,1,.225-.562.768.768,0,0,1,.555-.218.736.736,0,0,1,.555.218.776.776,0,0,1,.21.563v7a3.907,3.907,0,0,1-.608,2.16A4.123,4.123,0,0,1,8.88-.293,5.526,5.526,0,0,1,6.4.24ZM19.425.15a5.661,5.661,0,0,1-2.272-.457,5.649,5.649,0,0,1-1.845-1.275,5.926,5.926,0,0,1-1.23-1.912,6.266,6.266,0,0,1-.443-2.37,6.169,6.169,0,0,1,.443-2.348,5.947,5.947,0,0,1,1.23-1.9A5.77,5.77,0,0,1,17.145-11.4a5.567,5.567,0,0,1,2.28-.465,5.875,5.875,0,0,1,1.987.3,5.718,5.718,0,0,1,1.673.99.831.831,0,0,1,.188.188.568.568,0,0,1,.09.195,1.046,1.046,0,0,1,.023.233.64.64,0,0,1-.2.48.745.745,0,0,1-.495.21.779.779,0,0,1-.548-.2,4.449,4.449,0,0,0-1.147-.735,4.022,4.022,0,0,0-1.568-.255,3.925,3.925,0,0,0-1.665.36,4.4,4.4,0,0,0-1.372.99,4.57,4.57,0,0,0-.923,1.462,4.779,4.779,0,0,0-.33,1.778,4.82,4.82,0,0,0,.33,1.793,4.57,4.57,0,0,0,.923,1.462,4.3,4.3,0,0,0,1.372.982,4,4,0,0,0,1.665.352,4,4,0,0,0,1.448-.263,5.582,5.582,0,0,0,1.313-.727.788.788,0,0,1,.532-.173.673.673,0,0,1,.443.21.716.716,0,0,1,.18.517.84.84,0,0,1-.053.293.657.657,0,0,1-.187.263,5.516,5.516,0,0,1-1.725.982A5.909,5.909,0,0,1,19.425.15ZM23.34-1.71l-1.5-.3V-4.695H19.77a.818.818,0,0,1-.555-.2.626.626,0,0,1-.225-.495.626.626,0,0,1,.225-.495.818.818,0,0,1,.555-.2h2.805a.736.736,0,0,1,.555.217.776.776,0,0,1,.21.563ZM31.08.15a5.661,5.661,0,0,1-2.273-.457,5.649,5.649,0,0,1-1.845-1.275,5.926,5.926,0,0,1-1.23-1.912,6.266,6.266,0,0,1-.442-2.37,6.169,6.169,0,0,1,.442-2.348,5.947,5.947,0,0,1,1.23-1.9A5.77,5.77,0,0,1,28.8-11.4a5.567,5.567,0,0,1,2.28-.465,5.875,5.875,0,0,1,1.987.3,5.718,5.718,0,0,1,1.673.99.831.831,0,0,1,.188.188.569.569,0,0,1,.09.195,1.046,1.046,0,0,1,.022.233.616.616,0,0,1-.2.472.788.788,0,0,1-.488.21.789.789,0,0,1-.555-.187,4.449,4.449,0,0,0-1.147-.735,4.022,4.022,0,0,0-1.567-.255,3.925,3.925,0,0,0-1.665.36,4.4,4.4,0,0,0-1.373.99,4.57,4.57,0,0,0-.923,1.462,4.779,4.779,0,0,0-.33,1.778,4.82,4.82,0,0,0,.33,1.793,4.57,4.57,0,0,0,.923,1.462,4.3,4.3,0,0,0,1.373.982,4,4,0,0,0,1.665.352,4,4,0,0,0,1.448-.263,5.582,5.582,0,0,0,1.313-.727.788.788,0,0,1,.532-.173.673.673,0,0,1,.443.21.716.716,0,0,1,.18.517.747.747,0,0,1-.06.293.822.822,0,0,1-.18.263,6.034,6.034,0,0,1-1.733.975A5.723,5.723,0,0,1,31.08.15ZM45.6.15a5.574,5.574,0,0,1-1.83-.3,4.741,4.741,0,0,1-1.515-.84,3.306,3.306,0,0,1-.945-1.245.593.593,0,0,1,.007-.585.747.747,0,0,1,.533-.345.746.746,0,0,1,.532.082.918.918,0,0,1,.4.428,1.94,1.94,0,0,0,.592.69,3.4,3.4,0,0,0,1,.51,3.864,3.864,0,0,0,1.23.2,3.794,3.794,0,0,0,1.327-.225,2.374,2.374,0,0,0,.982-.653,1.546,1.546,0,0,0,.375-1.057,1.977,1.977,0,0,0-.622-1.425,3.307,3.307,0,0,0-2.048-.78A5.135,5.135,0,0,1,42.69-6.495,2.87,2.87,0,0,1,41.625-8.76a2.6,2.6,0,0,1,.555-1.68,3.446,3.446,0,0,1,1.507-1.05,5.963,5.963,0,0,1,2.123-.36,4.557,4.557,0,0,1,1.6.255,3.784,3.784,0,0,1,1.192.7,4.606,4.606,0,0,1,.885,1.065.936.936,0,0,1,.173.622.617.617,0,0,1-.292.458.7.7,0,0,1-.615.075.846.846,0,0,1-.495-.39A2.674,2.674,0,0,0,47.67-9.8a2.6,2.6,0,0,0-.81-.472,3.146,3.146,0,0,0-1.1-.172,3.607,3.607,0,0,0-1.86.412,1.411,1.411,0,0,0-.75,1.313,1.732,1.732,0,0,0,.232.862,1.866,1.866,0,0,0,.855.713,5.584,5.584,0,0,0,1.792.42,4.721,4.721,0,0,1,2.783,1.088,3.08,3.08,0,0,1,1,2.392,2.993,2.993,0,0,1-.353,1.485A3.243,3.243,0,0,1,48.518-.7a4.2,4.2,0,0,1-1.35.637A5.84,5.84,0,0,1,45.6.15ZM55.5.075a3.829,3.829,0,0,1-1.853-.442,3.192,3.192,0,0,1-1.29-1.3,4.29,4.29,0,0,1-.472-2.1v-3.69A.742.742,0,0,1,52.1-8a.742.742,0,0,1,.548-.217A.742.742,0,0,1,53.2-8a.742.742,0,0,1,.217.548v3.69a2.753,2.753,0,0,0,.315,1.387,1.963,1.963,0,0,0,.855.81A2.743,2.743,0,0,0,55.8-1.3a2.5,2.5,0,0,0,1.148-.255,2.119,2.119,0,0,0,.8-.69,1.678,1.678,0,0,0,.3-.975H59a3.162,3.162,0,0,1-.458,1.68A3.3,3.3,0,0,1,57.292-.36,3.645,3.645,0,0,1,55.5.075ZM58.815,0a.742.742,0,0,1-.548-.218.742.742,0,0,1-.217-.547v-6.69a.736.736,0,0,1,.217-.555.757.757,0,0,1,.548-.21.75.75,0,0,1,.555.21.75.75,0,0,1,.21.555v6.69a.757.757,0,0,1-.21.547A.736.736,0,0,1,58.815,0Zm4.38,0a.742.742,0,0,1-.548-.218.742.742,0,0,1-.217-.547V-7.44a.736.736,0,0,1,.217-.555.757.757,0,0,1,.548-.21.75.75,0,0,1,.555.21.75.75,0,0,1,.21.555V-.765a.757.757,0,0,1-.21.547A.736.736,0,0,1,63.195,0Zm0-9.54a.952.952,0,0,1-.7-.292.952.952,0,0,1-.292-.7.952.952,0,0,1,.292-.7.952.952,0,0,1,.7-.293.952.952,0,0,1,.7.293.952.952,0,0,1,.292.7.952.952,0,0,1-.292.7A.952.952,0,0,1,63.195-9.54ZM69.795,0a2.458,2.458,0,0,1-1.35-.382A2.684,2.684,0,0,1,67.5-1.425a3.157,3.157,0,0,1-.345-1.485v-7.155a.731.731,0,0,1,.21-.54.731.731,0,0,1,.54-.21.731.731,0,0,1,.54.21.731.731,0,0,1,.21.54V-2.91a1.539,1.539,0,0,0,.33,1,1.008,1.008,0,0,0,.81.405h.51a.591.591,0,0,1,.457.21.78.78,0,0,1,.188.54.676.676,0,0,1-.247.54.951.951,0,0,1-.637.21Zm-3.33-6.615a.722.722,0,0,1-.51-.18.587.587,0,0,1-.195-.45.622.622,0,0,1,.195-.48.722.722,0,0,1,.51-.18H69.93a.722.722,0,0,1,.51.18.622.622,0,0,1,.195.48.587.587,0,0,1-.195.45.722.722,0,0,1-.51.18Z" transform="translate(189 41)" fill="#313a53"/>
  </g>
</svg>
