<svg xmlns="http://www.w3.org/2000/svg" width="789.326" height="80" viewBox="0 0 789.326 80">
  <path id="Path_7132" data-name="Path 7132" d="M592.166.613c2.847,0,3.447,1.708,3.447,3.143V9.042h-5.442c-2.723,0-3.294-1.626-3.294-2.99V.618h5.289ZM591.7,17.932c2.256,0,3.45,1.137,3.45,3.294V65.595h-4.905v-.173a3.087,3.087,0,0,1-2.911-3.274V17.932Zm-259.651,34.6a18.594,18.594,0,0,1,2.18,2.187l.2.259-.222.235c-7.567,7.925-15.166,11.306-25.412,11.306-18.391,0-32.262-14.264-32.262-33.179C276.53,14.642,290.77,0,308.946,0c12.475,0,19.357,4.913,24.938,10.221l.272.257-.252.277c-.012.015-1.4,1.557-2.77,2.926a3.413,3.413,0,0,1-4.967.173,25.776,25.776,0,0,0-17.373-6.5c-13.762,0-24.139,11.039-24.139,25.672,0,14.566,10.6,25.978,24.139,25.978,6.821,0,11.946-1.928,17.687-6.655A3.982,3.982,0,0,1,332.052,52.527ZM448.56,16.706c11.014,0,17.855,7.369,17.855,19.234V65.289h-4.063c-3.173,0-3.6-1.977-3.6-3.91V37.472c0-8.719-4.275-13.716-11.724-13.716-6.294,0-12.645,4.382-12.645,14.175V65.289h-4.214a3.112,3.112,0,0,1-3.45-3.45V37.319c0-8.494-4.382-13.562-11.721-13.562s-12.643,6.025-12.643,14.328V61.839c0,2.755-1.208,3.3-3.3,3.3h-4.367V17.472h4.214a3.276,3.276,0,0,1,3.6,3.6v3.368C405.447,20.314,409.6,16.4,417.3,16.4c8.946,0,13.219,5.373,15.075,8.978,4.144-5.832,9.448-8.674,16.187-8.674Zm55.327.153c11.032,0,22.758,8.674,22.758,24.75s-11.726,24.752-22.76,24.752c-7.11,0-12.858-3-17.546-9.173V79.849h-4.367c-2.157,0-3.3-1.194-3.3-3.45V17.778h3.756c2.555,0,3.9,1.3,3.9,3.754V26.45c4.693-6.452,10.444-9.591,17.551-9.591Zm14.788,24.75c0-11.721-8.135-17.852-16.17-17.852-8.173,0-16.627,6.621-16.627,17.7,0,11.175,8.452,17.855,16.627,17.855C512.028,59.311,518.675,52.033,518.675,41.609Zm127.05-20.381a3.707,3.707,0,0,1,3.6-3.6h4.214V56.782C653.54,71.538,644.742,80,629.4,80a36.516,36.516,0,0,1-21.525-6.66l-.267-.19.148-.294c.017-.037.479-.956,1.7-2.941a2.784,2.784,0,0,1,2.422-1.545,5.959,5.959,0,0,1,2.857,1.112,29.754,29.754,0,0,0,14.511,3.776c10.567,0,16.627-5.951,16.627-16.323V52.515c-5.019,6.116-10.923,9.094-18.006,9.094-10.884,0-22.452-7.871-22.452-22.454a22.286,22.286,0,0,1,6.962-16.565,22.96,22.96,0,0,1,15.49-6.04,21.815,21.815,0,0,1,17.855,8.724V21.228Zm.306,18.236c0-10.2-8.647-15.71-16.78-15.71-9.193,0-15.866,6.544-15.866,15.557a15.44,15.44,0,0,0,15.866,15.707C637.5,55.018,646.032,49.2,646.032,39.464Zm43.6-22.6c11.123,0,18.312,7.488,18.312,19.078v29.5h-4.676c-2.143,0-3.138-1.043-3.138-3.292V37.625c0-8.59-4.728-13.716-12.646-13.716-8.076,0-13.715,5.892-13.715,14.328l.156,27.2h-7.819V17.778h4.214c1.794,0,3.6,1.018,3.6,3.294V25.13A18.027,18.027,0,0,1,689.635,16.859Zm-134.254.306c13.041,0,20.306,6.771,20.462,19.076V65.289h-4.216c-2.249,0-3.3-1-3.3-3.141V58.923A21.238,21.238,0,0,1,551.7,66.361c-12.267,0-17.857-7.827-17.857-15.1,0-9.593,7.458-15.095,20.462-15.095H562.2v2.681c0,2.217-1.127,3.294-3.447,3.294h-3.831c-8.551,0-13.258,3.185-13.258,8.966,0,6.161,5.919,8.966,11.417,8.966,8.837,0,15.248-5.19,15.248-12.337V36.4c0-7.957-4.814-12.337-13.56-12.337a30.3,30.3,0,0,0-11.509,2.274c-1.461.487-3.237.445-3.867-1.134q-.719-1.836-1.384-3.692l-.119-.331.321-.148a39.724,39.724,0,0,1,17.17-3.863Zm-192.952,0c13.038,0,20.306,6.771,20.462,19.076V65.289h-4.216c-2.249,0-3.3-1-3.3-3.141V58.923a21.231,21.231,0,0,1-16.627,7.439c-12.267,0-17.855-7.827-17.855-15.1,0-9.593,7.458-15.095,20.462-15.095h7.834v2.681c0,2.217-1.129,3.294-3.447,3.294H361.97c-8.551,0-13.256,3.185-13.256,8.966,0,6.161,5.919,8.966,11.417,8.966,8.837,0,15.248-5.19,15.248-12.337V36.4c0-7.957-4.816-12.337-13.562-12.337a30.309,30.309,0,0,0-11.509,2.274c-1.468.492-3.237.445-3.865-1.134q-.722-1.835-1.384-3.692l-.124-.336.329-.143a40.078,40.078,0,0,1,17.165-3.863Zm424.293,17.7a5.357,5.357,0,0,1,2.6,4.446v.862a5.983,5.983,0,0,1-2.6,4.809l-.007,0c-1.013.724-11.326,7.869-22.244,15.436-10.681,7.4-22.716,15.742-24.186,16.782v1.2l-.714-1.2a.193.193,0,0,1-.03-.2h-.022V70.728c0-2.143.237-3.173,2.622-4.762,1.992-1.28,33.52-23.143,37.7-26.04-4.152-2.884-35.275-24.49-37.408-26.052l-.252-.183c-1.577-1.142-2.817-2.041-2.817-4.419V1.794l.6.42C741.826,3.509,785.5,33.953,786.722,34.865Zm-27.3,8.457a5.882,5.882,0,0,1-3.277-1.124c-2.728-1.821-16.723-11.553-16.864-11.652l-.163-.114v-4.8a2.544,2.544,0,0,1,1.307-2.4,2.85,2.85,0,0,1,2.98.4c2.105,1.354,22.469,15.485,22.674,15.631l.462.319-.47.314s-1.377.917-2.9,1.984A6.349,6.349,0,0,1,759.422,43.321ZM109.369,54.516c1.5,1.5,2.261,2.113,2.269,2.12l.309.247-.257.3c-3.724,4.342-9.28,9.329-19.3,9.329A24.629,24.629,0,0,1,67.948,41.762c0-13.965,10.738-24.9,24.446-24.9,7.7,0,13.557,2.59,18.979,8.4l.237.257-.235.259q-1.279,1.416-2.62,2.775c-1.5,1.5-3.079,1.411-5.116-.284-2.748-2.229-6.26-4.51-11.4-4.51-9.151,0-16.323,7.844-16.323,17.855S83.289,59.466,92.7,59.466A17.319,17.319,0,0,0,104.55,54.66c1.035-.83,3.188-1.774,4.819-.141ZM160.287.615a3.3,3.3,0,0,1,3.447,3.6V9.045h-5.439c-2.723,0-3.3-1.626-3.3-2.99V.618h5.289Zm-.613,17.319c2.256,0,3.447,1.137,3.447,3.294V65.6h-4.9v-.173A3.088,3.088,0,0,1,155.3,62.15V17.932h4.369Zm50.374,2.528a4.114,4.114,0,0,1,4.184-2.686h5.338l-.235.536c-.188.43-18.708,42.933-19.466,44.6A3.805,3.805,0,0,1,196,65.439h-.922c-1.972,0-3.2-.378-4.031-2.38-.754-1.661-19.276-44.471-19.461-44.9l-.232-.536h5.486a4.344,4.344,0,0,1,4.34,2.842c.556,1.668,12.169,29.843,14.358,35.159C197.729,50.308,209.359,22.118,210.048,20.462Zm48.017,18.312a1.184,1.184,0,0,0,.964-.353,2.039,2.039,0,0,0,.19-1.651c-.633-7.893-6.331-13.172-14.183-13.172-7.789,0-13.871,6.413-14.791,15.594a20.632,20.632,0,0,0-.151,2.568,19.6,19.6,0,0,0,.148,2.4c.979,9.341,7.476,15.609,16.172,15.609a17.892,17.892,0,0,0,12.616-4.651,3.213,3.213,0,0,1,4.483-.017c1.236,1.082,2.308,2,2.308,2l.3.257-.267.292c-5.588,6.129-11.63,8.862-19.595,8.862-13.585,0-23.83-10.708-23.83-24.9S232.282,16.7,245.343,16.7c11.924,0,20.7,8.081,21.839,20.116a7.817,7.817,0,0,1-1.68,6.052,7.3,7.3,0,0,1-5.6,2.031c-4.191,0-14.309.015-23.022.153l-.388,0v-3a3.027,3.027,0,0,1,3.294-3.294h18.277ZM37.721,2.978C38.631,4.95,65.345,64.3,65.617,64.9l.242.541H61.283c-.974,0-3.934,0-5.1-2.523-.845-1.836-20.388-46.193-23.255-52.7L18.96,41.532H39.634v3.45c0,2.246-1.631,3.754-4.06,3.754H15.858c-.744,1.641-5.338,11.741-6.183,13.57-1.186,2.2-2.57,3.136-4.639,3.136H0L.242,64.9C.514,64.3,27.53,4.2,28.135,2.832A4.239,4.239,0,0,1,31.857.46H33.7A3.832,3.832,0,0,1,37.717,2.97l0,.01ZM143.937,58.693a2.589,2.589,0,0,1,.947,2.224c0,1.688-.148,3.05-.153,3.109l-.025.205-.185.094a23.771,23.771,0,0,1-9.675,2.034c-8.746,0-13.562-4.819-13.562-13.565V.766h3.756c2.372,0,3.9,1.414,3.9,3.6V17.932H139.75c1.955,0,4.06,1.127,4.06,3.6v3.294H128.946l.153,26.9c0,4.933,2.5,7.434,7.431,7.434a15.667,15.667,0,0,0,4.5-.751,3.294,3.294,0,0,1,2.909.289Z" fill="#356ae5" fill-rule="evenodd"/>
</svg>
