<svg id="Layer_2" data-name="Layer 2" xmlns="http://www.w3.org/2000/svg" width="603.377" height="80" viewBox="0 0 603.377 80">
  <g id="Layer_1" data-name="Layer 1">
    <path id="Path_7099" data-name="Path 7099" d="M579.338,24.723c11.128,0,17.208,8.147,17.208,18.422,0,1.144-.227,3.579-.227,3.579h-26.8c.76,6.854,5.788,10.426,11.64,10.426,6.243,0,10.893-4.332,10.893-4.332l4.035,6.7a23.634,23.634,0,0,1-15.611,5.861c-12.868,0-20.866-9.286-20.866-20.335C559.62,33.1,567.688,24.723,579.338,24.723Zm7.316,15.3c-.161-4.648-3.351-7.844-7.316-7.844-4.951,0-8.445,2.972-9.515,7.844Z" transform="translate(6.833 0.302)" fill="#424243"/>
    <path id="Path_7100" data-name="Path 7100" d="M218.58,24.723c11.118,0,17.208,8.147,17.208,18.422,0,1.144-.232,3.579-.232,3.579h-26.8c.758,6.854,5.784,10.426,11.653,10.426,6.241,0,10.887-4.332,10.887-4.332l4.033,6.7a23.62,23.62,0,0,1-15.6,5.861c-12.874,0-20.87-9.286-20.87-20.335C198.857,33.1,206.927,24.723,218.58,24.723Zm7.31,15.3c-.154-4.648-3.348-7.844-7.31-7.844-4.953,0-8.45,2.972-9.515,7.844Z" transform="translate(2.428 0.302)" fill="#424243"/>
    <path id="Path_7101" data-name="Path 7101" d="M329.049,24.723c11.117,0,17.208,8.147,17.208,18.422,0,1.144-.229,3.579-.229,3.579h-26.8c.757,6.854,5.785,10.426,11.64,10.426,6.248,0,10.9-4.332,10.9-4.332l4.033,6.7a23.618,23.618,0,0,1-15.611,5.861c-12.863,0-20.866-9.286-20.866-20.335C309.323,33.1,317.4,24.723,329.049,24.723Zm7.308,15.3c-.153-4.648-3.351-7.844-7.308-7.844-4.948,0-8.456,2.972-9.515,7.844Z" transform="translate(3.777 0.302)" fill="#424243"/>
    <path id="Path_7102" data-name="Path 7102" d="M481.4,35.53a1.488,1.488,0,0,0-1.669-1.676h-3.049V25.633h8.908c3.421,0,5.1,1.6,5.1,4.343v1.14a11.111,11.111,0,0,1-.147,1.677h.147a14.934,14.934,0,0,1,13.715-8.07c8.6,0,13.552,4.492,13.552,14.778V54.654a1.518,1.518,0,0,0,1.666,1.673h3.052v8.147h-9.211c-3.653,0-5.175-1.523-5.175-5.175V41.473c0-4.719-1.221-7.915-6.1-7.915a10.639,10.639,0,0,0-10.426,7.915A16.183,16.183,0,0,0,491,46.653V64.467h-9.6Z" transform="translate(5.82 0.302)" fill="#424243"/>
    <path id="Path_7103" data-name="Path 7103" d="M453.45,24.723c11.876,0,21.324,8.45,21.324,20.328,0,11.961-9.448,20.335-21.324,20.335-11.8,0-21.248-8.374-21.248-20.335C432.2,33.173,441.647,24.723,453.45,24.723Zm0,32.435c6.324,0,11.579-4.865,11.579-12.107,0-7.155-5.254-12.1-11.579-12.1-6.243,0-11.5,4.949-11.5,12.1C441.953,52.294,447.207,57.158,453.45,57.158Z" transform="translate(5.277 0.302)" fill="#424243"/>
    <path id="Path_7104" data-name="Path 7104" d="M428.237,45.051c0,12.03-6.7,20.335-17.216,20.335-8.38,0-11.651-5.487-11.651-5.487h-.148s.148,1.374.148,3.35V79.7H389.7V35.53a1.492,1.492,0,0,0-1.675-1.676H384.98V25.633H393.5c3.508,0,4.954,1.448,4.954,3.427v1.372h.15s3.2-5.709,12.038-5.709C420.923,24.723,428.237,32.72,428.237,45.051Zm-19.42,12.183c5.713,0,9.672-4.794,9.672-12.183,0-7.693-4.5-12.028-9.746-12.028-6.478,0-9.675,5.939-9.675,11.952C399.07,53.583,403.786,57.234,408.817,57.234Z" transform="translate(4.701 0.302)" fill="#424243"/>
    <path id="Path_7105" data-name="Path 7105" d="M355.322,52.138s4.951,5.706,11.577,5.706c2.972,0,5.256-1.215,5.256-3.8,0-5.486-20.486-5.41-20.486-17.974,0-7.77,7.006-11.347,15.082-11.347,5.249,0,13.626,1.75,13.626,8.074V36.83h-8.523v-1.9c0-1.831-2.74-2.745-4.877-2.745-3.423,0-5.784,1.215-5.784,3.505,0,6.089,20.639,4.876,20.639,17.815,0,7.313-6.478,11.88-14.931,11.88a21.311,21.311,0,0,1-16.145-6.93Z" transform="translate(4.283 0.302)" fill="#424243"/>
    <path id="Path_7106" data-name="Path 7106" d="M530.063,52.138s4.943,5.706,11.577,5.706c2.967,0,5.256-1.215,5.256-3.8,0-5.486-20.486-5.41-20.486-17.974,0-7.77,7-11.347,15.082-11.347,5.251,0,13.623,1.75,13.623,8.074V36.83h-8.528v-1.9c0-1.831-2.74-2.745-4.872-2.745-3.428,0-5.787,1.215-5.787,3.505,0,6.089,20.626,4.876,20.626,17.815,0,7.313-6.464,11.88-14.915,11.88a21.311,21.311,0,0,1-16.14-6.928Z" transform="translate(6.416 0.302)" fill="#424243"/>
    <path id="Path_7107" data-name="Path 7107" d="M260.76,56.44c-2.667,0-7.693-.911-7.693-7.31V33.44H261.9V29.867c0-2.845-1.271-4.118-4.118-4.118h-4.715V15.165h-9.439V25.75h-5.255v7.693H243.4v16.9c0,13.017,10.737,14.625,16.144,14.625a17.409,17.409,0,0,0,2.971-.234V56.29a9.032,9.032,0,0,1-1.751.15Z" transform="translate(2.911 0.185)" fill="#424243"/>
    <path id="Path_7108" data-name="Path 7108" d="M171.043,9.629c13.26,0,19.731,6.86,19.731,6.86l-5.635,7.159a23.134,23.134,0,0,0-13.867-4.8c-9.371,0-17.372,7.389-17.372,18.364,0,11.809,8.071,19.047,17.752,19.047a19.594,19.594,0,0,0,13.71-5.638V46.579a1.491,1.491,0,0,0-1.677-1.674h-3.277V36.449h8.763c3.655,0,5.181,1.524,5.181,5.1V64.637h-8.536V62.042c0-1.138.08-2.286.08-2.286h-.156a23.612,23.612,0,0,1-15.92,5.793c-14.171,0-26.281-10.824-26.281-28.263C143.542,21.746,155.349,9.629,171.043,9.629Z" transform="translate(1.753 0.118)" fill="#424243"/>
    <path id="Path_7109" data-name="Path 7109" d="M267.618,10.536h19.269c9.9,0,16.838,6.1,16.838,16.3,0,9.75-6.7,13.783-8.989,14.248v.146a6.2,6.2,0,0,1,2.672,2.746l5.257,10.435c.831,1.6,2.131,1.754,3.808,1.754h.982v8.457H302.2c-4.035,0-5.786-.615-7.544-4.04l-6.929-13.633c-1.142-2.14-2.284-2.516-5.1-2.516H277.6v20.19h-9.983ZM285.525,35.9c5.025,0,8-3.122,8-8.527,0-5.331-2.971-8.379-7.85-8.379H277.6V35.9Z" transform="translate(3.268 0.129)" fill="#424243"/>
    <path id="Path_7110" data-name="Path 7110" d="M118.327,70.247a5.061,5.061,0,0,1-5.061,5.061H5.061A5.061,5.061,0,0,1,0,70.247V5.061A5.061,5.061,0,0,1,5.061,0H113.266a5.061,5.061,0,0,1,5.061,5.061Z" fill="#00aeef"/>
    <path id="Path_7111" data-name="Path 7111" d="M117.049,1.873C103.1,23.663,81.288,43.56,58.87,43.082A41.815,41.815,0,0,1,33.228,34a40.527,40.527,0,0,1-14.2-23.264h-2.5a5.4,5.4,0,0,0-5.365,6.182c.1.671.225,1.458.354,2.252a47.979,47.979,0,0,0,18.41,30.1,49.029,49.029,0,0,0,29.1,9.878c19.695-.061,40.805-12.519,59.165-44.793V5.038A4.992,4.992,0,0,0,117.049,1.873Z" transform="translate(0.136 0.023)" fill="#fff"/>
  </g>
</svg>
