<svg xmlns="http://www.w3.org/2000/svg" xmlns:xlink="http://www.w3.org/1999/xlink" width="347.641" height="80" viewBox="0 0 347.641 80">
  <defs>
    <linearGradient id="linear-gradient" x1="0.523" y1="12.747" x2="0.523" y2="11.333" gradientUnits="objectBoundingBox">
      <stop offset="0" stop-color="#efc119"/>
      <stop offset="0.331" stop-color="#92c84e"/>
      <stop offset="0.486" stop-color="#71bf5b"/>
      <stop offset="0.751" stop-color="#15b158"/>
      <stop offset="0.903" stop-color="#23ac69"/>
      <stop offset="1" stop-color="#23ac69"/>
    </linearGradient>
  </defs>
  <g id="Group_7300" data-name="Group 7300" transform="translate(-0.322 -0.329)">
    <path id="Path_7133" data-name="Path 7133" d="M2.723,36.555,55.888,1.335a7.422,7.422,0,0,1,7.463,0l53.165,35.22a4.241,4.241,0,0,1,0,7.631l-7.128,4.7a58.951,58.951,0,0,0-99.623,0l-7.128-4.7a4.266,4.266,0,0,1,.084-7.631Zm56.855-.419a44.513,44.513,0,0,0-37.568,20.8l12.243,8.134a29.474,29.474,0,0,1,50.482,0l12.243-8.134a43.9,43.9,0,0,0-37.4-20.8Zm0,29.434a15.056,15.056,0,0,0-13,7.631L54.8,78.567a7.448,7.448,0,0,0,4.78,1.761,7.281,7.281,0,0,0,4.78-1.761L72.576,73.2A14.918,14.918,0,0,0,59.578,65.569Z" transform="translate(0 0)" fill="url(#linear-gradient)"/>
    <path id="Path_7134" data-name="Path 7134" d="M69.206,28.286,82.539,47.406H73.147L63.084,32.563V47.406H55.453V9.5h7.631V24.6L72.644,9.5h8.8Zm26.5-18.7H88.074v37.9h19.539v-7.63H95.537L95.7,9.586ZM130.17,8.244,146.1,47.489H137.55l-1.51-4.109H123.461l-1.51,4.109h-8.637L129.247,8.244Zm3.1,28.009-3.438-9.811-3.522,9.811Zm23.565-5.619-7.8-21.048h-8.552l15.933,39.245h.755L173.105,9.586h-8.637Zm22.054,16.855h7.632V9.586h-7.631Zm37.9-37.9L209.08,22.668,201.365,9.586H192.14l13.166,20.8V47.49h7.547V30.383l13.25-20.8Zm48.47,18.281A19.623,19.623,0,1,1,245.642,8.244,19.623,19.623,0,0,1,265.264,27.867Zm-7.379,0a12.2,12.2,0,1,0-3.575,8.669,12.243,12.243,0,0,0,3.575-8.669Z" transform="translate(82.699 11.874)" fill="#171a1d"/>
  </g>
</svg>
