<svg xmlns="http://www.w3.org/2000/svg" width="299.536" height="80.543" viewBox="0 0 299.536 80.543">
  <g id="mailchimp-seeklogo.com" transform="translate(-112.646 -155)">
    <g id="Group_7274" data-name="Group 7274" transform="translate(200.637 178.813)">
      <path id="Path_7057" data-name="Path 7057" d="M264.433,208.409c-2.091.482-3.173-.161-3.173-1.546,0-1.9,1.963-2.658,4.766-2.658,1.233,0,2.4.106,2.4.106A6.221,6.221,0,0,1,264.433,208.409Zm2.128-19a27.546,27.546,0,0,0-11.5,2.462v7.237s5.307-3.051,9.612-3.051c3.435,0,3.857,1.853,3.7,3.391a18.8,18.8,0,0,0-4.015-.262c-7.126,0-10.722,3.239-10.722,8.431,0,4.926,4.041,6.984,7.447,6.984a8.193,8.193,0,0,0,7.824-4.924c.466-1.1.552-1.84.969-1.84.479,0,.318.532.294,1.625a17.688,17.688,0,0,0,.355,4.585h6.589V202.192c0-7.4-2.618-12.786-10.555-12.786" transform="translate(-215.454 -182.428)" fill="#100f0d" fill-rule="evenodd"/>
      <path id="Path_7058" data-name="Path 7058" d="M305.446,201.2c0-2.165,2.013-4.136,5.707-4.136a16.016,16.016,0,0,1,7.989,2.379v-8.378s-2.558-2.463-8.844-2.463c-6.627,0-12.146,3.878-12.146,12.225S303.16,213.8,310.279,213.8a13.843,13.843,0,0,0,8.877-3.056v-7.957a15.312,15.312,0,0,1-7.963,2.615c-4.227,0-5.746-1.945-5.746-4.2Zm-88.068-12.05a10,10,0,0,1-.132,4.16c-.282,1.2-.8,2.216-.175,2.216.431,0,.432-.358.993-1.641.821-1.876,2.551-5.29,6.593-5.29a6.022,6.022,0,0,1,6.253,4.521c.456,1.661.057,2.41.614,2.41.4,0,.532-.862,1.019-1.952.874-1.953,2.776-4.979,6.622-4.979,5.8,0,8.019,4.191,8.019,10.478v14.166h-8.622V200.174c0-2.177-.352-4.289-2.337-4.289-1.839,0-2.7,3.259-2.7,5.363v11.991h-8.78V200.175c0-2.786-.393-4.289-2.351-4.289-1.695,0-2.684,3-2.684,5.363v11.986H210.97V189.145h6.407Zm58.125.033a9.384,9.384,0,0,0,4.381.86,9.247,9.247,0,0,0,4.364-.86V213.24H275.5Zm72.192,0a9.386,9.386,0,0,0,4.381.86,9.251,9.251,0,0,0,4.364-.86V213.24h-8.745Zm-51.873-7.326V213.24h-8.745V181.852Zm33.713,0a11.2,11.2,0,0,1,.362,3.588,28.351,28.351,0,0,1-1.269,8.415c-.216.651-.6,1.655-.048,1.673.319.01.51-.47.9-1.3s2.314-5.63,7.376-5.63c6.972,0,8,5.71,8,11.893v12.751h-8.745V199.965c0-2.722-.571-4.075-2.4-4.075-2.2,0-2.982,3.411-2.982,5.364v11.985h-8.745V181.852h7.549Zm36.266,7.293a10,10,0,0,1-.132,4.16c-.282,1.2-.8,2.216-.174,2.216.431,0,.432-.358.993-1.641.82-1.876,2.551-5.29,6.593-5.29,4.018,0,5.612,2.346,6.253,4.521.43,1.458.057,2.41.614,2.41.4,0,.532-.862,1.019-1.952.873-1.953,2.776-4.979,6.622-4.979,5.8,0,8.019,4.191,8.019,10.478v14.166h-8.622V200.174c0-2.177-.352-4.289-2.337-4.289-1.839,0-2.7,3.259-2.7,5.363v11.991h-8.78V200.175c0-2.786-.391-4.289-2.35-4.289-1.695,0-2.684,3-2.684,5.363v11.986h-8.745V189.145H365.8Zm-85.953-7.536c-2.955,0-5.352,1.564-5.352,3.494s2.4,3.494,5.352,3.494,5.353-1.564,5.353-3.494S282.806,181.609,279.848,181.609Zm72.193,0c-2.956,0-5.353,1.564-5.353,3.494s2.4,3.494,5.353,3.494,5.353-1.564,5.353-3.494S355,181.609,352.041,181.609Z" transform="translate(-210.97 -181.609)" fill="#100f0d" fill-rule="evenodd"/>
      <path id="Path_7059" data-name="Path 7059" d="M432.509,208.868c-2,0-3.479-2.542-3.479-6.085,0-3.441,1.514-6.084,3.411-6.084,2.431,0,3.47,2.231,3.47,6.084C435.909,206.791,434.953,208.868,432.509,208.868Zm2.4-19.467c-4.493,0-6.554,3.369-7.449,5.289-.592,1.268-.56,1.641-.993,1.641-.624,0-.106-1.018.175-2.216a9.975,9.975,0,0,0,.133-4.16h-6.4V220.69h8.742v-9.744a6.837,6.837,0,0,0,5.9,3.63c6.323,0,9.5-5.349,9.5-12.575,0-8.19-3.808-12.6-9.61-12.6" transform="translate(-232.975 -182.428)" fill="#100f0d" fill-rule="evenodd"/>
    </g>
    <g id="Group_7275" data-name="Group 7275" transform="translate(112.645 155.001)">
      <path id="Path_7060" data-name="Path 7060" d="M176.28,196.816a6.5,6.5,0,0,1,1.669,0,5.7,5.7,0,0,0,.081-3.161c-.4-1.917-.942-3.077-2.063-2.9s-1.162,1.57-.761,3.486a6.485,6.485,0,0,0,1.073,2.571" transform="translate(-119.195 -158.756)" fill="#231f20" fill-rule="evenodd"/>
      <path id="Path_7061" data-name="Path 7061" d="M164.847,198.942c.8.352,1.294.585,1.486.381.124-.127.087-.37-.1-.682a4.713,4.713,0,0,0-2.073-1.668,5.652,5.652,0,0,0-5.495.66c-.536.393-1.044.937-.972,1.267.023.106.1.187.292.214.442.05,1.987-.73,3.767-.839a6.558,6.558,0,0,1,3.1.668" transform="translate(-117.378 -159.366)" fill="#231f20" fill-rule="evenodd"/>
      <path id="Path_7062" data-name="Path 7062" d="M163.594,200.249a3.781,3.781,0,0,0-1.989.829,1.276,1.276,0,0,0-.508.795.243.243,0,0,0,.08.191.25.25,0,0,0,.172.065,3.191,3.191,0,0,0,.764-.212,6.657,6.657,0,0,1,3.36-.349c.524.059.773.091.888-.089a.3.3,0,0,0-.03-.334,3.037,3.037,0,0,0-2.736-.9" transform="translate(-117.737 -159.753)" fill="#231f20" fill-rule="evenodd"/>
      <path id="Path_7063" data-name="Path 7063" d="M172.7,203.783a1.284,1.284,0,0,0,1.743-.305c.254-.516-.115-1.218-.823-1.566a1.284,1.284,0,0,0-1.743.305c-.254.517.115,1.218.823,1.566" transform="translate(-118.861 -159.91)" fill="#231f20" fill-rule="evenodd"/>
      <path id="Path_7064" data-name="Path 7064" d="M177.771,199.576c-.575-.01-1.053.622-1.067,1.412s.443,1.437,1.018,1.447,1.053-.622,1.067-1.412-.443-1.437-1.018-1.447" transform="translate(-119.377 -159.685)" fill="#231f20" fill-rule="evenodd"/>
      <path id="Path_7065" data-name="Path 7065" d="M133.6,214.413c-.143-.18-.379-.125-.607-.072a2.17,2.17,0,0,1-.537.076,1.165,1.165,0,0,1-.984-.5,1.827,1.827,0,0,1,.042-1.69l.135-.308c.462-1.036,1.234-2.77.367-4.422a3.917,3.917,0,0,0-3-2.181,3.854,3.854,0,0,0-3.3,1.19,4.751,4.751,0,0,0-1.227,3.993c.09.247.232.316.334.33.217.029.537-.129.737-.669l.057-.175a5.3,5.3,0,0,1,.529-1.243,2.267,2.267,0,0,1,1.443-1,2.309,2.309,0,0,1,1.763.329,2.256,2.256,0,0,1,.855,2.72,6.345,6.345,0,0,0-.447,2.419,2.4,2.4,0,0,0,2.146,2.478,1.834,1.834,0,0,0,1.729-.861.369.369,0,0,0-.038-.418" transform="translate(-113.88 -160.285)" fill="#231f20" fill-rule="evenodd"/>
      <path id="Path_7066" data-name="Path 7066" d="M141.13,177.619a35.722,35.722,0,0,1,10.023-8.19.13.13,0,0,1,.175.178,9.658,9.658,0,0,0-.931,2.272.136.136,0,0,0,.209.142,19.522,19.522,0,0,1,8.8-3.106.139.139,0,0,1,.093.248,7.481,7.481,0,0,0-1.384,1.389.134.134,0,0,0,.106.214,17.239,17.239,0,0,1,7.355,1.929c.137.077.039.343-.115.308a29.94,29.94,0,0,0-13.325.036,30.618,30.618,0,0,0-10.819,4.782.136.136,0,0,1-.183-.2ZM156.1,211.278v0l0,0Zm12.4,1.463a.241.241,0,0,0,.141-.24.226.226,0,0,0-.248-.2,28.687,28.687,0,0,1-12.477-1.269c.66-2.146,2.415-1.371,5.069-1.157a37.055,37.055,0,0,0,12.237-1.323,28.034,28.034,0,0,0,9.15-4.552,18.452,18.452,0,0,1,1.278,4.358,2.129,2.129,0,0,1,1.342.245c.577.355,1,1.094.711,3a16.63,16.63,0,0,1-4.654,9.127,19.19,19.19,0,0,1-5.59,4.177,23.5,23.5,0,0,1-3.65,1.541c-9.608,3.138-19.443-.311-22.613-7.72a11.809,11.809,0,0,1-.635-1.75,15.364,15.364,0,0,1,3.381-14.426v0a1.3,1.3,0,0,0,.447-.859,1.522,1.522,0,0,0-.345-.816c-1.255-1.819-5.6-4.919-4.727-10.919.626-4.31,4.4-7.345,7.91-7.166l.89.051c1.523.09,2.851.285,4.1.338a8.207,8.207,0,0,0,6.221-2.076,4.813,4.813,0,0,1,2.381-1.346,2.889,2.889,0,0,1,.909-.089,3.006,3.006,0,0,1,1.531.49c1.792,1.192,2.046,4.08,2.139,6.192.053,1.205.2,4.123.249,4.96.114,1.915.617,2.184,1.636,2.52.573.189,1.1.329,1.888.549a10.653,10.653,0,0,1,4.664,2.21,2.934,2.934,0,0,1,.851,1.668c.279,2.04-1.584,4.56-6.518,6.851a33.113,33.113,0,0,1-16.456,2.633l-1.584-.179c-3.615-.487-5.678,4.186-3.508,7.388,1.4,2.064,5.208,3.406,9.02,3.407,8.739,0,15.456-3.731,17.955-6.953l.2-.285c.124-.185.021-.287-.132-.183-2.041,1.4-11.109,6.943-20.808,5.274a12.972,12.972,0,0,1-2.254-.612c-.855-.333-2.644-1.156-2.862-2.992,7.827,2.421,12.755.132,12.755.132Zm-42.991-18.6a10.423,10.423,0,0,0-6.588,4.2,17.9,17.9,0,0,1-2.8-2.7c-2.342-4.448,2.556-13.094,5.978-17.978,8.457-12.068,21.7-21.2,27.833-19.545,1,.282,4.3,4.109,4.3,4.109a86.342,86.342,0,0,0-11.813,8.141c-7.659,5.9-13.443,14.467-16.909,23.768Zm4.574,20.409a6.455,6.455,0,0,1-1.256.088c-4.1-.11-8.52-3.8-8.959-8.17-.486-4.833,1.984-8.553,6.357-9.435a7.413,7.413,0,0,1,1.835-.131c2.45.134,6.06,2.015,6.885,7.353.73,4.727-.43,9.539-4.861,10.294Zm55.481-8.559c-.035-.124-.264-.959-.578-1.966a15.86,15.86,0,0,0-.639-1.716,6.209,6.209,0,0,0,1.114-4.527,5.734,5.734,0,0,0-1.665-3.236,13.546,13.546,0,0,0-5.881-2.913l-1.5-.416c-.007-.062-.079-3.532-.143-5.022a17.2,17.2,0,0,0-.661-4.415,11.822,11.822,0,0,0-3.057-5.458c3.732-3.868,6.061-8.129,6.055-11.784-.011-7.03-8.644-9.157-19.284-4.751l-2.254.957c-.01-.01-4.075-4-4.136-4.052-12.131-10.581-50.057,31.576-37.932,41.815l2.65,2.245a13.022,13.022,0,0,0-.737,6.015,11.844,11.844,0,0,0,4.092,7.606,12.449,12.449,0,0,0,8.03,3.233c4.719,10.874,15.5,17.545,28.142,17.921,13.561.4,24.944-5.96,29.714-17.39a23.96,23.96,0,0,0,1.636-7.608c0-3.206-1.813-4.535-2.968-4.535" transform="translate(-112.645 -155.001)" fill="#231f20" fill-rule="evenodd"/>
    </g>
  </g>
</svg>
