<svg width="180" height="26" viewBox="0 0 180 26" fill="none" xmlns="http://www.w3.org/2000/svg">
<path fill-rule="evenodd" clip-rule="evenodd" d="M44.0776 22.343C41.0742 22.343 39.0058 19.8391 39.0058 16.5795C39.0058 13.32 41.0742 10.816 44.0776 10.816C47.081 10.816 49.1495 13.32 49.1495 16.5795C49.1495 19.8391 47.1131 22.343 44.0776 22.343ZM44.0776 8.05598C39.9023 8.05598 36.0664 11.6293 36.0664 16.5667C36.0664 21.5041 39.9087 25.0774 44.0776 25.0774C48.2465 25.0774 52.0889 21.5105 52.0889 16.5667C52.0889 11.6229 48.2465 8.05598 44.0776 8.05598Z" fill="#1E2423"/>
<path fill-rule="evenodd" clip-rule="evenodd" d="M73.7849 8.05567C72.7793 8.05285 71.788 8.29373 70.8958 8.75768C70.0036 9.22162 69.2371 9.89482 68.6618 10.7197H68.0983C67.6479 9.95971 67.0201 9.32016 66.2686 8.85574C65.5172 8.39133 64.6644 8.11586 63.7832 8.05292C62.9021 7.98998 62.0188 8.14144 61.2089 8.49433C60.399 8.84723 59.6867 9.39106 59.1329 10.0793H58.6654L58.0955 8.21577H56.1743V24.8658H59.1137V15.3817C59.1137 12.3206 60.9836 10.5852 63.1481 10.5852C66.0235 10.5852 66.4205 13.6206 66.4205 16.8482V24.8658H69.3599V15.1511C69.4559 12.2182 71.281 10.5852 73.3943 10.5852C76.2696 10.5852 76.6667 13.6206 76.6667 16.8482V24.8658H79.606V15.8364C79.606 11.2384 77.6016 8.04287 73.7657 8.04287" fill="#1E2423"/>
<path fill-rule="evenodd" clip-rule="evenodd" d="M92.2672 8.05551C91.3511 8.01773 90.438 8.183 89.5933 8.53949C88.7485 8.89598 87.9931 9.43487 87.381 10.1176H86.984L86.3884 8.1964H84.4673V24.8464H87.3874V15.3815C87.3874 12.455 89.3855 10.585 91.8702 10.585C95.1553 10.585 95.6548 13.883 95.6548 16.848V24.8656H98.575V15.8362C98.575 11.2062 96.4873 8.04271 92.2672 8.04271" fill="#1E2423"/>
<path d="M106.759 8.22266H103.839V24.8791H106.759V8.22266Z" fill="#1E2423"/>
<path d="M105.299 4.84769C106.384 4.84769 107.265 3.96751 107.265 2.88172C107.265 1.79594 106.384 0.915733 105.299 0.915733C104.213 0.915733 103.333 1.79594 103.333 2.88172C103.333 3.96751 104.213 4.84769 105.299 4.84769Z" fill="#1E2423"/>
<path fill-rule="evenodd" clip-rule="evenodd" d="M117.683 15.0682C116.05 14.6327 114.481 14.0948 114.481 12.5642C114.481 11.1938 115.679 10.3229 117.216 10.3229C118.983 10.3229 120.29 11.4628 120.29 12.6923H123.005C123.005 10.3933 120.968 7.95346 117.241 7.95346C114.174 7.95346 111.734 9.62487 111.734 12.5963C111.734 15.9327 114.84 16.8356 117.107 17.4376C118.945 17.9371 120.578 18.4686 120.578 20.172C120.578 21.8755 119.111 22.5735 117.542 22.5735C115.705 22.5735 113.937 21.504 113.937 19.4356H111.235C111.235 22.4774 113.739 24.9813 117.574 24.9813C120.847 24.9813 123.338 23.1434 123.338 20.0375C123.338 16.5987 120.232 15.7342 117.696 15.0682" fill="#1E2423"/>
<path fill-rule="evenodd" clip-rule="evenodd" d="M129.838 14.7992C130.369 12.1288 132.239 10.4254 134.711 10.4254C137.183 10.4254 138.893 12.2312 139.29 14.7992H129.838ZM134.749 7.95346C130.574 7.95346 126.828 11.1554 126.828 16.3361C126.828 21.5168 130.574 24.9813 134.781 24.9813C136.324 24.9759 137.83 24.5129 139.109 23.6511C140.388 22.7893 141.382 21.5674 141.967 20.14H138.893C138.456 20.8265 137.846 21.3854 137.124 21.7599C136.402 22.1344 135.594 22.3113 134.781 22.2725C131.906 22.2725 129.972 20.3513 129.703 17.2326H142.332C142.665 10.9248 138.758 7.95346 134.749 7.95346Z" fill="#1E2423"/>
<path fill-rule="evenodd" clip-rule="evenodd" d="M154.263 8.05551C153.348 8.01734 152.436 8.18246 151.592 8.539C150.748 8.89555 149.994 9.43466 149.383 10.1176H148.98L148.384 8.1964H146.463V24.8464H149.39V15.3815C149.39 12.455 151.381 10.585 153.872 10.585C157.164 10.585 157.657 13.883 157.657 16.848V24.8656H160.584V15.8362C160.584 11.2062 158.49 8.04271 154.269 8.04271" fill="#1E2423"/>
<path fill-rule="evenodd" clip-rule="evenodd" d="M172.392 22.3051C169.901 22.3051 167.41 20.1406 167.41 16.5417C167.41 12.9427 169.901 10.7782 172.392 10.7782C174.589 10.7782 177.176 12.4496 177.176 16.5417C177.176 20.6337 174.614 22.3051 172.392 22.3051ZM177.176 1.17241V10.6757C176.641 9.83663 175.898 9.15026 175.02 8.68342C174.141 8.21658 173.156 7.98517 172.162 8.01173C167.942 8.01173 164.477 11.5723 164.477 16.5097C164.477 21.447 167.935 25.0076 172.162 25.0076C173.08 25.0348 173.992 24.8401 174.819 24.4399C175.646 24.0396 176.365 23.4457 176.913 22.7086H177.438L178.079 24.8411H180V1.17241H177.176Z" fill="#1E2423"/>
<path d="M19.7111 1.24912H4.13049C3.58837 1.24828 3.0514 1.35432 2.55031 1.5612C2.04921 1.76808 1.59382 2.07173 1.21018 2.45477C0.826547 2.83781 0.52219 3.29273 0.314535 3.7935C0.10688 4.29428 -6.53572e-07 4.83108 0 5.37321V20.9538C-6.53572e-07 21.4959 0.10688 22.0327 0.314535 22.5335C0.52219 23.0343 0.826547 23.4892 1.21018 23.8722C1.59382 24.2553 2.04921 24.5589 2.55031 24.7658C3.0514 24.9727 3.58837 25.0787 4.13049 25.0779H11.226V21.6646C11.226 18.373 10.8161 15.8499 8.36985 15.1199V12.4239C12.3466 12.7825 14.319 15.741 14.319 20.6016V25.0843H19.7111C20.8049 25.0843 21.8538 24.6498 22.6272 23.8764C23.4007 23.1029 23.8352 22.054 23.8352 20.9602V5.37321C23.8352 4.27943 23.4007 3.23045 22.6272 2.45703C21.8538 1.68362 20.8049 1.24912 19.7111 1.24912ZM12.0264 9.85591C11.574 9.85717 11.1314 9.72418 10.7546 9.47374C10.3778 9.2233 10.0837 8.86669 9.90973 8.44906C9.73571 8.03143 9.68953 7.57156 9.77701 7.12766C9.8645 6.68376 10.0817 6.2758 10.4012 5.95543C10.7207 5.63506 11.128 5.4167 11.5717 5.32796C12.0153 5.23923 12.4753 5.28412 12.8934 5.45697C13.3116 5.62981 13.669 5.92284 13.9205 6.29894C14.172 6.67504 14.3062 7.11729 14.3062 7.56972C14.3062 8.17495 14.0662 8.75548 13.6389 9.18404C13.2115 9.61259 12.6317 9.85421 12.0264 9.85591Z" fill="#1E2423"/>
</svg>
