<svg xmlns="http://www.w3.org/2000/svg" width="273.194" height="273.194" viewBox="0 0 273.194 273.194">
    <path id="Path_1" data-name="Path 1" d="M0,0H273.194V273.194H0Z" fill="none"/>
    <path id="Path_11689" data-name="Path 11689" d="M264.672,148.873a6.644,6.644,0,0,0-6.634-6.634H191.432a6.644,6.644,0,0,0-6.634,6.634v53.339a6.644,6.644,0,0,0,6.634,6.634h66.607a6.644,6.644,0,0,0,6.634-6.634Zm-17.329,46.706h-48.33a2.509,2.509,0,0,1-2.166-3.791l14.621-25.451a1.563,1.563,0,0,1,2.843,0l8.8,15.162a1.711,1.711,0,0,0,2.843.135l7.175-10.289a1.777,1.777,0,0,1,2.843,0L249.1,192.329a2.006,2.006,0,0,1-1.761,3.249Zm-4.332-30.054a6.634,6.634,0,1,1,6.634-6.634,6.477,6.477,0,0,1-6.633,6.633Z" transform="translate(-87.798 -39.239)" fill="#a1a5b7"/>
</svg>