<svg xmlns="http://www.w3.org/2000/svg" width="24" height="24" viewBox="0 0 24 24">
  <g id="upload" transform="translate(-905 -519)">
    <rect id="Rectangle_2" data-name="Rectangle 2" width="24" height="24" transform="translate(905 519)" fill="none"/>
    <path id="Path_1" data-name="Path 1" d="M2.733,16.091A2.738,2.738,0,0,1,0,13.356L0,9.543H2v3.813a.728.728,0,0,0,.728.727H16.88a.727.727,0,0,0,.727-.727V9.543h2.008v3.813a2.709,2.709,0,0,1-.8,1.934,2.736,2.736,0,0,1-1.929.8Zm6.074-3.438V3.424L5.556,6.674l-.142-.141L4.14,5.254l.142-.14L9.1.293a1,1,0,0,1,1.419,0l4.963,4.962L14.063,6.674l-3.249-3.25v9.229Z" transform="translate(907.193 522.954)" fill="#313a53"/>
  </g>
</svg>
