<svg xmlns="http://www.w3.org/2000/svg" xmlns:xlink="http://www.w3.org/1999/xlink" width="107" height="18.275" viewBox="0 0 107 18.275">
  <defs>
    <clipPath id="clip-path">
      <path id="Path_7080" data-name="Path 7080" d="M5131.946-1754.567h107v-18.275h-107Z" transform="translate(0 0)"/>
    </clipPath>
  </defs>
  <g id="Android_TV-Logo.wine" transform="translate(-5131.945 1772.842)" clip-path="url(#clip-path)">
    <path id="Path_7078" data-name="Path 7078" d="M5138.876-1757.712a3.691,3.691,0,0,1-3.628-3.761,3.7,3.7,0,0,1,3.628-3.747,3.567,3.567,0,0,1,3.234,1.756.706.706,0,0,1,.091.316v3.325a.677.677,0,0,1-.067.25,3.707,3.707,0,0,1-3.258,1.861m6.585,2.863v-13.195h-3.26v1.108a5.109,5.109,0,0,0-3.681-1.37,6.623,6.623,0,0,0-6.57,6.833,6.662,6.662,0,0,0,6.57,6.889,5.126,5.126,0,0,0,3.681-1.4v1.135Zm14.158,0v-7.138a6.223,6.223,0,0,0-6.215-6.32,6.214,6.214,0,0,0-6.214,6.32v7.138h3.258v-7.138a2.91,2.91,0,0,1,2.956-3.049,2.918,2.918,0,0,1,2.956,3.049v7.138Zm8.286-2.863a3.691,3.691,0,0,1-3.629-3.761,3.7,3.7,0,0,1,3.629-3.747,3.724,3.724,0,0,1,3.233,1.756.688.688,0,0,1,.091.316v3.339a.637.637,0,0,1-.065.236,3.712,3.712,0,0,1-3.26,1.861m6.585,2.863V-1772h-3.261v5.066a5.131,5.131,0,0,0-3.68-1.412,6.659,6.659,0,0,0-6.571,6.875,6.662,6.662,0,0,0,6.571,6.889,5.122,5.122,0,0,0,3.68-1.4v1.135Zm4.987,0v-7.047a2.848,2.848,0,0,1,3.179-3.192v-3.219c-4.2,0-6.438,2.229-6.438,6.411v7.047Zm10.3-3.021a3.6,3.6,0,0,1-3.588-3.6,3.59,3.59,0,0,1,3.588-3.588,3.587,3.587,0,0,1,3.6,3.588,3.592,3.592,0,0,1-3.6,3.6m0,3.285a6.887,6.887,0,0,0,6.9-6.889,6.85,6.85,0,0,0-6.9-6.833,6.848,6.848,0,0,0-6.887,6.833,6.885,6.885,0,0,0,6.887,6.889m10.015-14.461a1.9,1.9,0,0,0,1.888-1.9,1.89,1.89,0,0,0-1.888-1.9,1.89,1.89,0,0,0-1.887,1.9,1.9,1.9,0,0,0,1.887,1.9m1.623,1h-3.26v13.195h3.26Zm8.407,10.332a3.692,3.692,0,0,1-3.629-3.761,3.7,3.7,0,0,1,3.629-3.747,3.72,3.72,0,0,1,3.231,1.756.665.665,0,0,1,.093.316v3.352a.555.555,0,0,1-.066.224,3.709,3.709,0,0,1-3.258,1.861m6.583,2.863V-1772h-3.259v5.066a5.107,5.107,0,0,0-3.681-1.37,6.625,6.625,0,0,0-6.572,6.833,6.674,6.674,0,0,0,6.572,6.9,5.132,5.132,0,0,0,3.681-1.412v1.135Z" transform="translate(-0.004 0.004)" fill="#77c159"/>
    <path id="Path_7079" data-name="Path 7079" d="M5549.44-1750.4l5.356-13.209h-2.691l-4.382,11.453h.911l-4.393-11.439h-2.772l5.357,13.195Zm-8.617.157.013-2.348h-.29a2.979,2.979,0,0,1-3.261-3.088v-5.739h3.446v-2.178h-3.446v-3.577H5534.9v11.493c0,3.417,2.216,5.436,5.646,5.436Z" transform="translate(-315.852 -4.443)" fill="#868686"/>
  </g>
</svg>
