<svg xmlns="http://www.w3.org/2000/svg" width="105.103" height="21.967" viewBox="0 0 105.103 21.967">
  <g id="Page-1" transform="translate(1 1)">
    <g id="brand_light" transform="translate(-1 -1)">
      <path id="Path" d="M0,0H21.967V21.967H0Z" fill="none" fill-rule="evenodd"/>
      <g id="Group" transform="translate(0.458 0.458)">
        <g id="a-link" transform="translate(0 0)">
          <path id="a" d="M21.051,10.526a26.435,26.435,0,0,0-.729-6.232A4.53,4.53,0,0,0,16.682.7,26.738,26.738,0,0,0,4.526.7,4.565,4.565,0,0,0,.791,4.193,25.745,25.745,0,0,0,0,10.526a26.4,26.4,0,0,0,.729,6.232,4.53,4.53,0,0,0,3.64,3.6,26.749,26.749,0,0,0,12.157-.006,4.567,4.567,0,0,0,3.735-3.49,25.73,25.73,0,0,0,.791-6.333" transform="translate(0 0)" fill="#d54c27"/>
        </g>
        <g id="a-link-2" data-name="a-link" transform="translate(0 0)">
          <path id="a-2" data-name="a" d="M21.051,10.526a26.435,26.435,0,0,0-.729-6.232A4.53,4.53,0,0,0,16.682.7,26.738,26.738,0,0,0,4.526.7,4.565,4.565,0,0,0,.791,4.193,25.745,25.745,0,0,0,0,10.526a26.4,26.4,0,0,0,.729,6.232,4.53,4.53,0,0,0,3.64,3.6,26.749,26.749,0,0,0,12.157-.006,4.567,4.567,0,0,0,3.735-3.49,25.73,25.73,0,0,0,.791-6.333" transform="translate(0 0)" fill="rgba(0,0,0,0.32)"/>
        </g>
      </g>
      <path id="Path-2" data-name="Path" d="M21.823,5.653a4.46,4.46,0,0,0-3.64-3.479A27.618,27.618,0,0,0,6.025,2.18,4.506,4.506,0,0,0,2.29,5.557,24.126,24.126,0,0,0,1.5,11.682a24.762,24.762,0,0,0,.729,6.029,4.459,4.459,0,0,0,3.64,3.479,27.625,27.625,0,0,0,12.157-.006,4.508,4.508,0,0,0,3.735-3.376,24.121,24.121,0,0,0,.791-6.126,24.78,24.78,0,0,0-.729-6.029Z" transform="translate(-1.042 -1.042)" fill="#d54c27"/>
      <path id="Path-3" data-name="Path" d="M34.87,32.347q-.039.158-.079.315a4.509,4.509,0,0,1-3.735,3.376,27.256,27.256,0,0,1-6.542.675L20.25,31.685l6.521-8.81,8.1,9.472Z" transform="translate(-14.072 -15.896)" fill="rgba(0,0,0,0.1)"/>
      <path id="Shape" d="M20.622,28c-.358.006-.479-.219-.268-.5l6.34-8.652,3,3.512a.806.806,0,0,1,0,.985L26.35,27.418a1.589,1.589,0,0,1-1.057.5L20.622,28ZM20.607,17.25l4.329.081a1.426,1.426,0,0,1,.935.415q.052.045.327.375l.229.274-2.86,3.89-.172-.229-3.044-4.173C20.147,17.6,20.259,17.244,20.607,17.25Z" transform="translate(-14.072 -11.987)" fill="#fefefe"/>
      <g id="Group-2" data-name="Group" transform="translate(25.628 2.975)">
        <path id="Shape-2" data-name="Shape" d="M5.447,5.944l-1.644,5H7.1l-1.618-5ZM.119,14.059l3.49-9.379a2.391,2.391,0,0,1,.733-1.039A1.744,1.744,0,0,1,5.464,3.25a1.77,1.77,0,0,1,1.148.387A2.264,2.264,0,0,1,7.32,4.681l3.405,9.379a1.908,1.908,0,0,1,.135.639,1.081,1.081,0,0,1-.165.589,1.132,1.132,0,0,1-.437.4,1.254,1.254,0,0,1-.593.143A1.224,1.224,0,0,1,8.4,14.946l-.517-1.619H3.059l-.525,1.6a1.194,1.194,0,0,1-1.245.906,1.289,1.289,0,0,1-.91-.349A1.12,1.12,0,0,1,0,14.632a1.717,1.717,0,0,1,.119-.572Zm14.018-2.889a3.283,3.283,0,0,0,.506,1.8,1.725,1.725,0,0,0,2.523.423,2.262,2.262,0,0,0,.673-.943,3.289,3.289,0,0,0,.221-1.2,3.385,3.385,0,0,0-.221-1.21,2.3,2.3,0,0,0-.668-.96A1.6,1.6,0,0,0,16.1,8.709a1.7,1.7,0,0,0-1.085.351,2.1,2.1,0,0,0-.664.909,3.284,3.284,0,0,0-.217,1.2Zm-2.51,5.957V7.914a1.443,1.443,0,0,1,.345-1,1.159,1.159,0,0,1,.907-.384,1.2,1.2,0,0,1,1.259,1.039,2.216,2.216,0,0,1,1-.849,3.334,3.334,0,0,1,1.387-.291,3.511,3.511,0,0,1,2.2.7A4.355,4.355,0,0,1,20.1,8.962a6.214,6.214,0,0,1,.468,2.4,5.224,5.224,0,0,1-.515,2.268,4.4,4.4,0,0,1-1.468,1.753,3.661,3.661,0,0,1-2.153.667,3.442,3.442,0,0,1-1.2-.223,3.607,3.607,0,0,1-1.1-.644v1.946a1.556,1.556,0,0,1-.161.71,1.181,1.181,0,0,1-.451.494,1.239,1.239,0,0,1-.647.173,1.17,1.17,0,0,1-.906-.376,1.423,1.423,0,0,1-.345-1Zm10.617-2.555V8.819h-.566a1.094,1.094,0,0,1-.8-.3,1.066,1.066,0,0,1-.305-.8,1.045,1.045,0,0,1,.318-.776,1.082,1.082,0,0,1,.789-.312h.566V5.146a1.441,1.441,0,0,1,.347-1,1.174,1.174,0,0,1,.914-.385,1.241,1.241,0,0,1,.656.174,1.194,1.194,0,0,1,.45.49,1.56,1.56,0,0,1,.164.724v1.49h.72a1.375,1.375,0,0,1,.866.265.974.974,0,0,1,.343.822.99.99,0,0,1-.339.826,1.353,1.353,0,0,1-.87.27h-.72v5.753a1.566,1.566,0,0,1-.164.725,1.186,1.186,0,0,1-.455.491,1.25,1.25,0,0,1-.652.174,1.171,1.171,0,0,1-.914-.385,1.445,1.445,0,0,1-.347-1Zm8.544-5.854a1.652,1.652,0,0,0-1.079.369,2.195,2.195,0,0,0-.673.964,3.508,3.508,0,0,0-.22,1.224,3.361,3.361,0,0,0,.225,1.219,2.2,2.2,0,0,0,.668.943,1.8,1.8,0,0,0,2.166,0,2.2,2.2,0,0,0,.668-.943,3.355,3.355,0,0,0,.224-1.219,3.457,3.457,0,0,0-.22-1.219,2.244,2.244,0,0,0-.669-.964,1.65,1.65,0,0,0-1.091-.374Zm0-2.29a4.15,4.15,0,0,1,1.8.394A4.375,4.375,0,0,1,34.017,7.9a4.966,4.966,0,0,1,.922,1.544,5.169,5.169,0,0,1,.326,1.832,5.3,5.3,0,0,1-.326,1.853,4.829,4.829,0,0,1-.905,1.535A4.2,4.2,0,0,1,32.612,15.7a4.328,4.328,0,0,1-1.824.386,4.237,4.237,0,0,1-2.319-.649,4.4,4.4,0,0,1-1.586-1.756,5.248,5.248,0,0,1-.562-2.413,5.167,5.167,0,0,1,.326-1.811A4.985,4.985,0,0,1,27.573,7.9,4.327,4.327,0,0,1,29,6.818a4.148,4.148,0,0,1,1.785-.39Z" transform="translate(0 -2.487)" fill="#393939"/>
        <path id="Path-4" data-name="Path" d="M120.343,1.583a1.328,1.328,0,0,1,.695.194,1.519,1.519,0,0,1,.516.51,1.24,1.24,0,0,1,.2.662,1.4,1.4,0,0,1-.41,1.007,1.344,1.344,0,0,1-1.973-.013,1.386,1.386,0,0,1-.427-.994A1.291,1.291,0,0,1,119.365,2a1.363,1.363,0,0,1,.978-.417" transform="translate(-82.651 -1.329)" fill="#d54c27"/>
        <path id="Shape-3" data-name="Shape" d="M119.356,12.713V6.076a1.427,1.427,0,0,1,.351-1,1.189,1.189,0,0,1,.923-.384,1.271,1.271,0,0,1,.662.173,1.2,1.2,0,0,1,.455.49,1.542,1.542,0,0,1,.165.722v6.637a1.54,1.54,0,0,1-.165.722,1.185,1.185,0,0,1-.459.49,1.274,1.274,0,0,1-.658.173,1.189,1.189,0,0,1-.923-.384,1.426,1.426,0,0,1-.351-1m9.883-3.345a2.907,2.907,0,0,0-.515-1.727,1.685,1.685,0,0,0-1.459-.724,1.6,1.6,0,0,0-1.06.375,2.285,2.285,0,0,0-.668.956,3.352,3.352,0,0,0-.221,1.205,3.281,3.281,0,0,0,.127.885,2.838,2.838,0,0,0,.375.821,1.865,1.865,0,0,0,.617.582,1.621,1.621,0,0,0,.83.214,1.638,1.638,0,0,0,1.089-.379,2.249,2.249,0,0,0,.668-.981,3.6,3.6,0,0,0,.217-1.226M131.75,2.13V12.736a1.551,1.551,0,0,1-.162.719,1.179,1.179,0,0,1-.451.488,1.237,1.237,0,0,1-.647.173,1.181,1.181,0,0,1-1.251-1.03,2.291,2.291,0,0,1-.983.842,3.08,3.08,0,0,1-1.323.3,3.654,3.654,0,0,1-2.148-.664,4.391,4.391,0,0,1-1.464-1.75,5.194,5.194,0,0,1-.515-2.254,6.254,6.254,0,0,1,.46-2.388,4.246,4.246,0,0,1,1.383-1.825,3.541,3.541,0,0,1,2.2-.7,3.841,3.841,0,0,1,1.659.378,3.485,3.485,0,0,1,.732.479V2.13a1.433,1.433,0,0,1,.344-1A1.162,1.162,0,0,1,130.49.75a1.236,1.236,0,0,1,.651.173,1.193,1.193,0,0,1,.447.488,1.551,1.551,0,0,1,.162.719m3.386,6.556H139.1a2.272,2.272,0,0,0-.625-1.383,1.836,1.836,0,0,0-1.36-.526,1.806,1.806,0,0,0-1.334.534,2.312,2.312,0,0,0-.642,1.374m5.363,1.671h-5.3a1.889,1.889,0,0,0,.777,1.349,2.656,2.656,0,0,0,1.571.458,2.343,2.343,0,0,0,.963-.178q.4-.178.992-.5a2.154,2.154,0,0,1,.866-.327.9.9,0,0,1,.494.157,1.192,1.192,0,0,1,.384.4,1.012,1.012,0,0,1,.144.518,1.134,1.134,0,0,1-.359.772,3.4,3.4,0,0,1-.954.683,6.266,6.266,0,0,1-1.343.484,5.992,5.992,0,0,1-1.414.182,4.749,4.749,0,0,1-2.432-.623,4.267,4.267,0,0,1-1.655-1.722,5.191,5.191,0,0,1-.583-2.472,5.1,5.1,0,0,1,.333-1.815,5.17,5.17,0,0,1,.929-1.569,4.214,4.214,0,0,1,3.2-1.459,4.144,4.144,0,0,1,1.812.4,4.421,4.421,0,0,1,1.423,1.065,5.132,5.132,0,0,1,.912,1.471,4.242,4.242,0,0,1,.33,1.608.976.976,0,0,1-1.09,1.119" transform="translate(-82.941 -0.75)" fill="#393939"/>
        <g id="Shape-4" data-name="Shape" transform="translate(60.947 1.271)">
          <path id="Path_7076" data-name="Path 7076" d="M3.594,11.348V3.168H1.856a1,1,0,0,1-.811-.332,1.19,1.19,0,0,1-.28-.795A1.192,1.192,0,0,1,.9,1.491,1.063,1.063,0,0,1,1.856.916H7.724a1.054,1.054,0,0,1,.564.156,1.043,1.043,0,0,1,.39.419,1.184,1.184,0,0,1,.136.551,1.208,1.208,0,0,1-.272.795,1,1,0,0,1-.818.332H5.986v8.18a1.26,1.26,0,0,1-.331.934,1.17,1.17,0,0,1-.862.33,1.18,1.18,0,0,1-.87-.33,1.261,1.261,0,0,1-.331-.934m9.646.332-3.548-9a1.725,1.725,0,0,1-.11-.6,1.058,1.058,0,0,1,.376-.829A1.277,1.277,0,0,1,10.83.916a1.2,1.2,0,0,1,1.1.79l2.5,6.723,2.513-6.723a1.181,1.181,0,0,1,1.1-.79,1.274,1.274,0,0,1,.877.332,1.064,1.064,0,0,1,.37.829,1.582,1.582,0,0,1-.118.6l-3.54,9a1.92,1.92,0,0,1-.447.686,1.07,1.07,0,0,1-.755.245,1.064,1.064,0,0,1-.747-.237,1.951,1.951,0,0,1-.447-.695" transform="translate(-0.765 -0.916)" fill="#393939"/>
        </g>
      </g>
    </g>
  </g>
</svg>
