<svg xmlns="http://www.w3.org/2000/svg" width="80.531" height="25.068" viewBox="0 0 80.531 25.068">
  <g id="Group_6627" data-name="Group 6627" transform="translate(-1137.063 -268)">
    <text id="Cast" transform="translate(1194.594 288.068)" fill="#888c8e" font-size="20" font-family="Inter-Medium, Inter" font-weight="500"><tspan x="-22.124" y="0">Cast</tspan></text>
    <path id="Path_6797" data-name="Path 6797" d="M.1,20.32v4.044H4.146A4.057,4.057,0,0,0,.1,20.32Zm0-5.358v2.73a6.773,6.773,0,0,1,6.773,6.773H9.6a9.624,9.624,0,0,0-9.5-9.5Zm24.364-9.5H5.459V7.684A17.57,17.57,0,0,1,16.782,19.006h7.582V5.459h.1ZM.1,9.5v2.73A12.21,12.21,0,0,1,12.334,24.465h2.629A14.907,14.907,0,0,0,.1,9.5ZM27.194,0H2.73A2.718,2.718,0,0,0,0,2.73V6.774H2.73V2.73H27.094v18.9h-9.5v2.73h9.5a2.719,2.719,0,0,0,2.73-2.73V2.73A2.7,2.7,0,0,0,27.194,0Z" transform="translate(1137.062 268)" fill="#21b6ec"/>
  </g>
</svg>
