<svg xmlns="http://www.w3.org/2000/svg" width="104.293" height="19.803" viewBox="0 0 104.293 19.803">
  <g id="Layer_2" data-name="Layer 2" transform="translate(-0.015 0.01)">
    <g id="Layer_1" data-name="Layer 1" transform="translate(0.015 -0.01)">
      <path id="Path_7060" data-name="Path 7060" d="M17.691-.008A9.983,9.983,0,0,1,26.5,5.574H17.2a4.18,4.18,0,0,0-3.255,2.094,4.43,4.43,0,0,0-.375,3.663C12.824,10.054,9.6,4.384,9.6,4.384A9.686,9.686,0,0,1,17.691-.008Z" transform="translate(-7.951 0.01)" fill="#dd5044"/>
      <path id="Path_7061" data-name="Path 7061" d="M61.855,41.608a10.007,10.007,0,0,1-9.2,4.912L57.3,38.387a4.256,4.256,0,0,0-.172-3.891,4.355,4.355,0,0,0-2.956-2.159c1.473-.015,7.948,0,7.948,0A9.849,9.849,0,0,1,61.855,41.608Z" transform="translate(-43.603 -26.766)" fill="#fecd42"/>
      <path id="Path_7062" data-name="Path 7062" d="M1.283,35.984A10.2,10.2,0,0,1,1.669,25.49l4.645,8.134a4.182,4.182,0,0,0,3.422,1.8,4.328,4.328,0,0,0,3.331-1.5C12.347,35.212,9.1,40.866,9.1,40.866A9.674,9.674,0,0,1,1.283,35.984Z" transform="translate(-0.015 -21.103)" fill="#1ea261"/>
      <path id="Path_7063" data-name="Path 7063" d="M52.66,81.634l1.309-5.505a4.363,4.363,0,0,0,2.644-1.449C55.865,76,52.66,81.634,52.66,81.634Z" transform="translate(-43.603 -61.831)" fill="#157f49"/>
      <ellipse id="Ellipse_454" data-name="Ellipse 454" cx="4.358" cy="4.401" rx="4.358" ry="4.401" transform="translate(5.358 5.564)" fill="#fff"/>
      <ellipse id="Ellipse_455" data-name="Ellipse 455" cx="3.628" cy="3.664" rx="3.628" ry="3.664" transform="translate(6.088 6.3)" fill="#4989f4"/>
      <path id="Path_7064" data-name="Path 7064" d="M69.5,32.356,64.11,33.951a4.378,4.378,0,0,0-2.56-1.6C63.064,32.351,69.5,32.356,69.5,32.356Z" transform="translate(-50.964 -26.786)" fill="#dc9733"/>
      <path id="Path_7065" data-name="Path 7065" d="M13.469,32.281C12.712,30.958,9.6,25.53,9.6,25.53l3.991,3.986a3.986,3.986,0,0,0-.255,2.064Z" transform="translate(-7.951 -21.136)" fill="#b24235"/>
      <path id="Path_7066" data-name="Path 7066" d="M139.521,42.385a3.5,3.5,0,0,1-2.753-1.092,4.5,4.5,0,0,1-.969-3.107,4.613,4.613,0,0,1,.984-3.14A3.513,3.513,0,0,1,139.6,33.93a5.711,5.711,0,0,1,1.184.124,3.654,3.654,0,0,1,.918.3l-.38,1.051a4.566,4.566,0,0,0-1.746-.38q-2.491,0-2.491,3.169a3.766,3.766,0,0,0,.612,2.317,2.119,2.119,0,0,0,1.8.8,5.481,5.481,0,0,0,2.094-.447v1.1A4.473,4.473,0,0,1,139.521,42.385Z" transform="translate(-112.44 -28.091)" fill="#a0a0a0"/>
      <path id="Path_7067" data-name="Path 7067" d="M186.265,26.455h-1.24V21.177a2.113,2.113,0,0,0-.456-1.493,1.882,1.882,0,0,0-1.416-.49,2.343,2.343,0,0,0-1.892.7,3.512,3.512,0,0,0-.588,2.285v4.273H179.43V14.87h1.242v3.51a7.322,7.322,0,0,1-.058,1.043h.074a2.529,2.529,0,0,1,1.046-.931,3.384,3.384,0,0,1,1.535-.33,3.127,3.127,0,0,1,2.255.719,3.022,3.022,0,0,1,.74,2.259Z" transform="translate(-148.564 -12.31)" fill="#a0a0a0"/>
      <path id="Path_7068" data-name="Path 7068" d="M236.421,33.918A5.042,5.042,0,0,1,237.4,34l-.172,1.151a4.186,4.186,0,0,0-.893-.107,2.178,2.178,0,0,0-1.7.8,2.925,2.925,0,0,0-.7,2v4.377H232.69V34.068h1.032l.141,1.505h.059a3.523,3.523,0,0,1,1.1-1.228A2.483,2.483,0,0,1,236.421,33.918Z" transform="translate(-192.662 -28.081)" fill="#a0a0a0"/>
      <path id="Path_7069" data-name="Path 7069" d="M264.367,35.03a3.924,3.924,0,0,1,5.5.028,4.5,4.5,0,0,1,1.01,3.1,4.5,4.5,0,0,1-1.01,3.1,3.548,3.548,0,0,1-2.771,1.116,3.411,3.411,0,0,1-2.706-1.151,4.371,4.371,0,0,1-1.018-3.086A4.432,4.432,0,0,1,264.367,35.03Zm2.722-.064q-2.45,0-2.45,3.169a3.877,3.877,0,0,0,.624,2.383,2.488,2.488,0,0,0,3.687,0,3.845,3.845,0,0,0,.63-2.383,3.79,3.79,0,0,0-.63-2.371A2.217,2.217,0,0,0,267.088,34.966Z" transform="translate(-218.061 -28.083)" fill="#a0a0a0"/>
      <path id="Path_7070" data-name="Path 7070" d="M330.023,42.224H328.79V36.912q0-1.944-1.72-1.944a2.092,2.092,0,0,0-1.708.662,3.155,3.155,0,0,0-.551,2.035v4.559h-1.233V36.912a2.17,2.17,0,0,0-.421-1.464,1.644,1.644,0,0,0-1.292-.485,2.012,2.012,0,0,0-1.708.7,3.8,3.8,0,0,0-.533,2.279v4.284H318.38V34.066h1.01l.2,1.117h.059a2.469,2.469,0,0,1,.993-.931,3.009,3.009,0,0,1,1.423-.335,2.425,2.425,0,0,1,2.5,1.376h.065a2.618,2.618,0,0,1,1.063-1.013,3.281,3.281,0,0,1,1.571-.363,2.736,2.736,0,0,1,2.085.721,3.225,3.225,0,0,1,.678,2.267Z" transform="translate(-263.61 -28.079)" fill="#a0a0a0"/>
      <path id="Path_7071" data-name="Path 7071" d="M400.912,42.378a3.77,3.77,0,0,1-2.863-1.1A4.259,4.259,0,0,1,397,38.208a4.721,4.721,0,0,1,.969-3.128,3.212,3.212,0,0,1,2.57-1.158,3.14,3.14,0,0,1,2.479,1.01,3.858,3.858,0,0,1,.895,2.656v.784h-5.624a3.264,3.264,0,0,0,.728,2.18A2.554,2.554,0,0,0,401,41.3a6.333,6.333,0,0,0,2.562-.554v1.1a6.194,6.194,0,0,1-1.227.406A7.028,7.028,0,0,1,400.912,42.378Zm1.679-5.015a2.729,2.729,0,0,0-.516-1.787,1.831,1.831,0,0,0-1.493-.621,2.034,2.034,0,0,0-1.564.637,2.875,2.875,0,0,0-.688,1.77Z" transform="translate(-328.705 -28.084)" fill="#a0a0a0"/>
      <path id="Path_7072" data-name="Path 7072" d="M449.361,42.385a3.5,3.5,0,0,1-2.753-1.092,4.5,4.5,0,0,1-.969-3.107,4.613,4.613,0,0,1,.984-3.14,3.513,3.513,0,0,1,2.813-1.117,5.711,5.711,0,0,1,1.184.124,3.654,3.654,0,0,1,.918.3l-.38,1.051a4.566,4.566,0,0,0-1.746-.38q-2.491,0-2.491,3.169a3.766,3.766,0,0,0,.612,2.317,2.119,2.119,0,0,0,1.8.8,5.481,5.481,0,0,0,2.094-.447v1.1A4.473,4.473,0,0,1,449.361,42.385Z" transform="translate(-368.977 -28.091)" fill="#a0a0a0"/>
      <path id="Path_7073" data-name="Path 7073" d="M494.421,42.293H493.5l-.248-1.158H493.2a3.487,3.487,0,0,1-1.216,1.032,3.68,3.68,0,0,1-1.514.274,2.71,2.71,0,0,1-1.908-.63,2.314,2.314,0,0,1-.688-1.779q0-2.465,3.946-2.591l1.39-.041v-.5a2.07,2.07,0,0,0-.413-1.428,1.8,1.8,0,0,0-1.376-.451,5.357,5.357,0,0,0-2.255.621l-.38-.943a5.69,5.69,0,0,1,2.768-.7,3.1,3.1,0,0,1,2.173.654,2.718,2.718,0,0,1,.7,2.076Zm-5.254-2.236a1.281,1.281,0,0,0,.406,1.018,1.662,1.662,0,0,0,1.134.356,2.507,2.507,0,0,0,1.82-.633,2.357,2.357,0,0,0,.654-1.775v-.741l-1.234.05a4.563,4.563,0,0,0-2.126.463,1.376,1.376,0,0,0-.655,1.258Z" transform="translate(-403.942 -28.148)" fill="#a0a0a0"/>
      <path id="Path_7074" data-name="Path 7074" d="M542.327,40a2.044,2.044,0,0,1-.848,1.758,4.09,4.09,0,0,1-2.429.616,5.067,5.067,0,0,1-2.491-.516V40.713a5.629,5.629,0,0,0,2.565.645q2.011,0,2.011-1.249a1.033,1.033,0,0,0-.422-.824,6.113,6.113,0,0,0-1.572-.778,9.631,9.631,0,0,1-1.655-.757,1.94,1.94,0,0,1-.951-1.664,1.846,1.846,0,0,1,.81-1.593,3.746,3.746,0,0,1,2.193-.575,6.607,6.607,0,0,1,2.615.53l-.439,1.01a5.736,5.736,0,0,0-2.156-.5,2.8,2.8,0,0,0-1.39.268.845.845,0,0,0-.451.766.952.952,0,0,0,.162.551,1.572,1.572,0,0,0,.533.447,11.189,11.189,0,0,0,1.44.6,5.429,5.429,0,0,1,1.965,1.072A1.872,1.872,0,0,1,542.327,40Z" transform="translate(-444.234 -28.083)" fill="#a0a0a0"/>
      <path id="Path_7075" data-name="Path 7075" d="M580.568,31.407a1.68,1.68,0,0,0,.344,1.134,1.182,1.182,0,0,0,.943.4,4.246,4.246,0,0,0,1.137-.15v.943a2.355,2.355,0,0,1-.6.157,4.491,4.491,0,0,1-.7.065q-2.367,0-2.367-2.491V26.609H578.16v-.6l1.166-.516.516-1.746h.719v1.892h2.367v.96h-2.36Z" transform="translate(-478.699 -19.662)" fill="#a0a0a0"/>
    </g>
  </g>
</svg>
