<svg xmlns="http://www.w3.org/2000/svg" width="116.256" height="33.539" viewBox="0 0 116.256 33.539">
  <g id="Group_7195" data-name="Group 7195" transform="translate(-7.59 -451.4)">
    <path id="Path_7095" data-name="Path 7095" d="M7.7,487.221a7.731,7.731,0,0,1,6.546-7.49A7.8,7.8,0,0,1,21.232,482l5.35,5.35c.063.063.189.126.063.252l-5.539,5.539a7.728,7.728,0,0,1-4.532,2.2,7.9,7.9,0,0,1-7.867-4.028A8.051,8.051,0,0,1,7.7,487.221Zm3.965.252a3.922,3.922,0,0,0,3.9,3.9,3.977,3.977,0,0,0,3.965-3.9,3.934,3.934,0,0,0-7.867,0Z" transform="translate(-0.041 -10.456)" fill="#1d242c"/>
    <path id="Path_7096" data-name="Path 7096" d="M47.326,473.5a7.881,7.881,0,0,1-13.532,5.287c-1.762-1.762-3.588-3.525-5.35-5.35-.126-.126-.126-.189,0-.315,1.762-1.762,3.588-3.525,5.35-5.35a8.076,8.076,0,0,1,5.035-2.392,7.84,7.84,0,0,1,7.616,4.154A8.691,8.691,0,0,1,47.326,473.5Zm-7.867-4.091a3.882,3.882,0,0,0-3.9,3.9,4.019,4.019,0,0,0,3.9,3.965,3.976,3.976,0,0,0,3.965-3.9A4.031,4.031,0,0,0,39.459,469.406Z" transform="translate(-7.694 -5.166)" fill="#1d242c"/>
    <path id="Path_7097" data-name="Path 7097" d="M15.527,451.4a7.792,7.792,0,0,1,5.665,2.392l5.35,5.35c.063.063.189.126,0,.315-1.888,1.888-3.776,3.839-5.727,5.665a7.426,7.426,0,0,1-5.035,2.077,7.863,7.863,0,0,1-1.636-15.609C14.646,451.463,15.149,451.463,15.527,451.4Zm0,11.833a4.019,4.019,0,0,0,3.965-3.9,3.934,3.934,0,1,0-7.867,0A3.922,3.922,0,0,0,15.527,463.233Z" transform="translate(0)" fill="#1d242c"/>
    <g id="Group_7194" data-name="Group 7194" transform="translate(47.5 460.904)">
      <path id="Path_7098" data-name="Path 7098" d="M71,466.8h8.937v1.07H72.2v5.224h7.616v1.07H72.2v5.6h7.742v1.07H71Z" transform="translate(-71 -466.611)" fill="#1d242c"/>
      <path id="Path_7099" data-name="Path 7099" d="M91.5,468.751V480.9H90.3V466.8h1.2l8.812,12.021V466.8h1.2v14.1h-1.2Z" transform="translate(-78.153 -466.611)" fill="#1d242c"/>
      <path id="Path_7100" data-name="Path 7100" d="M114.1,466.8h5.287a4.093,4.093,0,1,1,0,8.182H115.3v5.853h-1.2Zm5.161,1.133H115.3v6.042h3.965a3.022,3.022,0,1,0,0-6.042Z" transform="translate(-86.973 -466.611)" fill="#1d242c"/>
      <path id="Path_7101" data-name="Path 7101" d="M133.563,466.8h1.2v12.966h6.8v1.07H133.5V466.8Z" transform="translate(-94.163 -466.611)" fill="#1d242c"/>
      <path id="Path_7102" data-name="Path 7102" d="M149.9,466.8h1.2v8.686c0,2.832,1.511,4.595,4.28,4.595s4.28-1.762,4.28-4.595V466.8h1.2v8.686c0,3.462-1.888,5.665-5.476,5.665s-5.476-2.2-5.476-5.665Z" transform="translate(-100.241 -466.611)" fill="#1d242c"/>
      <path id="Path_7103" data-name="Path 7103" d="M179.612,466.5a6.694,6.694,0,0,1,5.287,2.392l-.881.629a5.691,5.691,0,0,0-4.406-1.951,5.808,5.808,0,0,0-5.853,6.168,5.9,5.9,0,0,0,5.853,6.231,6.209,6.209,0,0,0,4.154-1.7v-3.336h-5.35v-1.07h6.546v4.909a7.191,7.191,0,0,1-5.35,2.329,7,7,0,0,1-7.112-7.3A6.925,6.925,0,0,1,179.612,466.5Z" transform="translate(-108.616 -466.5)" fill="#1d242c"/>
    </g>
  </g>
</svg>
