<svg xmlns="http://www.w3.org/2000/svg" width="105.501" height="31.155" viewBox="0 0 105.501 31.155">
  <g id="surface1" transform="translate(-216 -369.423)">
    <path id="Path_6826" data-name="Path 6826" d="M267.047,410.376c-4.968,3.666-12.173,5.616-18.376,5.616a33.256,33.256,0,0,1-22.446-8.563c-.465-.421-.05-.994.508-.669a45.17,45.17,0,0,0,22.46,5.96,44.7,44.7,0,0,0,17.132-3.505c.84-.357,1.543.554.721,1.161" transform="translate(-4.149 -15.414)" fill="#fc4c02" fill-rule="evenodd"/>
    <path id="Path_6827" data-name="Path 6827" d="M295.155,407.383c-.634-.815-4.2-.387-5.8-.195-.485.057-.561-.366-.124-.673,2.844-2,7.505-1.422,8.045-.751s-.142,5.346-2.807,7.576c-.41.343-.8.16-.618-.293.6-1.5,1.942-4.851,1.305-5.664" transform="translate(-30.19 -14.782)" fill="#fc4c02" fill-rule="evenodd"/>
    <path id="Path_6828" data-name="Path 6828" d="M363.218,381.983a3.7,3.7,0,0,1,2.9-1.019,6.206,6.206,0,0,1,1.946.279,1.012,1.012,0,0,0,.4.066c.2,0,.337-.133.337-.469v-.7c0-.43-.1-.524-.5-.737a8.807,8.807,0,0,0-2.507-.4,5.614,5.614,0,0,0-4.41,1.678,6.6,6.6,0,0,0-1.523,4.682,6.522,6.522,0,0,0,1.488,4.657,5.573,5.573,0,0,0,4.3,1.626,7.069,7.069,0,0,0,2.779-.506.609.609,0,0,0,.4-.268c.069-.066.069-.268.069-.469v-.673c0-.337-.135-.469-.337-.469a.73.73,0,0,0-.334.066,8.74,8.74,0,0,1-2.2.337,3.529,3.529,0,0,1-2.786-1.01c-1.239-1.4-1.168-5.346-.023-6.672" transform="translate(-59.541 -3.966)" fill-rule="evenodd"/>
    <path id="Path_6829" data-name="Path 6829" d="M261.048,380.65c2.8,0,2.773,2.448,2.7,3.5h-5.914C257.946,382.316,258.832,380.65,261.048,380.65Zm4.481,5.129c.357,0,.4-1.175.419-1.669.135-3.56-1.745-5.289-4.8-5.289a5.382,5.382,0,0,0-4.215,1.786,8.418,8.418,0,0,0-.089,9.234,5.6,5.6,0,0,0,4.659,1.825,9.809,9.809,0,0,0,3.755-.742c.405-.149.41-.332.41-.714v-.662c0-.357-.156-.5-.543-.378a11.245,11.245,0,0,1-3.3.6,4.029,4.029,0,0,1-3.114-1.138,4.768,4.768,0,0,1-.891-2.848h7.713" transform="translate(-16.352 -3.89)" fill-rule="evenodd"/>
    <path id="Path_6830" data-name="Path 6830" d="M220.62,375.3v-2.356c0-1.884,1.889-1.644,3.091-1.49.536.1.737.014.737-.405v-.778c0-.389-.156-.527-.685-.669-2.958-.547-5.531.041-5.531,3.8v1.962l-1.731.2c-.366.032-.5.147-.5.515v.62c0,.337.144.472.469.472h1.763v9.76c0,.337.135.472.472.472h1.445c.337,0,.472-.135.472-.472v-9.76h3.2c.334,0,.469-.135.469-.472v-.927c0-.337-.153-.472-.469-.472h-3.2" fill-rule="evenodd"/>
    <path id="Path_6831" data-name="Path 6831" d="M235.323,375.916h-1.417c-.337,0-.472.133-.472.469v11.145c0,.336.135.472.472.472h1.417c.337,0,.472-.135.472-.472V376.385A.424.424,0,0,0,235.323,375.916Zm-.714-5.037a1.4,1.4,0,0,0-1.468,1.452,1.492,1.492,0,1,0,1.468-1.452" transform="translate(-7.094 -0.603)" fill-rule="evenodd"/>
    <path id="Path_6832" data-name="Path 6832" d="M354.467,379.473H353.05c-.337,0-.472.133-.472.469v11.145c0,.337.135.472.472.472h1.417c.337,0,.472-.135.472-.472V379.942a.424.424,0,0,0-.472-.469" transform="translate(-56.528 -4.16)" fill-rule="evenodd"/>
    <path id="Path_6833" data-name="Path 6833" d="M301.641,391.559H300.13a.632.632,0,0,1-.659-.472l-4.384-11.058c-.135-.337-.048-.556.307-.556h1.619c.325,0,.456.2.561.469l3.318,9.433,3.295-9.433c.149-.337.3-.469.632-.469h1.449c.4,0,.5.208.348.545l-4.389,11.07c-.119.27-.259.472-.584.472" transform="translate(-32.708 -4.16)" fill="#fc4c02" fill-rule="evenodd"/>
    <path id="Path_6834" data-name="Path 6834" d="M337.927,386.053c0,2.814,1.939,3.279,3.343,3.279a9.159,9.159,0,0,0,1.971-.206c.742-.215.733-.341.733-.678v-.859c0-.336-.165-.442-.481-.369a11.326,11.326,0,0,1-1.5.181c-1.557-.108-1.7-.607-1.7-2.125v-6.356h3.13c.337,0,.472-.135.472-.472v-.941c0-.339-.156-.472-.472-.472h-3.13v-2.905a.426.426,0,0,0-.472-.472h-.95c-.369,0-.552.135-.584.5l-.3,2.933-1.768.218c-.369.032-.5.215-.5.586v.549a.425.425,0,0,0,.469.472h1.747v7.132" transform="translate(-49.547 -1.754)" fill-rule="evenodd"/>
    <path id="Path_6835" data-name="Path 6835" d="M281.105,386.053c0,2.814,1.939,3.279,3.343,3.279a9.153,9.153,0,0,0,1.969-.206c.742-.215.733-.341.733-.678v-.859c0-.336-.163-.442-.479-.369a11.36,11.36,0,0,1-1.506.181c-1.557-.108-1.7-.607-1.7-2.125v-6.356H286.6c.334,0,.469-.135.469-.472v-.941c0-.339-.153-.472-.469-.472h-3.132v-2.905a.425.425,0,0,0-.472-.472h-.948c-.369,0-.552.135-.586.5l-.3,2.933-1.768.218c-.369.032-.5.215-.5.586v.549a.425.425,0,0,0,.469.472h1.749v7.132" transform="translate(-26.028 -1.754)" fill="#fc4c02" fill-rule="evenodd"/>
    <path id="Path_6836" data-name="Path 6836" d="M380.029,369.945h-1.417c-.337,0-.472.135-.472.469v16.729c0,.337.135.472.472.472h1.417c.337,0,.472-.135.472-.472v-5.229l5.03,5.229c.327.327.428.472.767.472h1.974c.35,0,.46-.33.169-.627l-5.621-5.71,5.163-5.085c.334-.318.2-.7-.115-.7h-1.841c-.337,0-.444.144-.783.469l-4.744,4.778V370.415a.425.425,0,0,0-.472-.469" transform="translate(-67.108 -0.216)" fill-rule="evenodd"/>
    <path id="Path_6837" data-name="Path 6837" d="M353.517,370.879a1.4,1.4,0,0,0-1.47,1.452,1.492,1.492,0,0,0,2.983,0,1.352,1.352,0,0,0-1.513-1.452" transform="translate(-56.308 -0.603)" fill-rule="evenodd"/>
    <path id="Path_6838" data-name="Path 6838" d="M325.877,389.326a3.17,3.17,0,0,1-1.765.442,10.56,10.56,0,0,1-3.244-.506,3.263,3.263,0,0,0-.6-.135c-.2,0-.314.144-.314.412v.783c0,.357.133.533.538.664a8.96,8.96,0,0,0,3.624.68,5.269,5.269,0,0,0,3.359-1,3.218,3.218,0,0,0,1.275-2.715,3,3,0,0,0-.586-1.928,4.716,4.716,0,0,0-2.033-1.332l-1.825-.728a4.655,4.655,0,0,1-1.587-.806,1.242,1.242,0,0,1-.348-.98c0-1.007.822-1.5,2.283-1.5a9.18,9.18,0,0,1,2.5.385c.27.066.472.133.538.133a.37.37,0,0,0,.382-.412v-.762a.671.671,0,0,0-.538-.685,9.18,9.18,0,0,0-3.04-.545,5.035,5.035,0,0,0-3.146.93,3.136,3.136,0,0,0-1.273,2.53,3.489,3.489,0,0,0,2.546,3.35l2.07.774a4.1,4.1,0,0,1,1.342.675,1.338,1.338,0,0,1,.465.966,1.54,1.54,0,0,1-.623,1.3" transform="translate(-43.023 -3.88)" fill-rule="evenodd"/>
    <path id="Path_6839" data-name="Path 6839" d="M245.244,381.121l-.174-1.36c-.076-.334-.268-.38-.545-.38l-1.058,0c-.337,0-.472.133-.472.469V391c0,.337.135.472.472.472h1.41c.334,0,.469-.135.469-.472v-8.444a5.085,5.085,0,0,1,3.524-1.136c.442.009,1.067.176,1.067-.3v-1.383c0-.309-.185-.481-.778-.481a4.784,4.784,0,0,0-3.915,1.864" transform="translate(-11.173 -4.071)" fill-rule="evenodd"/>
  </g>
</svg>
