<svg xmlns="http://www.w3.org/2000/svg" width="90.37" height="41.647" viewBox="0 0 90.37 41.647">
  <g id="Group_7201" data-name="Group 7201" transform="translate(-38.7 -384.1)">
    <path id="Path_7104" data-name="Path 7104" d="M60.2,405.034c-.074-.074,3.464-4.865,11.057-8.035,4.57-1.843,6.929-2.211,10.467,0a23.653,23.653,0,0,1,5.528,5.528s.369-.516.885-1.106a43.9,43.9,0,0,1,15.479-12.236A51.661,51.661,0,0,1,126.1,384.1c2.285,0,1.106,2.138,1.106,2.138l-6.265,11.646s-.516,1.253-2.506,1.106c-7.519-.59-18.5-.737-30.3,8.108a2.24,2.24,0,0,1-3.17-.442,46.143,46.143,0,0,0-4.128-5.455,12,12,0,0,0-3.907-3.1,3.728,3.728,0,0,0-2.211-.074C66.465,399.653,60.421,405.329,60.2,405.034Z" transform="translate(-5.652 0)" fill="#da1d52"/>
    <path id="Path_7105" data-name="Path 7105" d="M134.9,430.3" transform="translate(-25.289 -12.145)" fill="#2b388f"/>
    <path id="Path_7106" data-name="Path 7106" d="M38.7,427.277v-4.349c0-2.432,2.359-4.128,5.455-4.128s5.455,1.622,5.455,4.128v5.455H47.251v-5.455c0-1.474-1.4-2.432-3.1-2.432s-3.1,1.032-3.1,2.432v4.349Z" transform="translate(0 -9.122)" fill="#231f20"/>
    <path id="Path_7107" data-name="Path 7107" d="M62.86,419.7c3.538,0,6.56,1.7,6.56,4.054s-3.1,4.054-6.56,4.054-6.56-1.7-6.56-4.054S59.322,419.7,62.86,419.7Zm0,6.781c2.432,0,4.128-1.106,4.128-2.727s-1.769-2.727-4.128-2.727c-2.432,0-4.128,1.106-4.128,2.727C58.659,425.376,60.428,426.481,62.86,426.481Z" transform="translate(-4.627 -9.359)" fill="#231f20"/>
    <path id="Path_7108" data-name="Path 7108" d="M87.584,419.9l-4.423,7.15a1.81,1.81,0,0,1-1.769.811c-.811,0-1.4-.074-1.769-.811L75.2,419.9h2.506l3.686,6.044,3.686-6.044Z" transform="translate(-9.595 -9.411)" fill="#231f20"/>
    <path id="Path_7109" data-name="Path 7109" d="M95.1,427.713V419.9h2.359v7.813Z" transform="translate(-14.827 -9.411)" fill="#231f20"/>
    <path id="Path_7110" data-name="Path 7110" d="M102.674,426.187h6.487c1.106,0,1.474-.295,1.474-.737,0-1.4-8.035-.885-8.035-3.612,0-1.4,1.548-2.138,4.349-2.138H112.4v1.4h-5.9c-1.106,0-1.474.221-1.474.663,0,1.327,8.035.811,8.035,3.612,0,1.474-1.7,2.211-3.98,2.211H102.6v-1.4Z" transform="translate(-16.798 -9.359)" fill="#f58220"/>
    <path id="Path_7111" data-name="Path 7111" d="M120,427.513V419.7h2.359v7.813Z" transform="translate(-21.372 -9.359)" fill="#f58220"/>
    <path id="Path_7112" data-name="Path 7112" d="M146.5,428.183v-5.455c0-2.432,2.359-4.128,5.455-4.128s5.455,1.622,5.455,4.128v4.57h-2.359v-4.57c0-1.474-1.4-2.432-3.1-2.432s-3.1,1.032-3.1,2.432v5.455Z" transform="translate(-28.339 -9.069)" fill="#f58220"/>
    <g id="Group_7196" data-name="Group 7196" transform="translate(103.05 410.194)">
      <path id="Path_7113" data-name="Path 7113" d="M132.56,419.5c-3.98,0-6.56,1.843-6.56,4.128,0,2.138,2.506,3.759,5.823,3.98v-1.4c-2.064-.147-3.538-1.106-3.538-2.506,0-1.548,1.327-2.875,4.128-2.875,2.138,0,4.054,1.106,4.054,2.8v3.612c0,1.917-2.359,2.506-4.423,2.506a28.8,28.8,0,0,1-3.538-.369l-.59,1.327a19.326,19.326,0,0,0,4.2.442c3.759,0,6.634-1.4,6.634-4.349v-3.464C138.826,421.417,136.393,419.5,132.56,419.5Z" transform="translate(-126 -419.5)" fill="#f58220"/>
    </g>
    <g id="Group_7199" data-name="Group 7199" transform="translate(81.232 399.506)">
      <g id="Group_7197" data-name="Group 7197" transform="translate(0 2.654)" opacity="0.4">
        <path id="Path_7114" data-name="Path 7114" d="M96.695,408.969c-.074-.074-.147-.221-.295-.369h0A1.637,1.637,0,0,0,96.695,408.969Z" transform="translate(-96.4 -408.6)" fill="#231f20"/>
      </g>
      <g id="Group_7198" data-name="Group 7198" transform="translate(0.221)">
        <path id="Path_7115" data-name="Path 7115" d="M100.68,407.211A2.412,2.412,0,0,1,99.28,405c-.663.811-1.253,1.474-1.7,1.917-.516.59-.811,1.106-.885,1.106a16.073,16.073,0,0,0,1.843,2.064,2.841,2.841,0,0,0,1.99.442,51.3,51.3,0,0,1,5.16-2.8A9.38,9.38,0,0,1,100.68,407.211Z" transform="translate(-96.7 -405)" fill="#900433"/>
      </g>
    </g>
    <g id="Group_7200" data-name="Group 7200" transform="translate(42.902 423.757)">
      <path id="Path_7116" data-name="Path 7116" d="M45.874,439.011a.791.791,0,0,1-.811.885H44.4v-1.7h.663A.736.736,0,0,1,45.874,439.011Zm-1.106.59h.369a.522.522,0,0,0,.516-.59.466.466,0,0,0-.516-.516h-.369Z" transform="translate(-44.4 -437.979)" fill="#918f90"/>
      <path id="Path_7117" data-name="Path 7117" d="M49.4,439.9v-1.7h.295v1.7Z" transform="translate(-45.714 -437.979)" fill="#918f90"/>
      <path id="Path_7118" data-name="Path 7118" d="M54.153,438.542c-.074-.147-.295-.147-.442-.147a.6.6,0,0,0-.59.663.54.54,0,0,0,.59.59.406.406,0,0,0,.369-.147v-.295h-.369v-.295h.737v.737a.719.719,0,0,1-.663.295.85.85,0,0,1-.885-.885.871.871,0,0,1,.885-.958.67.67,0,0,1,.59.295Z" transform="translate(-46.635 -437.953)" fill="#918f90"/>
      <path id="Path_7119" data-name="Path 7119" d="M58,439.9v-1.7h.295v1.7Z" transform="translate(-47.975 -437.979)" fill="#918f90"/>
      <path id="Path_7120" data-name="Path 7120" d="M62.016,438.495H61.5V438.2h1.327v.295h-.516v1.4h-.295Z" transform="translate(-48.895 -437.979)" fill="#918f90"/>
      <path id="Path_7121" data-name="Path 7121" d="M67.327,439.6h-.885l-.147.295H66l.737-1.7h.369l.737,1.7h-.369Zm-.442-1.032-.295.737h.59Z" transform="translate(-50.078 -437.979)" fill="#918f90"/>
      <path id="Path_7122" data-name="Path 7122" d="M71.695,438.2v1.4h.885v.295H71.4v-1.7Z" transform="translate(-51.498 -437.979)" fill="#918f90"/>
      <path id="Path_7123" data-name="Path 7123" d="M80.306,438.49a.627.627,0,0,0-.369-.221c-.221,0-.369.074-.369.221s.147.221.369.221c.369.074.663.147.663.516s-.295.516-.663.516a.654.654,0,0,1-.737-.442l.221-.147a.458.458,0,0,0,.442.295c.221,0,.369-.074.369-.295,0-.147-.147-.221-.369-.221-.369-.074-.663-.147-.663-.516s.369-.516.663-.516a.706.706,0,0,1,.663.369Z" transform="translate(-53.548 -437.9)" fill="#918f90"/>
      <path id="Path_7124" data-name="Path 7124" d="M84.1,439.9v-1.7h.295v1.7Z" transform="translate(-54.836 -437.979)" fill="#918f90"/>
      <path id="Path_7125" data-name="Path 7125" d="M88.827,438.542c-.074-.147-.295-.147-.442-.147a.6.6,0,0,0-.59.663.54.54,0,0,0,.59.59.406.406,0,0,0,.369-.147v-.295h-.442v-.295h.737v.737a.719.719,0,0,1-.663.295.85.85,0,0,1-.885-.885.871.871,0,0,1,.885-.958.67.67,0,0,1,.59.295Z" transform="translate(-55.73 -437.953)" fill="#918f90"/>
      <path id="Path_7126" data-name="Path 7126" d="M93.706,438.2H94v1.7h-.221l-.885-1.179V439.9H92.6v-1.7h.295l.811,1.106Z" transform="translate(-57.071 -437.979)" fill="#918f90"/>
      <path id="Path_7127" data-name="Path 7127" d="M98.7,439.6h-.885l-.147.295H97.3l.737-1.7h.369l.737,1.7h-.369Zm-.442-1.032-.295.737h.59Z" transform="translate(-58.307 -437.979)" fill="#918f90"/>
      <path id="Path_7128" data-name="Path 7128" d="M103.827,438.542c-.074-.147-.295-.147-.442-.147a.6.6,0,0,0-.59.663.54.54,0,0,0,.59.59.406.406,0,0,0,.369-.147v-.295h-.442v-.295h.737v.737a.719.719,0,0,1-.663.295.85.85,0,0,1-.885-.885.871.871,0,0,1,.885-.958.67.67,0,0,1,.59.295Z" transform="translate(-59.674 -437.953)" fill="#918f90"/>
      <path id="Path_7129" data-name="Path 7129" d="M108.853,439.9H107.6v-1.7h1.253v.295h-.958v.369h.885v.295h-.885v.369h.885v.369Z" transform="translate(-61.014 -437.979)" fill="#918f90"/>
      <path id="Path_7130" data-name="Path 7130" d="M116.606,438.49a.627.627,0,0,0-.369-.221c-.221,0-.369.074-.369.221s.147.221.369.221c.369.074.663.147.663.516s-.295.516-.663.516a.654.654,0,0,1-.737-.442l.221-.147a.458.458,0,0,0,.442.295c.221,0,.369-.074.369-.295,0-.147-.147-.221-.369-.221-.369-.074-.663-.147-.663-.516s.369-.516.663-.516a.706.706,0,0,1,.663.369Z" transform="translate(-63.091 -437.9)" fill="#918f90"/>
      <path id="Path_7131" data-name="Path 7131" d="M122.022,439.082a.834.834,0,0,1-.811.885.791.791,0,0,1-.811-.885.834.834,0,0,1,.811-.885C121.727,438.123,122.022,438.566,122.022,439.082Zm-1.327,0a.521.521,0,1,0,.516-.59A.463.463,0,0,0,120.695,439.082Z" transform="translate(-64.379 -437.976)" fill="#918f90"/>
      <path id="Path_7132" data-name="Path 7132" d="M125.6,439.9v-1.7h1.179v.295h-.885v.442h.811v.295h-.811v.663Z" transform="translate(-65.746 -437.979)" fill="#918f90"/>
      <path id="Path_7133" data-name="Path 7133" d="M130.716,438.495H130.2V438.2h1.327v.295h-.516v1.4h-.295v-1.4Z" transform="translate(-66.955 -437.979)" fill="#918f90"/>
      <path id="Path_7134" data-name="Path 7134" d="M136.816,439.9h-.295l-.221-.516-.147-.516-.147.516-.221.516h-.295l-.59-1.7h.369l.369,1.253.369-1.253h.221l.442,1.253.369-1.253h.369Z" transform="translate(-68.191 -437.979)" fill="#918f90"/>
      <path id="Path_7135" data-name="Path 7135" d="M142.327,439.6h-.885l-.147.295H141l.737-1.7h.369l.737,1.7h-.369Zm-.442-1.032-.295.737h.59Z" transform="translate(-69.795 -437.979)" fill="#918f90"/>
      <path id="Path_7136" data-name="Path 7136" d="M147.8,439.9h-.369l-.442-.59h-.295v.59H146.4v-1.7h.811a.581.581,0,0,1,.59.59.474.474,0,0,1-.442.516l.442.59Zm-1.106-1.4v.59h.442a.295.295,0,1,0,0-.59Z" transform="translate(-71.214 -437.979)" fill="#918f90"/>
      <path id="Path_7137" data-name="Path 7137" d="M152.353,439.9H151.1v-1.7h1.253v.295h-.885v.369h.885v.295h-.885v.369h.885Z" transform="translate(-72.45 -437.979)" fill="#918f90"/>
    </g>
  </g>
</svg>
