<svg xmlns="http://www.w3.org/2000/svg" width="424.876" height="133.248" viewBox="0 0 424.876 133.248">
  <g id="Group_2586" data-name="Group 2586" transform="translate(0 0)">
    <path id="Path_9029" data-name="Path 9029" d="M952.916-388.113c-1.979-2.587-4.19-4.779-5.571-7.407-5.876-11.182-.642-24.568,11.5-29.627,7.466-3.111,14.967-3.277,22.421.266a4.286,4.286,0,0,0,2.642-.026c3.574-.912,7.113-1.96,10.681-2.9,1.62-.429,2.57.306,2.732,1.953.209,2.136.352,4.277.522,6.416.093,1.166-.495,1.522-1.6,1.558-2.062.067-4.119.272-6.405.436a6.311,6.311,0,0,0,.494,1.417c7.828,10.847,2.538,28.368-14.143,31.852-4.249.887-8.826.335-13.246.2-1.781-.052-3.211.119-3.659,1.981-.476,1.979,1.154,2.689,2.568,2.935,3.134.544,6.334.685,9.48,1.173,5.108.793,10.341,1.238,15.259,2.706,12.953,3.868,14.055,17.43,8.657,25.567-4.362,6.575-10.95,9.658-18.417,10.913a42.938,42.938,0,0,1-22.381-1.69,25.621,25.621,0,0,1-8.693-5.157c-6.9-6.633-5.384-16.807,2.88-21.67.633-.372,1.274-.731,2.239-1.284-3.568-2.7-5.73-6.1-5.249-10.466C946.108-383.422,949.312-386.045,952.916-388.113Zm15.1,39.335c6.165-.476,10.738-1,14.011-4.887,2.6-3.084,1.915-6.686-1.642-8.54a11.365,11.365,0,0,0-3.531-1.261c-4.905-.7-9.867-1.067-14.733-1.96a3.862,3.862,0,0,0-4.449,1.835c-.378.55-.814,1.061-1.17,1.624-2.451,3.882-1.533,8.47,2.611,10.411C962.326-350.054,965.937-349.4,968.019-348.778ZM961.29-409.7a13.212,13.212,0,0,0,1.126,11.137c.1.163.193.328.292.5,2.979,5.016,9.122,5.5,12.961,1.271,3.985-4.391,3.86-13.11-.249-17.38a7.4,7.4,0,0,0-10.221-.754A11.2,11.2,0,0,0,961.29-409.7Z" transform="translate(-735.426 454.588)" fill="#1178b5"/>
    <path id="Path_9030" data-name="Path 9030" d="M1258.4-362.777c-.08,1.454-.168,2.324-.169,3.194-.011,7.058-.031,14.117.019,21.175a14.486,14.486,0,0,0,.532,3.946,3.8,3.8,0,0,0,4.984,2.767c2.409-.663,4.752-1.563,7.6-2.52,1.036,2.177,2.22,4.527,3.249,6.944a1.951,1.951,0,0,1-.405,1.739c-5.983,5.543-16.864,8-24.094,3.224a13.67,13.67,0,0,1-6.286-11.88c-.12-8.691-.083-17.386.009-26.078.019-1.794-.622-2.4-2.288-2.348-1.409.046-2.823-.012-4.234-.016-1.157,0-1.61-.572-1.413-1.7.393-2.261.8-4.52,1.156-6.787.247-1.561.966-2.433,2.685-2.157.507.081,1.044-.041,1.557.021,1.938.234,2.694-.548,2.524-2.526-.354-4.119-.581-8.249-.877-12.628a37.918,37.918,0,0,1,12.81-2.87c.367-.031,1.117.924,1.185,1.482.517,4.25,1.028,8.509,1.3,12.781.2,3.2.038,3.254,3.247,3.222,5.94-.06,11.882-.131,17.82-.284a9.6,9.6,0,0,1,9.263,6.366c3.2,9.7,6.256,19.444,9.38,29.168a3.306,3.306,0,0,0,.5.672,3.87,3.87,0,0,0,.616-.837q5.819-16.786,11.59-33.589c.573-1.677,1.341-2.5,3.241-1.959,3.085.871,6.213,1.593,9.566,2.44-2.545,6.412-4.837,12.183-7.126,17.956-4.069,10.262-8.185,20.507-12.159,30.806a3.605,3.605,0,0,1-3.569,2.683c-1.7.083-3.4.256-5.089.5-1.749.255-2.636-.368-3.314-2.074-4.789-12.052-9.689-24.061-14.579-36.073a11.391,11.391,0,0,0-1.663-3.117,4.162,4.162,0,0,0-2.528-1.569C1268.494-362.854,1263.541-362.777,1258.4-362.777Z" transform="translate(-898.59 434.283)" fill="#1178b5"/>
    <path id="Path_9031" data-name="Path 9031" d="M601.142-422.817c6.577-4.216,15.865-6.686,21.593,1.233.34-.246.7-.468,1.018-.744,6.038-5.266,12.922-5.608,20.031-3,7.018,2.571,11.311,7.938,12,15.274.728,7.809.427,15.713.62,23.575a7.766,7.766,0,0,0,.556,3.452c.422.76,1.8,1.649,2.484,1.466a2.376,2.376,0,0,1,2.843,1.063c4.465,5.915,4.157,6.373-1.634,9.794-7.8,4.608-17.032,1.1-19.262-7.036a16.27,16.27,0,0,1-.378-4.179c-.032-6.762.074-13.526-.046-20.285a26.725,26.725,0,0,0-.953-7.46c-2-6.345-9.141-7.06-13.891-2.651-.733.681-.768,2.338-.773,3.545-.054,11.815-.092,23.631.019,35.445.021,2.227-.578,3.376-2.858,3.421-3.76.075-7.52.186-11.28.231-1.61.019-1.378-1.231-1.379-2.249q-.011-10.7,0-21.4c0-5.8.021-11.592-.011-17.388-.016-3-.684-3.631-3.668-4.061a2.345,2.345,0,0,1-1.51-1.055C603.426-418.094,602.328-420.426,601.142-422.817Z" transform="translate(-546.911 454.028)" fill="#1178b5"/>
    <path id="Path_9032" data-name="Path 9032" d="M1082.132-422.775c7.531-4.53,15.951-6.291,21.2.685,3.479-1.487,6.7-3.56,10.188-4.221,9.893-1.876,21.3,3.311,23.271,16.182.722,4.728.462,9.611.57,14.426.077,3.415-.024,6.834.037,10.25.061,3.329.727,3.9,3.965,3.83a2.21,2.21,0,0,1,1.327.6c4.821,4.242,4.485,7.465-1.067,10.5-7.924,4.332-17.04.954-19.261-7.192a14.6,14.6,0,0,1-.356-3.737c-.032-6.834.062-13.669-.053-20.5a34.479,34.479,0,0,0-.894-7.475,6.918,6.918,0,0,0-5.837-5.439,9.144,9.144,0,0,0-8.146,2.651c-.611.581-.693,1.918-.695,2.908-.033,12.33-.042,24.661.055,36.991.011,1.443-.43,2.2-1.721,2.266q-6.29.336-12.592.467c-1.6.031-1.29-1.3-1.29-2.3q0-18.607,0-37.215a16.8,16.8,0,0,0-.13-2.888,2.929,2.929,0,0,0-3.156-2.777,2.816,2.816,0,0,1-2.044-1.217C1084.273-418.154,1083.264-420.448,1082.132-422.775Z" transform="translate(-813.412 453.939)" fill="#1178b5"/>
    <path id="Path_9033" data-name="Path 9033" d="M533.864-399.332c.3,11.04-2.484,20.308-11.94,26.344-14.1,9-35.35,3.823-40.779-13.7-4-12.9-.727-27.807,11.489-35.623A26.565,26.565,0,0,1,533.2-404.428C533.52-402.609,533.681-400.762,533.864-399.332Zm-38.123,2.022a24.619,24.619,0,0,0,2.378,11.635c1.777,3.564,4.449,6.077,8.576,6.11s7.01-2.344,8.623-5.988a28.58,28.58,0,0,0-.254-24.506,8.565,8.565,0,0,0-8.2-5.184,9.024,9.024,0,0,0-8.288,5.07A25.458,25.458,0,0,0,495.741-397.311Z" transform="translate(-479.529 453.829)" fill="#1178b5"/>
    <path id="Path_9034" data-name="Path 9034" d="M778.913-426.745A20.741,20.741,0,0,1,795.3-418.42c1.141,1.525,1.092,2.63-.49,3.618-1.442.9-2.9,1.785-4.4,2.577-1.993,1.05-3.68,1.075-5.539-.762a9.585,9.585,0,0,0-8.69-2.979c-2.577.49-4.131,2.162-4.283,4.2-.156,2.089,1.336,4.051,3.741,4.976,4.012,1.543,8.13,2.868,12,4.711,6.885,3.278,10.46,8.817,10.075,16.583-.256,5.182-2.944,9.045-6.931,12.15-8.72,6.789-25.373,6.237-32.9-2.964-4.26-5.207-4.152-6.394,1.814-9.056.271-.121.539-.248.814-.361,3.977-1.625,3.977-1.624,6.484,1.662,2.7,3.542,6.862,5.211,10.494,4.307,2.386-.595,4.041-1.915,4.467-4.384.468-2.707-.212-5.127-2.749-6.5a52.02,52.02,0,0,0-6.317-2.7c-4.163-1.586-8.374-3.013-11.627-6.316-7.517-7.631-5.769-19.366,3.689-24.434C768.152-425.815,772.321-426.749,778.913-426.745Z" transform="translate(-632.117 453.932)" fill="#1178b5"/>
    <path id="Path_9035" data-name="Path 9035" d="M885.385-400.888c0,4.606-.019,9.212.012,13.818a18.942,18.942,0,0,0,.293,3.543c.27,1.358,1.146,2.557,2.616,2.031,1.748-.626,2.54.346,3.31,1.4,3.906,5.362,3.877,5.708-1.436,9.017-7.586,4.725-17.259,1.413-19.495-6.52a19.972,19.972,0,0,1-.553-5.258c-.048-9.212.03-18.424-.035-27.635-.023-3.369-.43-3.654-3.825-4.294a1.9,1.9,0,0,1-1.174-.859,67.317,67.317,0,0,1-2.985-6.18,2.129,2.129,0,0,1,.707-1.944c4.385-2.4,9.029-3.842,14.073-2.672a11.245,11.245,0,0,1,8.594,11.066c-.027,2.451-.081,4.9-.1,7.352C885.372-405.643,885.385-403.265,885.385-400.888Z" transform="translate(-691.479 453.991)" fill="#1178b5"/>
    <path id="Path_9036" data-name="Path 9036" d="M1159.936-210.848a8.749,8.749,0,0,1-8.741-8.562,9.2,9.2,0,0,1,8.842-9.1,9.083,9.083,0,0,1,9.06,9.047A8.881,8.881,0,0,1,1159.936-210.848Z" transform="translate(-851.677 344.096)" fill="#1178b5"/>
    <path id="Path_9037" data-name="Path 9037" d="M885.459-470.995c-4.832-.035-8.532-3.543-8.486-8.048a8.345,8.345,0,0,1,8.66-8.67A8.465,8.465,0,0,1,894.3-479.2,8.256,8.256,0,0,1,885.459-470.995Z" transform="translate(-699.74 487.712)" fill="#1178b5"/>
  </g>
</svg>
