<svg xmlns="http://www.w3.org/2000/svg" width="128.448" height="25.199" viewBox="0 0 128.448 25.199">
  <g id="Layer_2" data-name="Layer 2" transform="translate(0 0.003)">
    <g id="Layer_1" data-name="Layer 1" transform="translate(0 -0.003)">
      <path id="Path_1" data-name="Path 1" d="M26.045,19.765v-9.5H11.76V19.76h5.807c0,1.192.087,2.315-.024,3.418a2.195,2.195,0,0,1-2.222,1.892c-2.568.011-5.137.039-7.7-.022A8.058,8.058,0,0,1,0,17.19a7.816,7.816,0,0,1,5.078-7.68A1.074,1.074,0,0,0,5.74,8.465,9.426,9.426,0,0,1,12.633.358,9.266,9.266,0,0,1,22.847,4.045a1.017,1.017,0,0,0,1.272.488,6.973,6.973,0,0,1,6.6,1.82A5.975,5.975,0,0,1,32.393,10a1.044,1.044,0,0,0,.72.946,7.244,7.244,0,0,1,4.673,7.526,6.887,6.887,0,0,1-5.551,6.193,18.25,18.25,0,0,1-3.751.376c-1.954.043-3.912-.018-5.866-.057a2.314,2.314,0,0,1-2.437-2.527V19.764ZM21.511,21.12v1.167c0,1.144.358,1.514,1.482,1.516,1.977,0,3.956.049,5.932-.017a15.839,15.839,0,0,0,3.377-.425,5.689,5.689,0,0,0,4.274-5.21c.124-2.755-1.6-5.336-3.772-5.984a2.25,2.25,0,0,1-1.633-2,5.659,5.659,0,0,0-7.223-4.332c-1.151.4-1.135.385-1.8-.639A7.93,7.93,0,0,0,14.92,1.28,8.268,8.268,0,0,0,6.9,9.145,1.356,1.356,0,0,1,5.845,10.5a6.756,6.756,0,0,0-4.51,7.629,6.664,6.664,0,0,0,6.161,5.6c2.539.15,5.093.07,7.64.069a1.051,1.051,0,0,0,1.126-.984c.045-.54.01-1.086.01-1.691H11.525c-1,0-1.143-.139-1.143-1.109V9.921c0-.9.125-1.038,1.015-1.039q7.492-.005,14.984,0c.933,0,1.052.124,1.053,1.071q0,5.045,0,10.091c0,.909-.166,1.075-1.062,1.077C24.784,21.123,23.194,21.12,21.511,21.12Z" transform="translate(0 0.003)"/>
      <path id="Path_2" data-name="Path 2" d="M316.173,43.071a5.011,5.011,0,0,1-4.223,1.366,4.938,4.938,0,1,1,5.675-4.727c.02,1.488.009,2.976,0,4.464a4.247,4.247,0,0,1-3,4.217,5.31,5.31,0,0,1-6.361-2.162,1.945,1.945,0,0,1-.158-.261c-.171-.4-.166-.78.248-1.012a.679.679,0,0,1,.99.3,3.83,3.83,0,0,0,2.848,2C314.811,47.594,316.5,45.858,316.173,43.071Zm.041-3.547a3.53,3.53,0,1,0-3.516,3.563,3.569,3.569,0,0,0,3.515-3.563Z" transform="translate(-209.085 -23.528)"/>
      <path id="Path_3" data-name="Path 3" d="M153.819,35.473a7.05,7.05,0,1,1,7.065-6.857A7.05,7.05,0,0,1,153.819,35.473Zm5.64-7.016a5.624,5.624,0,1,0-5.652,5.6,5.624,5.624,0,0,0,5.652-5.6Z" transform="translate(-99.736 -14.52)"/>
      <path id="Path_4" data-name="Path 4" d="M196.462,43.026c0,1.673-.007,3.215,0,4.757,0,.468-.136.81-.634.882-.481.069-.786-.286-.792-.921-.01-1.2-.013-2.4,0-3.605.018-1.791-.044-3.591.1-5.371a4.8,4.8,0,0,1,4.914-4.189,4.922,4.922,0,0,1,4.849,4.43,4.706,4.706,0,0,1-2.6,4.857,4.754,4.754,0,0,1-5.483-.563C196.738,43.242,196.659,43.18,196.462,43.026Zm3.52.024a3.537,3.537,0,1,0-3.517-3.559A3.576,3.576,0,0,0,199.982,43.049Z" transform="translate(-132.5 -23.49)"/>
      <path id="Path_5" data-name="Path 5" d="M268.926,35.473a4.19,4.19,0,0,1-3.179-1.706c-.367-.453-.37-.931-.01-1.186.478-.34.812-.1,1.132.294a2.762,2.762,0,0,0,3.839.72,2.8,2.8,0,0,0,.885-3.769,3.482,3.482,0,0,0-2.235-1.471c-.253-.075-.518-.113-.77-.192a3.294,3.294,0,0,1-2.453-3.2,3.6,3.6,0,0,1,2.429-3.4,3.527,3.527,0,0,1,3.928,1.233c.419.556.441,1.016.02,1.274-.521.321-.844.026-1.159-.393a2.044,2.044,0,0,0-2.823-.5,1.961,1.961,0,0,0-.682,2.718,3.554,3.554,0,0,0,1.388.994c.56.273,1.213.353,1.781.616a4.067,4.067,0,0,1,2.239,4.833A4.246,4.246,0,0,1,268.926,35.473Z" transform="translate(-180.354 -14.527)"/>
      <path id="Path_6" data-name="Path 6" d="M379.885,44.415a4.842,4.842,0,0,1-3.63-1.514c-.4-.408-.469-.9-.133-1.173a.745.745,0,0,1,1.125.148,3.344,3.344,0,0,0,3.391,1.029,3.527,3.527,0,0,0,1.293-.641c.7-.542.558-1.149-.282-1.431-1.369-.46-2.745-.9-4.113-1.364a2.186,2.186,0,0,1-1.67-1.831,2.141,2.141,0,0,1,1.09-2.17,5.614,5.614,0,0,1,1.879-.815,4.786,4.786,0,0,1,4.526,1.407c.355.363.562.718.178,1.163-.293.34-.716.277-1.154-.156a3.437,3.437,0,0,0-3.352-1.005,2.991,2.991,0,0,0-1.2.556,1.379,1.379,0,0,0-.488.946c0,.2.436.481.727.585,1.3.47,2.619.892,3.931,1.327a2.248,2.248,0,0,1,1.752,1.761,2.337,2.337,0,0,1-1.179,2.375A4.489,4.489,0,0,1,379.885,44.415Z" transform="translate(-255.341 -23.465)"/>
      <path id="Path_7" data-name="Path 7" d="M344.394,35.763a4.585,4.585,0,0,1,4.181-1.073,4.513,4.513,0,0,1,3.522,4.3c.028,1.528,0,3.057.007,4.585,0,.5-.2.853-.737.84-.5-.012-.691-.353-.69-.827,0-1.467.005-2.934,0-4.4a3.162,3.162,0,0,0-6.323-.074c-.026,1.487-.007,2.975-.007,4.462,0,.494-.177.858-.731.841-.517-.015-.667-.357-.665-.834.009-2.323,0-4.646,0-6.969,0-.408.009-.815,0-1.223-.013-.451.149-.771.633-.8.509-.032.733.27.762.75C344.354,35.436,344.369,35.535,344.394,35.763Z" transform="translate(-232.993 -23.478)"/>
      <path id="Path_8" data-name="Path 8" d="M231.736,25.532V22.465c0-.737.214-1.068.693-1.08.5-.012.73.333.731,1.109v3.122c.488,0,.911-.011,1.333,0,.472.016.791.23.764.746-.025.481-.333.655-.788.643-.4-.011-.808,0-1.248,0a4.954,4.954,0,0,0-.058.51c0,1.486-.013,2.973,0,4.459a1.828,1.828,0,0,0,1.934,2.1c.531.041.907.209.858.776s-.511.653-1,.628a3.023,3.023,0,0,1-3.214-3.347c-.019-1.466,0-2.932,0-4.4v-.675c-.549-.139-1.342.185-1.376-.693C230.323,25.4,231.2,25.723,231.736,25.532Z" transform="translate(-156.499 -14.528)"/>
      <path id="Path_9" data-name="Path 9" d="M51.79,44.33a3.183,3.183,0,0,1-3.15-2.241,3.289,3.289,0,0,1,1.243-3.836c.307-.219.625-.391.9,0,.253.361-.01.577-.293.793a2.354,2.354,0,0,0,1.426,4.3,2.348,2.348,0,0,0,1.406-4.163c-.295-.251-.832-.475-.449-.945.4-.493.817-.057,1.146.217a3.352,3.352,0,0,1,.942,3.725A3.278,3.278,0,0,1,51.79,44.33Z" transform="translate(-32.912 -25.823)"/>
      <path id="Path_10" data-name="Path 10" d="M296.792,39.531c0-1.344.007-2.687,0-4.031,0-.5.151-.863.7-.862s.7.39.7.874q0,4.031,0,8.062c0,.477-.113.863-.678.9-.479.027-.713-.274-.715-.907C296.789,42.218,296.792,40.874,296.792,39.531Z" transform="translate(-201.631 -23.531)"/>
      <path id="Path_11" data-name="Path 11" d="M255.833,39.577c0,1.3,0,2.605,0,3.908,0,.692-.224,1.013-.705.978-.589-.042-.692-.449-.69-.951.007-2.666,0-5.333.006-8,0-.606.278-.923.751-.884s.643.349.641.8C255.829,36.809,255.832,38.193,255.833,39.577Z" transform="translate(-172.858 -23.523)"/>
      <path id="Path_12" data-name="Path 12" d="M58.314,38.662c-.056.22-.314.388-.481.579-.181-.178-.5-.345-.519-.537a13.493,13.493,0,0,1,0-2.19c.015-.189.312-.355.481-.532.181.184.464.342.519.558A15.055,15.055,0,0,1,58.314,38.662Z" transform="translate(-38.907 -24.445)"/>
      <path id="Path_13" data-name="Path 13" d="M297.063,27a.89.89,0,1,1,.851-.927.89.89,0,0,1-.851.927Z" transform="translate(-201.187 -17.131)"/>
      <path id="Path_14" data-name="Path 14" d="M255.705,26.11a.889.889,0,0,1-.9.88.856.856,0,0,1-.841-.864.877.877,0,0,1,.855-.917.905.905,0,0,1,.884.9Z" transform="translate(-172.538 -17.126)"/>
    </g>
  </g>
</svg>
