<?xml version="1.0" encoding="UTF-8"?>
<svg width="300" height="80" viewBox="0 0 2624 618" version="1.1" xmlns="http://www.w3.org/2000/svg" xmlns:xlink="http://www.w3.org/1999/xlink">
    <g id="raydiant-logo-sky-blue" stroke="none" stroke-width="1" fill="none" fill-rule="evenodd">
        <path d="M246.279,302.295 C321.056,282.993 342.528,233.125 342.528,175.489 C342.528,89.807 278.35,40.521 176.913,40.521 L0.17,40.521 L0.17,461.271 L107.949,461.271 L107.949,328.479 L136.737,328.479 L184.256,408.861 C199.519,440.879 231.838,461.271 267.307,461.271 L359.49,461.271 L359.49,360.496 L283.84,360.496 L246.279,302.295 Z M155.785,239.652 L107.949,239.652 L107.949,125.536 L156.362,125.536 C209.963,125.536 234.172,145.129 234.172,181.44 C234.172,216.602 207.078,239.652 155.785,239.652 Z" id="Fill-1" fill="#2090BF"></path>
        <polygon id="Fill-2" fill="#2090BF" points="1526.22 459.543 1631.12 459.543 1631.12 136.783 1526.22 136.783"></polygon>
        <path d="M2247.33,228.327 C2288.8,229.974 2304.97,252.536 2304.97,303.834 L2304.97,459.544 L2409.29,459.544 L2409.29,256.66 C2409.29,180.004 2366.85,137.737 2295.74,130.437 C2228.63,123.544 2185.66,167.368 2185.66,167.368 L2185.66,136.779 L2081.92,136.779 L2081.92,459.544 L2186.24,459.544 L2186.12,303.644 C2186.12,303.644 2180.35,225.669 2247.33,228.327" id="Fill-3" fill="#2090BF"></path>
        <path d="M2555.79,130.435 L2555.79,35.795 L2459.53,35.795 L2458.65,362.134 C2458.5,415.291 2501.1,458.5 2554.03,459.452 L2554.03,459.542 L2623.56,459.542 L2623.56,360.499 L2555.79,360.499 L2555.79,224.201 L2623.56,224.201 L2623.56,130.435 L2555.79,130.435" id="Fill-4" fill="#2090BF"></path>
        <polygon id="Fill-5" fill="#2090BF" points="1526.22 91.636 1631.12 91.636 1631.12 0.75 1526.22 0.75"></polygon>
        <path d="M1119.74,138.507 L1013.77,138.507 L940.38,328.072 L863.01,138.507 L749.285,138.507 L877.8,451.95 C883.06,464.761 882.87,479.161 877.28,491.829 C869.14,510.305 850.85,522.227 830.66,522.227 L752.297,522.227 L752.297,617.311 L841.79,617.311 C895.87,617.311 944.67,584.843 965.55,534.953 L1119.74,138.507" id="Fill-6" fill="#2090BF"></path>
        <path d="M2041.92,359.229 L2007.82,359.229 C2007.76,359.229 2007.71,359.176 2007.71,359.112 C2007.71,359.112 2007.66,137.239 2007.6,137.239 L1903.27,137.239 L1903.27,167.795 C1903.27,167.795 1881.36,136.408 1818.54,136.408 C1738.94,136.408 1674.42,208.262 1674.42,296.893 C1674.42,385.529 1732.71,457.378 1830.58,457.378 C1865.99,457.378 1896.73,441.719 1917.83,420.332 C1917.87,420.284 1917.95,420.299 1917.99,420.353 C1934.79,444.604 1962.73,460.004 1993.65,460.004 L2041.92,460.004 C2041.98,460.004 2042.03,459.951 2042.03,459.888 L2042.03,359.345 C2042.03,359.282 2041.98,359.229 2041.92,359.229 M1845.26,366.487 C1810.27,366.487 1781.9,335.332 1781.9,296.893 C1781.9,258.459 1810.27,227.299 1845.26,227.299 C1880.25,227.299 1908.62,258.459 1908.62,296.893 C1908.62,335.332 1880.25,366.487 1845.26,366.487" id="Fill-7" fill="#2090BF"></path>
        <path d="M1485.46,359.229 L1451.37,359.229 C1451.3,359.229 1451.25,359.176 1451.25,359.112 L1451.25,0.814 C1451.25,0.746 1346.82,0.698 1346.82,0.698 L1346.82,167.795 C1346.82,167.795 1324.9,136.408 1262.08,136.408 C1182.48,136.408 1117.96,208.262 1117.96,296.893 C1117.96,385.529 1176.25,457.378 1274.12,457.378 C1309.53,457.378 1340.27,441.719 1361.37,420.332 C1361.42,420.284 1361.5,420.299 1361.53,420.353 C1378.33,444.604 1406.28,460.004 1437.19,460.004 L1485.46,460.004 C1485.52,460.004 1485.57,459.951 1485.57,459.888 L1485.57,359.345 C1485.57,359.282 1485.52,359.229 1485.46,359.229 M1288.8,366.487 C1253.81,366.487 1225.44,335.332 1225.44,296.893 C1225.44,258.459 1253.81,227.299 1288.8,227.299 C1323.8,227.299 1352.16,258.459 1352.16,296.893 C1352.16,335.332 1323.8,366.487 1288.8,366.487" id="Fill-8" fill="#2090BF"></path>
        <path d="M747.356,359.229 L713.264,359.229 C713.2,359.229 713.146,359.176 713.146,359.112 C713.146,359.112 713.1,137.239 713.036,137.239 L608.714,137.239 L608.714,167.795 C608.714,167.795 586.802,136.408 523.984,136.408 C444.38,136.408 379.862,208.262 379.862,296.893 C379.862,385.529 438.148,457.378 536.018,457.378 C571.429,457.378 602.17,441.719 623.267,420.332 C623.314,420.284 623.394,420.299 623.431,420.353 C640.229,444.604 668.175,460.004 699.092,460.004 L747.356,460.004 C747.42,460.004 747.473,459.951 747.473,459.888 L747.473,359.345 C747.473,359.282 747.42,359.229 747.356,359.229 M550.703,366.487 C515.71,366.487 487.34,335.332 487.34,296.893 C487.34,258.459 515.71,227.299 550.703,227.299 C585.695,227.299 614.061,258.459 614.061,296.893 C614.061,335.332 585.695,366.487 550.703,366.487" id="Fill-9" fill="#2090BF"></path>
    </g>
</svg>