<svg xmlns="http://www.w3.org/2000/svg" width="93.356" height="34.074" viewBox="0 0 93.356 34.074">
  <g id="risevision-01" transform="translate(-25.9 -23.06)">
    <path id="Path_7198" data-name="Path 7198" d="M103.2,45.208A8.53,8.53,0,0,1,103.15,44V40.248c0-2.423-.8-3.9-2.373-4.417a9.528,9.528,0,0,0-1.426-.372h0a6.177,6.177,0,0,0,1.212-.416,3.83,3.83,0,0,0,2.272-2.694,9.894,9.894,0,0,0,.315-2.524q0-3.483-1.893-4.9c-.953-.738-2.688-1.111-5.225-1.161H89.59V46.577h4.676V37.245h1.426a9.111,9.111,0,0,1,1.161.1q1.742.4,1.742,2.852v3.742c0,.372.05.846.1,1.426l.215,1.161h4.638a12.5,12.5,0,0,1-.347-1.319ZM97.825,33.13a3.224,3.224,0,0,1-2.164.681H94.266V27.167h1.369a6.153,6.153,0,0,1,1.06.107,1.893,1.893,0,0,1,1.653,1.685,7.055,7.055,0,0,1,.158,1.533A4.2,4.2,0,0,1,97.825,33.13Z" transform="translate(-23.501 -0.258)" fill="#326ab6"/>
    <rect id="Rectangle_2651" data-name="Rectangle 2651" width="4.644" height="22.842" transform="translate(82.337 23.483)" fill="#326ab6"/>
    <path id="Path_7199" data-name="Path 7199" d="M131.749,39.094v.846c-.057,2.158.789,3.218,2.48,3.269a2.261,2.261,0,0,0,2.524-1.792,3.363,3.363,0,0,0,.107-1.054,2.524,2.524,0,0,0-.322-1.319,2.3,2.3,0,0,0-.789-.846l-.688-.473-3.9-2.322a10.885,10.885,0,0,1-1.893-1.319,4.5,4.5,0,0,1-1.426-1.792,7.168,7.168,0,0,1-.524-2.8c0-4.272,2.373-6.386,7.118-6.436,3.906,0,6.064,1.369,6.543,4.114a16.406,16.406,0,0,1,.208,2.265v.953h-4.644V29.7a11.631,11.631,0,0,0-.1-1.369,1.88,1.88,0,0,0-2.164-1.742c-1.527,0-2.265.789-2.322,2.48a2.852,2.852,0,0,0,.316,1.42,4.3,4.3,0,0,0,1.111,1.06l.947.631,3.855,2.265a10.689,10.689,0,0,1,1.407,1,4.505,4.505,0,0,1,1.319,1.742,7.4,7.4,0,0,1,.473,2.8c0,3.325-1.262,5.382-3.849,6.121a11.087,11.087,0,0,1-3.534.524,11.989,11.989,0,0,1-3.426-.473,4.48,4.48,0,0,1-3.483-3.9,11.794,11.794,0,0,1-.158-2.429v-.789h4.8Z" transform="translate(-37.278)" fill="#326ab6"/>
    <path id="Path_7200" data-name="Path 7200" d="M166.86,23.73v3.426h-6.752v5.963h6.543v3.426h-6.543v6.543h6.96v3.477h-11.6V23.73Z" transform="translate(-47.811 -0.247)" fill="#326ab6"/>
    <path id="Path_7201" data-name="Path 7201" d="M89.59,65.44h1.584l1.111,5.225h0l1.262-5.225h1.477L93.13,72.614H91.388Z" transform="translate(-23.501 -15.638)" fill="#54b570"/>
    <rect id="Rectangle_2652" data-name="Rectangle 2652" width="1.527" height="7.225" transform="translate(77.592 49.802)" fill="#54b570"/>
    <path id="Path_7202" data-name="Path 7202" d="M121.732,72.706c-1.843,0-2.215-1.111-2.164-2.322H121.1c0,.688.05,1.262.846,1.262.524,0,.738-.322.738-.846,0-1.319-3.06-1.369-3.06-3.534,0-1.111.524-2.007,2.373-2.007,1.477,0,2.215.631,2.108,2.164h-1.42c0-.53-.107-1.111-.688-1.111a.719.719,0,0,0-.789.8c0,1.369,3.054,1.262,3.054,3.534C124.256,72.441,122.912,72.706,121.732,72.706Z" transform="translate(-34.562 -15.572)" fill="#54b570"/>
    <rect id="Rectangle_2653" data-name="Rectangle 2653" width="1.527" height="7.225" transform="translate(95.683 49.802)" fill="#54b570"/>
    <path id="Path_7203" data-name="Path 7203" d="M150.55,65.19c-2.48,0-2.48,1.792-2.48,3.742s0,3.748,2.48,3.748,2.524-1.849,2.524-3.748S153.105,65.19,150.55,65.19Zm0,6.379c-.846,0-.953-.789-.953-2.638s.107-2.638.953-2.638.947.8.947,2.638S151.471,71.569,150.55,71.569Z" transform="translate(-45.08 -15.546)" fill="#54b570"/>
    <path id="Path_7204" data-name="Path 7204" d="M165.33,72.614V65.44h2.057l1.9,4.96h.05V65.44h1.369v7.174h-1.95l-2-5.275h0v5.275Z" transform="translate(-51.449 -15.638)" fill="#54b570"/>
    <path id="Path_7205" data-name="Path 7205" d="M25.9,57.253H50.427l.05-8.916h8.866l-8.916,8.916h8.916V23.81Zm16.034-1.319v-6.31H47.9Zm9.7-9.919V39.7H57.6Z" transform="translate(0 -0.277)" fill="#54b570"/>
  </g>
</svg>
