<svg xmlns="http://www.w3.org/2000/svg" width="123.462" height="20.423" viewBox="0 0 123.462 20.423">
  <g id="Group_7192" data-name="Group 7192" transform="translate(-1.2 -211.3)">
    <path id="Path_7081" data-name="Path 7081" d="M64.435,219.828a.859.859,0,0,1-.187.249.374.374,0,0,1-.249.062.885.885,0,0,1-.374-.125l-.436-.249a2.6,2.6,0,0,0-.623-.249,3.674,3.674,0,0,0-.872-.125,1.579,1.579,0,0,0-.747.125,2.524,2.524,0,0,0-.56.311,2.707,2.707,0,0,0-.374.436,1.818,1.818,0,0,0-.125.56.936.936,0,0,0,.249.685,3.422,3.422,0,0,0,.56.436,4.323,4.323,0,0,0,.809.311l.934.311.934.374a2.752,2.752,0,0,1,1.37,1.37A2.527,2.527,0,0,1,65,225.494a3.86,3.86,0,0,1-.249,1.432A3.533,3.533,0,0,1,64,228.047a3.177,3.177,0,0,1-1.245.747,3.953,3.953,0,0,1-1.681.249,5.484,5.484,0,0,1-1.058-.125,4.666,4.666,0,0,1-1-.311,3.8,3.8,0,0,1-.872-.436l-.747-.56.623-1,.187-.187a.374.374,0,0,1,.249-.062.673.673,0,0,1,.436.187,2.173,2.173,0,0,0,.56.374l.747.374a2.82,2.82,0,0,0,1,.187,2.122,2.122,0,0,0,1.37-.436,1.7,1.7,0,0,0,.5-1.183.936.936,0,0,0-.249-.685,1.716,1.716,0,0,0-.56-.436,4.323,4.323,0,0,0-.809-.311,5.479,5.479,0,0,1-.934-.311l-.934-.374a2.369,2.369,0,0,1-.809-.56,2.612,2.612,0,0,1-.56-.872,3.252,3.252,0,0,1-.249-1.307,2.527,2.527,0,0,1,.249-1.183,3,3,0,0,1,.747-1,2.822,2.822,0,0,1,1.183-.685A4.524,4.524,0,0,1,61.7,217.9a6.521,6.521,0,0,1,1.868.311,4.219,4.219,0,0,1,1.432.872Zm7.907,2.8-.187.187a.374.374,0,0,1-.249.062.561.561,0,0,1-.311-.062l-.311-.187a4.287,4.287,0,0,0-.5-.187,1.237,1.237,0,0,0-.685-.062,1.989,1.989,0,0,0-.872.187,1.363,1.363,0,0,0-.623.56,1.93,1.93,0,0,0-.374.809A6.135,6.135,0,0,0,68.109,225a3.448,3.448,0,0,0,.125,1.121,1.93,1.93,0,0,0,.374.809,1.766,1.766,0,0,0,.685.5,1.917,1.917,0,0,0,.809.187,1.579,1.579,0,0,0,.747-.125,1.864,1.864,0,0,0,.5-.249l.374-.249c.125-.062.187-.125.311-.125a.538.538,0,0,1,.374.187l.56.685a3.263,3.263,0,0,1-.685.623,4.2,4.2,0,0,1-1.619.56,4.111,4.111,0,0,1-.872.062,3.86,3.86,0,0,1-1.432-.249,2.882,2.882,0,0,1-1.121-.809,3.555,3.555,0,0,1-.809-1.307,5.4,5.4,0,0,1-.311-1.743,4.643,4.643,0,0,1,.249-1.619,5.09,5.09,0,0,1,.747-1.245,3.251,3.251,0,0,1,1.183-.872,5.338,5.338,0,0,1,1.681-.311,3.323,3.323,0,0,1,1.557.311,3.892,3.892,0,0,1,1.245.809Zm1.868,6.351v-8.094h1.121a.593.593,0,0,1,.436.125l.187.374.125,1.058a4.3,4.3,0,0,1,1-1.121,2.348,2.348,0,0,1,1.307-.436,1.827,1.827,0,0,1,1,.249l-.249,1.432c0,.062-.062.125-.125.187a.229.229,0,0,1-.187.062.561.561,0,0,1-.311-.062,1.724,1.724,0,0,0-.56-.062,2.1,2.1,0,0,0-1.058.311,2.756,2.756,0,0,0-.747.934v4.981H74.21Zm9.713-8.094a3.861,3.861,0,0,1,1.432.249,2.605,2.605,0,0,1,1.121.685,3.533,3.533,0,0,1,.747,1.121,4.3,4.3,0,0,1,.249,1.557v.374c0,.062-.062.125-.062.249l-.125.125c-.062,0-.125.062-.249.062H82.055a2.713,2.713,0,0,0,.685,1.806,2.1,2.1,0,0,0,1.557.56,3.644,3.644,0,0,0,.809-.125c.187-.062.436-.187.623-.249l.436-.249a.885.885,0,0,1,.374-.125.229.229,0,0,1,.187.062c.062.062.125.062.125.125l.56.685a2.491,2.491,0,0,1-.747.623,2.36,2.36,0,0,1-.809.374,2.2,2.2,0,0,1-.872.187,4.11,4.11,0,0,1-.872.062,4.3,4.3,0,0,1-1.557-.249,3.317,3.317,0,0,1-1.245-.809,3.555,3.555,0,0,1-.809-1.307,5.784,5.784,0,0,1-.311-1.806,3.969,3.969,0,0,1,.249-1.494,3.419,3.419,0,0,1,1.992-2.055A2.04,2.04,0,0,1,83.923,220.887Zm.062,1.37a1.732,1.732,0,0,0-1.307.5,2.152,2.152,0,0,0-.623,1.307h3.673a2.238,2.238,0,0,0-.125-.685,2.523,2.523,0,0,0-.311-.56.907.907,0,0,0-.56-.374A1.123,1.123,0,0,0,83.985,222.256Zm8.343-1.37a3.861,3.861,0,0,1,1.432.249,2.605,2.605,0,0,1,1.121.685,3.533,3.533,0,0,1,.747,1.121,4.3,4.3,0,0,1,.249,1.557v.374c0,.062-.062.125-.062.249l-.125.125c-.062,0-.125.062-.249.062H90.46a2.713,2.713,0,0,0,.685,1.806,2.1,2.1,0,0,0,1.557.56,3.644,3.644,0,0,0,.809-.125c.187-.062.436-.187.623-.249l.436-.249a.885.885,0,0,1,.374-.125.229.229,0,0,1,.187.062c.062.062.125.062.125.125l.56.685a2.491,2.491,0,0,1-.747.623,2.359,2.359,0,0,1-.809.374,2.2,2.2,0,0,1-.872.187,4.11,4.11,0,0,1-.872.062,4.3,4.3,0,0,1-1.557-.249,3.317,3.317,0,0,1-1.245-.809,3.555,3.555,0,0,1-.809-1.307,5.784,5.784,0,0,1-.311-1.806,3.969,3.969,0,0,1,.249-1.494,3.594,3.594,0,0,1,1.992-2.055A2.04,2.04,0,0,1,92.328,220.887Zm.062,1.37a1.732,1.732,0,0,0-1.307.5,2.152,2.152,0,0,0-.623,1.307h3.673a2.238,2.238,0,0,0-.125-.685,2.523,2.523,0,0,0-.311-.56.907.907,0,0,0-.56-.374,1.123,1.123,0,0,0-.747-.187Zm4.981,6.724v-8.094h1.183a.493.493,0,0,1,.5.311l.125.747a3.422,3.422,0,0,1,.56-.436l.56-.374a2.6,2.6,0,0,1,.623-.249,3.031,3.031,0,0,1,.747-.062,2.7,2.7,0,0,1,1.183.249,2.568,2.568,0,0,1,.809.623,2.874,2.874,0,0,1,.56.934,3.91,3.91,0,0,1,.187,1.183v5.105h-1.93v-5.105a1.865,1.865,0,0,0-.374-1.121,1.188,1.188,0,0,0-1-.374,1.757,1.757,0,0,0-.934.249,4,4,0,0,0-.809.623v5.79H97.371Zm16.873-2.8a.476.476,0,0,1,.311.125l.809.872a4.916,4.916,0,0,1-1.681,1.307,5.428,5.428,0,0,1-2.428.436,5.534,5.534,0,0,1-2.241-.436,5.411,5.411,0,0,1-1.743-1.183,4.09,4.09,0,0,1-1.058-1.806,7.145,7.145,0,0,1-.374-2.3,5.831,5.831,0,0,1,.436-2.3,5.292,5.292,0,0,1,2.989-2.989,6.137,6.137,0,0,1,2.366-.436,7.051,7.051,0,0,1,2.241.374,5.6,5.6,0,0,1,1.619,1.058l-.685,1-.187.187a.374.374,0,0,1-.249.062.885.885,0,0,1-.374-.125,3.475,3.475,0,0,0-.5-.311,3.809,3.809,0,0,0-.747-.311,3.974,3.974,0,0,0-2.553.125,3.093,3.093,0,0,0-1.183.809,5.09,5.09,0,0,0-.747,1.245,4.877,4.877,0,0,0-.249,1.619,5.244,5.244,0,0,0,.249,1.681,5.09,5.09,0,0,0,.747,1.245,3,3,0,0,0,1.058.747,3.351,3.351,0,0,0,1.37.249,3.829,3.829,0,0,0,.809-.062,1.842,1.842,0,0,0,.623-.125,2.212,2.212,0,0,0,.56-.249l.56-.374c.062-.062.125-.062.187-.125-.062.062,0,0,.062,0Zm4.67-8.716V228.98h-1.93V217.525h1.93Zm5.666,3.424a3.582,3.582,0,0,1,1.619.311,3.7,3.7,0,0,1,2.055,2.055,5.338,5.338,0,0,1,.311,1.681,4.023,4.023,0,0,1-.311,1.681,3.555,3.555,0,0,1-.809,1.307,3.892,3.892,0,0,1-1.245.809,5,5,0,0,1-3.3,0,2.892,2.892,0,0,1-1.245-.809,3.892,3.892,0,0,1-.809-1.245,5.338,5.338,0,0,1-.311-1.681,4.023,4.023,0,0,1,.311-1.681,3.521,3.521,0,0,1,2.055-2.055A3.174,3.174,0,0,1,124.579,220.887Zm0,6.6a1.643,1.643,0,0,0,1.494-.685,3.989,3.989,0,0,0,0-3.86,1.8,1.8,0,0,0-1.494-.685,1.584,1.584,0,0,0-1.494.685,3.989,3.989,0,0,0,0,3.86A1.528,1.528,0,0,0,124.579,227.486Zm7.222-6.6v5.105a1.865,1.865,0,0,0,.374,1.121,1.188,1.188,0,0,0,1,.374,1.757,1.757,0,0,0,.934-.249,4,4,0,0,0,.809-.623v-5.728h1.93v8.094h-1.183a.473.473,0,0,1-.5-.374l-.125-.747a3.422,3.422,0,0,1-.56.436l-.56.374a2.6,2.6,0,0,1-.623.249,3.032,3.032,0,0,1-.747.062,2.7,2.7,0,0,1-1.183-.249,2.806,2.806,0,0,1-.872-.623,2.874,2.874,0,0,1-.56-.934,3.909,3.909,0,0,1-.187-1.183v-5.105Zm12.826,8.094a.473.473,0,0,1-.5-.374l-.187-.872a4.029,4.029,0,0,1-.56.5l-.56.374a2.23,2.23,0,0,1-.685.249,3.289,3.289,0,0,1-.809.062,2.527,2.527,0,0,1-1.183-.249,2.327,2.327,0,0,1-.934-.809,3.35,3.35,0,0,1-.623-1.245,5.361,5.361,0,0,1-.187-1.743,4.643,4.643,0,0,1,.249-1.619,3.356,3.356,0,0,1,3.238-2.49,3.909,3.909,0,0,1,1.183.187,2.611,2.611,0,0,1,.872.56V217.4h1.93v11.58Zm-2.553-1.494a2.2,2.2,0,0,0,1.058-.249,4.287,4.287,0,0,0,.809-.685V223a1.7,1.7,0,0,0-.747-.56,1.847,1.847,0,0,0-1.619,0,1.581,1.581,0,0,0-.623.5,1.93,1.93,0,0,0-.374.809,5.681,5.681,0,0,0,0,2.366,4.324,4.324,0,0,0,.311.809.994.994,0,0,0,.56.436A1.843,1.843,0,0,0,142.074,227.486Z" transform="translate(-21.21 -2.302)" fill="#2d313a"/>
    <g id="Group_7191" data-name="Group 7191" transform="translate(1.2 211.3)">
      <path id="Path_7082" data-name="Path 7082" d="M21.808,234.7l-4.171-2.677a7.029,7.029,0,0,0,3.051-5.728,6.7,6.7,0,0,0-12.7-2.864,6.861,6.861,0,0,0-1.121-.125A5.753,5.753,0,0,0,1.2,229.1a5.632,5.632,0,0,0,1.992,4.3,4.96,4.96,0,0,0,3.424,1.37Z" transform="translate(-1.2 -214.47)" fill="#e7bd20"/>
      <path id="Path_7083" data-name="Path 7083" d="M29.359,220.079l-.062-7.658a1.116,1.116,0,0,0-1.121-1.121H10.121a1.311,1.311,0,0,0-.809.311,1.184,1.184,0,0,0-.311.809l.062,12.826a1.116,1.116,0,0,0,1.121,1.121h3.424l1.058-2.241H11.3l-.062-10.584H26.993" transform="translate(-4.144 -211.3)" fill="#363e44"/>
      <path id="Path_7084" data-name="Path 7084" d="M10.2,226.312a1.638,1.638,0,0,0,1.307.872h4.358l1-2.055v-.249H11.757Zm17.371-12.328v6.6l2.3.623-.062-7.347a1.818,1.818,0,0,0-.125-.56Z" transform="translate(-4.597 -212.055)" fill="#363e44"/>
      <path id="Path_7085" data-name="Path 7085" d="M32.242,228.313a5.774,5.774,0,0,0-10.9-1.681,4.111,4.111,0,0,0-.872-.062,4.81,4.81,0,0,0-4.856,4.794v.062A4.678,4.678,0,0,1,10.7,236.22v.062H31.993a3.906,3.906,0,0,0,3.985-3.86A3.957,3.957,0,0,0,32.242,228.313Z" transform="translate(-4.785 -215.861)" fill="#ffce06"/>
    </g>
  </g>
</svg>
