<svg xmlns="http://www.w3.org/2000/svg" width="80.212" height="29.98" viewBox="0 0 80.212 29.98">
  <g id="Group_6629" data-name="Group 6629" transform="translate(-1319.98 -262.98)">
    <text id="Wired_" data-name="Wired " transform="translate(1377.192 284.981)" fill="#2b2b2b" font-size="15" font-family="HelveticaNeue-Medium, Helvetica Neue" font-weight="500"><tspan x="-22.23" y="0">Wired </tspan></text>
    <g id="Group_6628" data-name="Group 6628" transform="translate(1319.981 262.981)">
      <path id="Path_6798" data-name="Path 6798" d="M25.273,2.412a1.407,1.407,0,0,1,0,1.989L22.562,7.114a7.574,7.574,0,0,1-.9,9.619l-.563.563-.006.006-.58.58a1.97,1.97,0,0,1-2.784,0L9.8,9.958a1.97,1.97,0,0,1,0-2.786l1.146-1.144a7.579,7.579,0,0,1,9.62-.9l2.713-2.713a1.407,1.407,0,0,1,1.989,0Z" transform="translate(4.297 -2.001)" fill="#2b2b2b"/>
      <path id="Path_6799" data-name="Path 6799" d="M14.7,8.662a1.407,1.407,0,0,1,0,1.989l-2.383,2.386,3.171,3.171,2.383-2.386a1.407,1.407,0,1,1,1.991,1.989l-2.394,2.4a2.8,2.8,0,0,1-.188,3.746l-.563.563a7.574,7.574,0,0,1-9.62.9L4.385,26.128A1.407,1.407,0,0,1,2.4,24.14l2.711-2.713a7.574,7.574,0,0,1,.9-9.619l.563-.563a2.8,2.8,0,0,1,3.746-.188l2.4-2.4a1.407,1.407,0,0,1,1.989,0Z" transform="translate(-2.019 3.475)" fill="#2b2b2b"/>
    </g>
  </g>
</svg>
