<svg width="312" height="95" viewBox="0 0 312 95" fill="none" xmlns="http://www.w3.org/2000/svg">
<g clip-path="url(#clip0_51_1856)">
<path d="M52.5684 32.9087V51.7142H61.9711V61.1169H66.6725V56.4155H71.1601V51.7142V42.3114V32.9087H52.5684Z" fill="#F36F26"/>
<path d="M61.9729 61.1173H57.2715V65.8187H61.9729V61.1173Z" fill="#F36F26"/>
<path d="M90.6057 61.1173H85.9043V65.8187H90.6057V61.1173Z" fill="#F36F26"/>
<path d="M81.2031 32.9087V51.7142H90.6059V61.1169H95.3072V56.4155H100.009V51.7142V42.3114V32.9087H81.2031Z" fill="#F36F26"/>
<path d="M152.581 94.0269H0V-0.000488281H152.581V94.0269ZM9.40274 84.6242H142.964V9.40225H9.40274V84.6242Z" fill="#F36F26"/>
<path d="M190.618 49.5767L186.344 37.6096H180.574L187.84 55.9877L185.062 63.0398L189.336 65.8178L200.662 37.6096H195.106L190.618 49.5767Z" fill="#F36F26"/>
<path d="M212.841 37.1829C209.422 37.1829 207.071 38.0377 205.575 39.9609C204.079 41.8842 203.225 44.4486 203.225 47.8678C203.225 54.9198 206.43 58.339 212.841 58.339C216.047 58.339 218.611 57.4842 220.107 55.5609C221.603 53.6377 222.457 51.0733 222.457 47.8678C222.457 44.4486 221.603 41.8842 220.107 39.9609C218.611 38.0377 216.047 37.1829 212.841 37.1829ZM215.833 52.1418C215.192 52.9966 214.123 53.424 212.841 53.424C211.345 53.424 210.277 52.9966 209.636 52.1418C208.994 51.287 208.567 49.7911 208.567 47.6541C208.567 45.7308 208.994 44.2349 209.636 43.1664C210.277 42.3116 211.345 41.8842 212.841 41.8842C214.337 41.8842 215.405 42.3116 215.833 43.1664C216.474 44.0212 216.688 45.5171 216.688 47.6541C216.901 49.7911 216.474 51.287 215.833 52.1418Z" fill="#F36F26"/>
<path d="M239.982 38.6785C239.341 38.2511 238.7 37.8237 238.058 37.6101C236.99 37.1827 236.135 36.969 235.067 36.969C232.502 36.969 230.365 37.8237 228.869 39.747C227.374 41.6703 226.732 44.2347 226.732 47.6539C226.732 50.8594 227.374 53.4237 228.656 55.347C229.938 57.2703 232.075 58.1251 234.426 58.1251C235.708 58.1251 236.99 57.9114 237.845 57.484C238.7 57.0566 239.554 56.6292 240.195 55.9881V57.6977H245.111V29.4895H239.768V38.6785H239.982ZM238.272 42.5251C238.913 42.7388 239.554 43.1662 239.982 43.5936V51.7142C239.554 52.1416 238.7 52.569 238.058 52.9964C237.204 53.4237 236.563 53.4238 235.708 53.4238C234.426 53.4238 233.571 52.9964 232.93 51.9279C232.289 50.8594 232.075 49.5772 232.075 47.6539C232.075 45.9443 232.502 44.4484 233.143 43.3799C233.784 42.3114 234.853 41.884 235.921 41.884C236.776 41.884 237.417 42.0977 238.272 42.5251Z" fill="#F36F26"/>
<path d="M259.642 37.1829C253.231 37.1829 250.025 40.8157 250.025 47.8678C250.025 51.287 250.88 53.8514 252.376 55.7746C254.086 57.4842 256.436 58.339 259.856 58.339C261.993 58.339 263.702 58.1253 264.984 57.4842C266.266 56.8431 267.335 55.9883 268.19 54.9198L268.403 54.7062L264.343 51.9281L264.129 52.1418C263.702 52.7829 263.061 53.2103 262.42 53.424C261.779 53.6377 260.924 53.8514 260.069 53.8514C258.573 53.8514 257.505 53.424 256.65 52.7829C256.009 52.1418 255.582 51.0733 255.582 49.5774H268.403V47.013C268.403 44.0212 267.549 41.6705 266.053 39.9609C264.771 38.0377 262.42 37.1829 259.642 37.1829ZM259.642 41.4568C261.993 41.4568 263.061 42.739 263.275 45.3034H256.009C256.223 44.2349 256.436 43.5938 256.65 43.1664C256.864 42.739 257.291 42.3116 257.932 42.0979C258.146 41.6705 258.787 41.4568 259.642 41.4568Z" fill="#F36F26"/>
<path d="M285.928 51.9282C285.5 52.5693 284.859 52.9967 284.218 53.2104C283.577 53.4241 282.936 53.4241 282.295 53.4241C280.799 53.4241 279.517 52.9967 278.876 52.1419C278.235 51.2871 277.807 49.7912 277.807 47.6543C277.807 45.731 278.235 44.2351 278.876 43.1666C279.517 42.3118 280.585 41.8844 282.081 41.8844C282.936 41.8844 283.577 42.0981 284.218 42.3118C284.646 42.5255 285.287 42.9529 285.714 43.594L285.928 43.8077L289.988 41.0296L289.774 40.8159C289.133 39.5337 288.065 38.6789 286.569 38.2515C285.287 37.6104 283.791 37.3967 282.081 37.3967C278.876 37.3967 276.525 38.2515 274.816 40.1748C273.32 42.0981 272.465 44.6625 272.465 48.0817C272.465 51.5008 273.32 54.0652 275.029 55.7748C276.739 57.4844 279.09 58.3392 282.295 58.3392C284.218 58.3392 285.714 58.1255 286.996 57.4844C288.279 56.8433 289.347 55.9885 289.988 54.92L290.202 54.7063L286.142 51.9282H285.928Z" fill="#F36F26"/>
<path d="M304.092 46.158L311.785 37.6101H305.374L299.176 44.6621V29.4895H293.834V57.6977H299.176V51.5005L300.672 49.7909L305.801 57.6977H311.998L304.092 46.158Z" fill="#F36F26"/>
</g>
<defs>
<clipPath id="clip0_51_1856">
<rect width="312" height="94.0274" fill="white"/>
</clipPath>
</defs>
</svg>
