<svg xmlns="http://www.w3.org/2000/svg" width="88" height="88" viewBox="0 0 88 88">
  <g id="Group_6551" data-name="Group 6551" transform="translate(3256 9501)">
    <rect id="Rectangle_312" data-name="Rectangle 312" width="88" height="88" rx="12" transform="translate(-3256 -9501)" fill="#fc7977"/>
    <path id="airbnb" d="M85.362,44.538a10.757,10.757,0,0,0-.794-3.8c-.367-.935-.792-1.846-1.208-2.76Q78.4,27.169,72.95,16.591c-.511-.985-1.011-1.976-1.55-2.946a10.44,10.44,0,0,0-1.946-2.6A7.6,7.6,0,0,0,64.714,9h-.808a7.567,7.567,0,0,0-4.867,2.111,10.543,10.543,0,0,0-1.881,2.537c-.532.954-1.025,1.929-1.526,2.9q-3.655,7.095-7.094,14.3C47.17,33.718,45.815,36.6,44.512,39.5A14.135,14.135,0,0,0,43.3,43.277,9.647,9.647,0,0,0,49,53.532a9.826,9.826,0,0,0,4.454.788,12.215,12.215,0,0,0,5.728-1.909,25.022,25.022,0,0,0,5.1-4.395,25.735,25.735,0,0,0,4.709,4.149,12.6,12.6,0,0,0,5.676,2.12,9.673,9.673,0,0,0,10.013-6.032,9.6,9.6,0,0,0,.683-3.715Zm-21.071-.859c-.556-.654-1.045-1.362-1.537-2.065a25.3,25.3,0,0,1-2.185-3.823A12.554,12.554,0,0,1,59.519,34.3a6.029,6.029,0,0,1,.267-2.879,4.243,4.243,0,0,1,1.693-2.089,5.249,5.249,0,0,1,6.108.38,4.438,4.438,0,0,1,1.469,2.864,9.23,9.23,0,0,1-.669,4.249,27.157,27.157,0,0,1-4.1,6.855ZM82.28,46.747a6.812,6.812,0,0,1-3.208,4.021,7,7,0,0,1-4.535.768,11.336,11.336,0,0,1-5.245-2.574,27.835,27.835,0,0,1-3.1-2.99,35.661,35.661,0,0,0,4.062-6.157,15.2,15.2,0,0,0,1.756-6.2,8.152,8.152,0,0,0-.865-4.011,7.363,7.363,0,0,0-4.087-3.51,8.364,8.364,0,0,0-5.068-.159,7.341,7.341,0,0,0-5.413,6.6,12.81,12.81,0,0,0,1.1,5.924,31.291,31.291,0,0,0,4.68,7.487,25.571,25.571,0,0,1-2.716,2.7,12.215,12.215,0,0,1-5.182,2.807,7.11,7.11,0,0,1-4.729-.554,6.8,6.8,0,0,1-3.488-4.266,7.014,7.014,0,0,1,.154-4.111c.371-1.089.875-2.127,1.346-3.175q4.908-10.7,10.293-21.162c.535-1.038,1.062-2.081,1.629-3.1a6.968,6.968,0,0,1,1.761-2.208,4.7,4.7,0,0,1,5.834.11,8.13,8.13,0,0,1,1.846,2.507c1.109,2.084,2.175,4.191,3.24,6.3q4.562,9.03,8.766,18.235a22.073,22.073,0,0,1,1.162,2.9,6.98,6.98,0,0,1,0,3.818Z" transform="translate(-3276.192 -9488.999)" fill="#fff"/>
  </g>
</svg>
