<svg xmlns="http://www.w3.org/2000/svg" width="88" height="88" viewBox="0 0 88 88">
  <g id="Group_6541" data-name="Group 6541" transform="translate(3081 9399)">
    <rect id="Rectangle_387" data-name="Rectangle 387" width="88" height="88" rx="12" transform="translate(-3081 -9399)" fill="#f5f5f5"/>
    <g id="google" transform="translate(-3059.496 -9377.526)">
      <path id="Path_4767" data-name="Path 4767" d="M152.648,111.467a19.726,19.726,0,0,0-.486-4.706H130.55V115.3h12.686a11.249,11.249,0,0,1-4.706,7.468l-.043.286,6.833,5.294.473.047c4.348-4.015,6.854-9.924,6.854-16.931" transform="translate(-107.531 -87.937)" fill="#4285f4"/>
      <path id="Path_4768" data-name="Path 4768" d="M34.488,174.836a21.94,21.94,0,0,0,15.243-5.576l-7.264-5.627a13.624,13.624,0,0,1-7.98,2.3,13.857,13.857,0,0,1-13.1-9.565l-.27.023-7.105,5.5-.093.258a23,23,0,0,0,20.563,12.686" transform="translate(-11.47 -128.799)" fill="#34a853"/>
      <path id="Path_4769" data-name="Path 4769" d="M9.923,86.309a14.171,14.171,0,0,1-.767-4.553A14.891,14.891,0,0,1,9.9,77.2L9.885,76.9,2.691,71.312l-.235.112a22.97,22.97,0,0,0,0,20.666l7.468-5.78" transform="translate(0 -58.738)" fill="#fbbc05"/>
      <path id="Path_4770" data-name="Path 4770" d="M34.488,8.9a12.758,12.758,0,0,1,8.9,3.427l6.5-6.343A22.116,22.116,0,0,0,34.488,0,23,23,0,0,0,13.925,12.686l7.443,5.78A13.914,13.914,0,0,1,34.488,8.9" transform="translate(-11.47)" fill="#eb4335"/>
    </g>
  </g>
</svg>
