<svg xmlns="http://www.w3.org/2000/svg" xmlns:xlink="http://www.w3.org/1999/xlink" width="88" height="87.977" viewBox="0 0 88 87.977"><defs><style>.cls-1{fill:url(#radial-gradient);}.cls-2{fill:url(#radial-gradient-2);}.cls-3{fill:#fff;}</style><radialGradient id="radial-gradient" cx="-885.891" cy="844.618" r="43.989" gradientTransform="translate(-1531.728 -1660.009) rotate(-90) scale(1.98 1.84)" gradientUnits="userSpaceOnUse"><stop offset="0" stop-color="#fd5"/><stop offset="0.1" stop-color="#fd5"/><stop offset="0.5" stop-color="#ff543e"/><stop offset="1" stop-color="#c837ab"/></radialGradient><radialGradient id="radial-gradient-2" cx="79.842" cy="114.74" r="43.989" gradientTransform="matrix(0.17, 0.87, -3.58, 0.72, 382.268, -145.94)" gradientUnits="userSpaceOnUse"><stop offset="0" stop-color="#3771c8"/><stop offset="0.13" stop-color="#3771c8"/><stop offset="1" stop-color="#60f" stop-opacity="0"/></radialGradient></defs><g id="Layer_2" data-name="Layer 2"><g id="Layer_1-2" data-name="Layer 1"><path class="cls-1" d="M44.011,0C25.64,0,20.272,0,19.227.109a21.812,21.812,0,0,0-8.675,2.176A17.6,17.6,0,0,0,5.5,5.988a18.876,18.876,0,0,0-5.1,10.7C.1,18.745.017,19.164,0,29.676V43.971C0,62.343,0,67.694.109,68.733a22.111,22.111,0,0,0,2.1,8.5,18.518,18.518,0,0,0,12.016,9.812,30.853,30.853,0,0,0,6.4.85c1.085.046,12.2.08,23.3.08s22.229,0,23.291-.069a29.915,29.915,0,0,0,6.62-.867,18.416,18.416,0,0,0,12.01-9.834,21.646,21.646,0,0,0,2.073-8.336c.063-.758.086-12.843.086-24.911s0-24.113-.086-24.894A21.523,21.523,0,0,0,85.8,10.65a17.493,17.493,0,0,0-3.772-5.167A18.973,18.973,0,0,0,71.316.408C69.255.109,68.842.023,58.33,0Z"/><path class="cls-2" d="M44.011,0C25.64,0,20.272,0,19.227.109a21.812,21.812,0,0,0-8.675,2.176A17.6,17.6,0,0,0,5.5,5.988a18.876,18.876,0,0,0-5.1,10.7C.1,18.745.017,19.164,0,29.676V43.971C0,62.343,0,67.694.109,68.733a22.111,22.111,0,0,0,2.1,8.5,18.518,18.518,0,0,0,12.016,9.812,30.853,30.853,0,0,0,6.4.85c1.085.046,12.2.08,23.3.08s22.229,0,23.291-.069a29.915,29.915,0,0,0,6.62-.867,18.416,18.416,0,0,0,12.01-9.834,21.646,21.646,0,0,0,2.073-8.336c.063-.758.086-12.843.086-24.911s0-24.113-.086-24.894A21.523,21.523,0,0,0,85.8,10.65a17.493,17.493,0,0,0-3.772-5.167A18.973,18.973,0,0,0,71.316.408C69.255.109,68.842.023,58.33,0Z"/><path class="cls-3" d="M43.989,11.505c-8.819,0-9.927.04-13.395.2a23.913,23.913,0,0,0-7.882,1.5,16.649,16.649,0,0,0-9.507,9.5A23.761,23.761,0,0,0,11.7,30.6c-.155,3.445-.2,4.593-.2,13.394s.041,9.927.2,13.389a23.767,23.767,0,0,0,1.51,7.888,16.606,16.606,0,0,0,9.5,9.5A23.914,23.914,0,0,0,30.594,76.3c3.445.155,4.593.2,13.395.2s9.926-.058,13.371-.2a23.929,23.929,0,0,0,7.888-1.51,16.65,16.65,0,0,0,9.5-9.5,24.029,24.029,0,0,0,1.556-7.9c.155-3.445.2-4.593.2-13.389s-.041-9.932-.2-13.394a24.032,24.032,0,0,0-1.51-7.888,16.65,16.65,0,0,0-9.5-9.5,24.01,24.01,0,0,0-7.934-1.5c-3.445-.161-4.593-.2-13.389-.2Zm-2.911,5.856h2.911c8.674,0,9.7.029,13.129.19a18.035,18.035,0,0,1,6.029,1.113,10.779,10.779,0,0,1,6.166,6.166,18.037,18.037,0,0,1,1.148,6.034c.155,3.445.189,4.45.189,13.119s-.034,9.7-.189,13.124a18.037,18.037,0,0,1-1.148,6.034,10.746,10.746,0,0,1-6.166,6.16,17.828,17.828,0,0,1-6.029,1.148c-3.444.155-4.455.19-13.129.19s-9.7-.035-13.125-.19A18.193,18.193,0,0,1,24.83,69.3a10.779,10.779,0,0,1-6.166-6.166,18,18,0,0,1-1.148-6.028c-.155-3.445-.184-4.455-.184-13.13s.029-9.7.184-13.124a18,18,0,0,1,1.148-6.028,10.731,10.731,0,0,1,6.166-6.166,18.014,18.014,0,0,1,6.034-1.149c3-.132,4.157-.172,10.214-.178Zm20.254,5.4a3.9,3.9,0,1,0,3.9,3.9V26.65a3.893,3.893,0,0,0-3.893-3.892ZM43.989,27.311A16.684,16.684,0,1,0,60.672,43.994h0A16.683,16.683,0,0,0,43.989,27.311Zm0,5.855a10.822,10.822,0,1,1-.012,0Z"/></g></g></svg>