<svg xmlns="http://www.w3.org/2000/svg" width="72" height="71" viewBox="0 0 72 71">
  <g id="Group_7921" data-name="Group 7921" transform="translate(-696 -269)">
    <rect id="Rectangle_2679" data-name="Rectangle 2679" width="72" height="71" rx="10" transform="translate(696 269)" fill="#8549a7"/>
    <g id="Group_7278" data-name="Group 7278" transform="translate(3021 663)">
      <path id="Subtraction_1" data-name="Subtraction 1" d="M24.346,24.249h0c-.928-.59-2.027-1.29-3.147-2l-1.419-.909c-1.239-.794-2.52-1.615-3.789-2.407a1.852,1.852,0,0,0-.92-.273c-2.39-.012-4.756-.012-7.044-.012H7.765c-1.345,0-2.735,0-4.1,0a3.874,3.874,0,0,1-2.3-.688A3.273,3.273,0,0,1,.126,16.066a4.153,4.153,0,0,1-.116-.987C0,11.264,0,7.394.008,3.577a3.677,3.677,0,0,1,.748-2.3,3.351,3.351,0,0,1,2-1.2A4.575,4.575,0,0,1,3.511.019l.144,0H4.829c1.743,0,3.514,0,5.227,0h.083c1.723,0,3.5,0,5.257,0C19.285.028,22.275.02,25.091,0h.03a3.688,3.688,0,0,1,2.661,1.066A3.662,3.662,0,0,1,28.8,3.723c-.06,4.072-.059,7.71,0,11.122a3.844,3.844,0,0,1-1.046,2.8,3.308,3.308,0,0,1-2.381.991c-.082,0-.166,0-.249-.009h-.069c-.236,0-.475.011-.711.034v5.586ZM14.522,2.064c-.077.141-.151.268-.216.38a5.265,5.265,0,0,0-.321.609c-.5,1.2-.981,2.407-1.387,3.431A.719.719,0,0,1,11.935,7c-1.106.09-1.951.171-2.742.263-.4.047-.813.116-1.208.184-.177.03-.36.061-.541.09L7.4,7.743a8.83,8.83,0,0,0,.646.736c.793.73,1.611,1.461,2.4,2.168l.28.25a.786.786,0,0,1,.271.844c-.266,1.165-.519,2.352-.753,3.527a5.863,5.863,0,0,0-.081.767c-.01.15-.02.305-.035.48.146-.066.279-.122.4-.171a4.179,4.179,0,0,0,.587-.281l.284-.176h0c.794-.491,1.615-1,2.391-1.543a1.253,1.253,0,0,1,1.63-.014c.732.507,1.511.973,2.264,1.424l0,0,.431.259a4.541,4.541,0,0,0,.59.279c.118.05.252.106.4.172-.015-.167-.025-.315-.035-.458a5.158,5.158,0,0,0-.082-.735c-.248-1.159-.518-2.311-.78-3.424a1.015,1.015,0,0,1,.331-1.1c.931-.82,1.841-1.676,2.622-2.414a3.9,3.9,0,0,0,.412-.488c.071-.093.144-.189.227-.292-.1-.033-.194-.067-.274-.1a1.69,1.69,0,0,0-.4-.115l-.08-.008c-1.212-.126-2.466-.256-3.7-.347a.911.911,0,0,1-.877-.65c-.454-1.129-.926-2.264-1.4-3.373a3.889,3.889,0,0,0-.319-.554C14.675,2.309,14.6,2.193,14.522,2.064Z" transform="translate(-2299.134 -372.967)" fill="#fff"/>
      <path id="Path_6661" data-name="Path 6661" d="M30.847,55.46q-5.42.025-10.841,0a6.778,6.778,0,0,1-1.506-.148,5.377,5.377,0,0,1-4.229-5.331c-.016-2.328,0-4.657,0-7.059h0c-.861,0-1.665-.01-2.47,0A3.391,3.391,0,0,0,8.371,46.28v.1q-.016,4.85,0,9.7a3.349,3.349,0,0,0,3.266,3.43h.113c.327.008.654,0,1.049,0v5.812c.221-.168.36-.271.493-.378,2.132-1.7,4.257-3.405,6.4-5.085a1.568,1.568,0,0,1,.89-.312c2.742-.025,5.484-.007,8.226-.016a3.408,3.408,0,0,0,3.576-2.94c.02-.131.027-.354-.042-.395C31.866,55.912,31.489,55.457,30.847,55.46Z" transform="translate(-2315.327 -407.766)" fill="#fff"/>
      <path id="Path_6662" data-name="Path 6662" d="M40.871,7.362a5.372,5.372,0,0,0-5.518-5.59q-10.886-.036-21.772,0A5.4,5.4,0,0,0,8.359,5.405,9.513,9.513,0,0,0,8.05,8.649c0,.4,0,.809,0,1.254-.958,0-1.844-.021-2.728,0A5.323,5.323,0,0,0,.155,15.049C.1,18.486.091,21.926.16,25.363a5.076,5.076,0,0,0,3.046,4.628c.418.209.873.339,1.355.522v8.014l.51-.4q4.581-3.669,9.185-7.308a1.333,1.333,0,0,1,.763-.264c2.551-.019,5.1-.009,7.653-.013a5.239,5.239,0,0,0,4.292-1.973A16.739,16.739,0,0,0,28.2,26.48l8.265,5.274V24.4h0a2.632,2.632,0,0,1,.247-.1,5.381,5.381,0,0,0,4.158-5.527C40.878,14.968,40.884,11.165,40.871,7.362ZM35.2,22.417a7.431,7.431,0,0,0-.781.034v5.586c-1.1-.7-2.123-1.35-3.147-2-1.734-1.108-3.462-2.227-5.208-3.316a1.848,1.848,0,0,0-.92-.273c-3.8-.018-7.6-.008-11.407-.014A3.4,3.4,0,0,1,10.2,19.855a4.144,4.144,0,0,1-.116-.987q-.018-5.751,0-11.5a3.387,3.387,0,0,1,2.748-3.5,4.547,4.547,0,0,1,.9-.061c7.145,0,14.291.028,21.436-.021a3.567,3.567,0,0,1,3.708,3.723c-.055,3.706-.065,7.415,0,11.122A3.493,3.493,0,0,1,35.2,22.417Zm-9.03,3.157a3.408,3.408,0,0,1-3.576,2.94c-2.742.009-5.484-.008-8.226.016a1.567,1.567,0,0,0-.89.312c-2.146,1.68-4.27,3.387-6.4,5.085-.133.107-.273.21-.493.378V28.495c-.395,0-.722.008-1.049,0H5.422a3.349,3.349,0,0,1-3.266-3.431q-.016-4.849,0-9.7v-.1a3.391,3.391,0,0,1,3.428-3.354c.8-.012,1.609,0,2.47,0h0c0,2.4-.013,4.731,0,7.059A5.377,5.377,0,0,0,12.283,24.3a6.778,6.778,0,0,0,1.506.148q5.421.023,10.841,0c.641,0,1.019.452,1.5.732.069.04.062.264.042.395Z" transform="translate(-2309.111 -376.754)" fill="none"/>
    </g>
  </g>
</svg>
