<svg xmlns="http://www.w3.org/2000/svg" width="88" height="88" viewBox="0 0 88 88">
  <g id="Group_6564" data-name="Group 6564" transform="translate(3613 9322)">
    <rect id="Rectangle_304" data-name="Rectangle 304" width="88" height="88" rx="12" transform="translate(-3613 -9322)" fill="#e60023"/>
    <path id="pinterest" d="M-296.746-226.936c-13.347,0-20.435,8.96-20.435,18.716,0,4.536,2.415,10.184,6.278,11.982.586.273.9.153,1.034-.414.1-.43.624-2.531.859-3.508a.924.924,0,0,0-.214-.887,12.03,12.03,0,0,1-2.3-7.058c0-6.821,5.165-13.422,13.965-13.422,7.6,0,12.919,5.178,12.919,12.583,0,8.366-4.225,14.163-9.722,14.163a4.49,4.49,0,0,1-4.58-5.589c.872-3.677,2.561-7.644,2.561-10.3,0-2.375-1.275-4.357-3.913-4.357-3.1,0-5.6,3.211-5.6,7.511a11.166,11.166,0,0,0,.925,4.592s-3.065,12.959-3.627,15.373a29.724,29.724,0,0,0-.107,8.881q1.039.407,2.115.737a34.56,34.56,0,0,0,3.842-8.105c.376-1.447,1.927-7.352,1.927-7.352,1.009,1.923,3.955,3.551,7.089,3.551,9.328,0,16.049-8.578,16.049-19.237C-277.679-219.291-286.017-226.936-296.746-226.936Z" transform="translate(-3271.819 -9074.064)" fill="#fff"/>
  </g>
</svg>
