<svg xmlns="http://www.w3.org/2000/svg" width="88" height="88" viewBox="0 0 88 88">
  <g id="Group_6555" data-name="Group 6555" transform="translate(3285 9520)">
    <rect id="Rectangle_312" data-name="Rectangle 312" width="88" height="88" rx="12" transform="translate(-3285 -9520)" fill="#fc4000"/>
    <path id="soundcloud" d="M56.413,178.632,56,181.659l.413,3.028a.206.206,0,0,0,.413,0l.413-3.028-.413-3.028C56.826,178.219,56.413,178.219,56.413,178.632ZM58.89,176.7c0-.413-.413-.413-.413,0l-.688,4.955.551,4.817a.277.277,0,1,0,.551,0l.551-4.817Zm8.12-4.129-.413,9.084.275,5.505c0,1.1.963,1.1.963,0l.551-5.505-.551-9.084C67.836,171.888,67.011,171.888,67.011,172.576ZM62.744,175.6l-.551,6.056.413,5.505c0,.826.688.826.688,0l.551-5.505-.551-6.056A.277.277,0,1,0,62.744,175.6Zm9.634,11.561.413-5.505-.413-12.112c0-.826-.963-.826-.963,0L71,181.659l.275,5.505C71.277,188.266,72.378,188.266,72.378,187.165Zm9.359,0,.275-5.505-.275-14.039a.689.689,0,1,0-1.376,0l-.275,14.039.275,5.505C80.361,188.266,81.737,188.266,81.737,187.165Zm-4.68,0,.413-5.505-.413-12.249a.619.619,0,1,0-1.239,0l-.275,12.249.275,5.505C75.819,188.266,77.058,188.266,77.058,187.165Zm-11.424,0,.413-5.505-.413-5.643c0-.413-.826-.413-.826,0l-.413,5.643.413,5.505C64.809,188.128,65.634,188.128,65.634,187.165Zm-4.542,0,.551-5.505-.551-5.918a.277.277,0,1,0-.551,0l-.551,5.918.551,5.505C60.542,187.715,61.092,187.715,61.092,187.165Zm17.067-17.2-.275,11.7.138,5.505c0,1.1,1.376,1.1,1.376,0l.275-5.505-.275-11.7A.627.627,0,1,0,78.159,169.961Zm-7.983,17.2.413-5.505-.413-11.148c0-.826-.963-.826-.963,0L68.8,181.659l.275,5.505C69.075,188.266,70.176,188.266,70.176,187.165Zm4.542,0,.413-5.505-.413-12.525a.554.554,0,1,0-1.1,0L73.2,181.659l.413,5.505C73.617,188.266,74.718,188.266,74.718,187.165Zm26.976-12.249a11.966,11.966,0,0,0-16.241-10.047c-.551.275-.688.413-.688.826v21.471a.771.771,0,0,0,.688.826h18.856a6.755,6.755,0,0,0,6.744-6.744C111.053,176.154,106.236,173.4,101.694,174.915ZM82.7,166.382l-.413,15.277.413,5.505c0,1.1,1.376,1.1,1.376,0l.413-5.505-.413-15.277A.689.689,0,1,0,82.7,166.382Z" transform="translate(-3324.805 -9652.269)" fill="#fff"/>
  </g>
</svg>
