<svg xmlns="http://www.w3.org/2000/svg" width="36" height="36" viewBox="0 0 36 36">
  <g id="icons8-tiktok_1_" data-name="icons8-tiktok (1)" transform="translate(-6 -6)">
    <path id="Path_1" data-name="Path 1" d="M10.9,6H37.1A4.9,4.9,0,0,1,42,10.9V37.1A4.9,4.9,0,0,1,37.1,42H10.9A4.9,4.9,0,0,1,6,37.1V10.9A4.9,4.9,0,0,1,10.9,6Z" fill-rule="evenodd"/>
    <path id="Path_2" data-name="Path 2" d="M29.208,20.607A9.587,9.587,0,0,0,34.8,22.4V18.384a5.646,5.646,0,0,1-1.174-.123v3.157a9.6,9.6,0,0,1-5.592-1.788v8.184a7.419,7.419,0,0,1-11.546,6.159,7.418,7.418,0,0,0,12.72-5.183V20.607Zm1.449-4.046a5.594,5.594,0,0,1-1.449-3.273v-.516H28.095a5.616,5.616,0,0,0,2.562,3.789ZM19.079,30.832a3.393,3.393,0,0,1,3.73-5.285v-4.1a7.552,7.552,0,0,0-1.174-.068V24.57a3.392,3.392,0,0,0-2.556,6.262Z" fill="#ec407a" fill-rule="evenodd"/>
    <path id="Path_3" data-name="Path 3" d="M28.034,19.63a9.587,9.587,0,0,0,5.592,1.788V18.261a5.619,5.619,0,0,1-2.969-1.7A5.613,5.613,0,0,1,28.1,12.772H25.173V28.79a3.394,3.394,0,0,1-6.094,2.041,3.392,3.392,0,0,1,2.557-6.261V21.38A7.412,7.412,0,0,0,16.49,33.974a7.419,7.419,0,0,0,11.546-6.159l0-8.185Z" fill="#fff" fill-rule="evenodd"/>
    <path id="Path_4" data-name="Path 4" d="M33.626,18.262v-.854a5.586,5.586,0,0,1-2.969-.848A5.6,5.6,0,0,0,33.626,18.262Zm-5.531-5.49c-.027-.153-.047-.306-.061-.461V11.8H24V27.814a3.394,3.394,0,0,1-4.919,3.017,3.394,3.394,0,0,0,6.094-2.041V12.772Zm-6.46,8.608v-.909a7.526,7.526,0,0,0-1.018-.069,7.413,7.413,0,0,0-4.129,13.572A7.412,7.412,0,0,1,21.635,21.38Z" fill="#81d4fa" fill-rule="evenodd"/>
  </g>
</svg>
