<svg xmlns="http://www.w3.org/2000/svg" width="88" height="88" viewBox="0 0 88 88">
  <g id="Group_6548" data-name="Group 6548" transform="translate(3292 9645)">
    <rect id="Rectangle_310" data-name="Rectangle 310" width="88" height="88" rx="12" transform="translate(-3292 -9645)" fill="#36465d"/>
    <path id="Path_971" data-name="Path 971" d="M822.768,477.529a11.933,11.933,0,0,0,.606,4.313,7.642,7.642,0,0,0,2.125,2.8,10.093,10.093,0,0,0,3.708,2.008,14.988,14.988,0,0,0,4.919.7,22.637,22.637,0,0,0,4.61-.5,23,23,0,0,0,4.716-1.71v-6.374a11.345,11.345,0,0,1-6.119,2.008,6.277,6.277,0,0,1-3.113-.807,3.123,3.123,0,0,1-1.4-1.6,18.623,18.623,0,0,1-.4-4.515V463.379h9.73v-6.374h-9.73V446.68h-5.832a17.316,17.316,0,0,1-1.4,5.216,11.687,11.687,0,0,1-2.709,3.506,10.709,10.709,0,0,1-4.111,2.21v5.811h4.5v14.15Z" transform="translate(-4079.36 -10067.68)" fill="#fff"/>
  </g>
</svg>
