<svg xmlns="http://www.w3.org/2000/svg" width="88" height="88" viewBox="0 0 88 88">
  <g id="Group_6543" data-name="Group 6543" transform="translate(3632 9746)">
    <rect id="Rectangle_303" data-name="Rectangle 303" width="88" height="88" rx="12" transform="translate(-3632 -9746)" fill="#29a9e1"/>
    <path id="Path_957" data-name="Path 957" d="M371.49,336.39a28.249,28.249,0,0,0,15.067,4.407c18.394,0,28.728-15.494,28.1-29.356a19.223,19.223,0,0,0,4.909-5.16,20.882,20.882,0,0,1-5.675,1.507,9.631,9.631,0,0,0,4.294-5.424,17.993,17.993,0,0,1-6.278,2.4,10.045,10.045,0,0,0-7.182-3.151,9.781,9.781,0,0,0-9.58,12.1,27.961,27.961,0,0,1-20.378-10.359,9.869,9.869,0,0,0,3.026,13.221,9.492,9.492,0,0,1-4.545-1.256,9.957,9.957,0,0,0,7.948,9.831,8.788,8.788,0,0,1-4.419.126,9.781,9.781,0,0,0,9.166,6.83A18.834,18.834,0,0,1,371.49,336.39Z" transform="translate(-3983.49 -10023.609)" fill="#fff"/>
  </g>
</svg>
