<svg xmlns="http://www.w3.org/2000/svg" width="88" height="88" viewBox="0 0 88 88">
  <g id="Group_6547" data-name="Group 6547" transform="translate(3404 9645)">
    <rect id="Rectangle_308" data-name="Rectangle 308" width="88" height="88" rx="12" transform="translate(-3404 -9645)" fill="#1eb8eb"/>
    <path id="Path_970" data-name="Path 970" d="M699.514,449.18c-5.62-.2-9.561,3.006-11.536,9.624a8.2,8.2,0,0,1,3.017-.7c2.125,0,3.006,1.2,2.7,3.505-.1,1.4-1,3.516-2.7,6.119s-3.017,4.015-3.814,4.015c-1.062,0-2.125-2.125-3.006-6.225-.308-1.2-.9-4.3-1.6-9.316-.7-4.621-2.709-6.82-5.821-6.523-1.3.106-3.41,1.307-6.013,3.707-1.9,1.806-3.909,3.516-5.917,5.311l1.912,2.507a11,11,0,0,1,3.187-1.912c1.4,0,2.7,2.209,3.909,6.618q1.636,6.023,3.3,12.036,2.411,6.618,6.013,6.618,5.72,0,14.043-10.835c5.312-6.916,8.116-12.333,8.318-16.338C705.729,451.985,703.721,449.276,699.514,449.18Z" transform="translate(-4044.82 -10068.172)" fill="#fff"/>
  </g>
</svg>
