<svg xmlns="http://www.w3.org/2000/svg" width="88" height="88" viewBox="0 0 88 88">
  <g id="Group_6547" data-name="Group 6547" transform="translate(3404 9645)">
    <rect id="Rectangle_308" data-name="Rectangle 308" width="88" height="88" rx="12" transform="translate(-3404 -9645)" fill="#07f"/>
    <path id="iconmonstr-vk-1" d="M31.238,38.212a1.9,1.9,0,0,0,2.02-2.172c-.074-4.55,1.695-7,4.887-3.807,3.532,3.532,4.262,5.978,8.551,5.978H54.29c1.918,0,2.672-.617,2.672-1.585,0-2.048-3.372-5.663-6.23-8.316-4-3.714-4.189-3.8-.743-8.274,4.274-5.551,9.866-12.664,4.92-12.664H45.461c-1.832,0-1.965,1.032-2.618,2.57-2.361,5.57-6.85,12.785-8.553,11.681-1.782-1.151-.966-5.71-.831-12.486.036-1.789.026-3.016-2.708-3.653A19.152,19.152,0,0,0,26.458,5c-5.4,0-9.116,2.262-7,2.656,3.728.7,3.37,8.762,2.5,12.247-1.514,6.066-7.206-4.8-9.576-10.217-.572-1.3-.747-2.312-2.789-2.312H1.868C.7,7.373,0,7.753,0,8.6c0,1.429,7.025,15.949,13.732,23.187,6.541,7.061,13.006,6.427,17.506,6.427Z" transform="translate(-3388 -9623)" fill="#fff"/>
  </g>
</svg>
