<svg xmlns="http://www.w3.org/2000/svg" width="88" height="88" viewBox="0 0 88 88">
  <g id="Group_6562" data-name="Group 6562" transform="translate(3305 9353)">
    <rect id="Rectangle_310" data-name="Rectangle 310" width="88" height="88" rx="12" transform="translate(-3305 -9353)" fill="#20252d"/>
    <g id="Workplace" transform="translate(-3282.941 -9331.893)">
      <g id="OBJECTS" transform="translate(-0.001 0.01)">
        <path id="Path_5672" data-name="Path 5672" d="M43.265,22.529C41.522,34.9,35.436,34.68,35.436,34.68s-3.419.811-5.845-7.111L27.97,23.43s-1.279,3.288-1.712,4.384c-.4,1.008-2.192,9.95-8.368,5.869-1.52-1-2.283-3.756-3.9-7.577-2.115-4.965-4.115-10.417-4.115-10.417h6.211L20.4,26.219s1.279-3.069,1.644-4.115c3.447-10.015,8.372-7.617,10.279-3.92a50.03,50.03,0,0,1,1.9,4.806c.778,2.093,1.575,4.13,1.575,4.13a14.105,14.105,0,0,0,1.536-4.13c.5-1.763.446-6.806-1.266-9.776C33.582,8.9,26.434,2.547,15.023,7.748c0,0-15.5,8.435-5.96,25.041,0,0,6.037,10.229,19,6.662V45.57C11.222,48.212,1.8,35.681.421,27.929c-1.14-6.419-.7-17.581,10.8-24.541,15.1-9.133,34.564,1.26,32.043,19.141" transform="translate(0.001 -0.01)" fill="#fff"/>
      </g>
    </g>
  </g>
</svg>
