<svg xmlns="http://www.w3.org/2000/svg" width="88" height="88" viewBox="0 0 88 88">
  <g id="Group_6561" data-name="Group 6561" transform="translate(3133 9415)">
    <rect id="Rectangle_2455" data-name="Rectangle 2455" width="88" height="88" rx="12" transform="translate(-3133 -9415)" fill="#0078d4"/>
    <g id="Group_6560" data-name="Group 6560" transform="translate(2.125 2.153)">
      <g id="Group_6538" data-name="Group 6538" transform="translate(-3098.803 -9369.771)">
        <path id="Path_1021" data-name="Path 1021" d="M33.192,51.079a2.117,2.117,0,0,1-1.377-.574L17.244,35.934a1.388,1.388,0,0,1,0-1.836,15.215,15.215,0,0,0,3.442-6.425L20.8,27.1l23.061,6.31-.115.574a39.151,39.151,0,0,1-9.179,16.521A2.117,2.117,0,0,1,33.192,51.079ZM21.6,28.592a17.256,17.256,0,0,1-3.557,6.31v.344L32.5,49.7a.9.9,0,0,0,1.262,0,37.726,37.726,0,0,0,8.72-15.489Z" transform="translate(-16.9 -27.1)" fill="#fff"/>
      </g>
      <path id="Back_Plate_1_" d="M2.595,12.3H25.2a2.3,2.3,0,0,1,2.295,2.295V37.426A2.3,2.3,0,0,1,25.2,39.721H2.595A2.3,2.3,0,0,1,.3,37.426V14.595A2.379,2.379,0,0,1,2.595,12.3Z" transform="translate(-3118.149 -9399.052)" fill="#fff"/>
      <path id="Path_6628" data-name="Path 6628" d="M12.622,24.058a3.646,3.646,0,0,1,.344,1.033h0l.344-1.033,3.557-6.54a1.592,1.592,0,0,1,1.377-.8h0a1.519,1.519,0,0,1,1.492,1.492,2.127,2.127,0,0,1-.229.8l-4.589,8.375a1.658,1.658,0,0,0-.229.8v4.13A1.519,1.519,0,0,1,13.2,33.81h-.344a1.519,1.519,0,0,1-1.492-1.492h0v-4.13a2.127,2.127,0,0,0-.229-.8l-4.7-8.49A1.5,1.5,0,0,1,7,16.829a1.658,1.658,0,0,1,.8-.229h.229a1.592,1.592,0,0,1,1.377.8Z" transform="translate(-3117.277 -9398.418)" fill="#0078d4"/>
      <g id="Group_6540" data-name="Group 6540" transform="translate(-3095.132 -9385.076)">
        <path id="Path_1023" data-name="Path 1023" d="M50.275,15.3h0a1.776,1.776,0,0,0-.918-1.262,2.294,2.294,0,0,0-1.492-.229L20.1,21.149l.115.574a18.121,18.121,0,0,1,.115,7.458l1.147.344a16.373,16.373,0,0,0,0-7.458l26.733-7.113a.855.855,0,0,1,1.033.574,43.871,43.871,0,0,1-.115,20.422c-.151.34-.13.286-.344.459a1.455,1.455,0,0,1-.688.115l-5.914-1.451.407.189.248.287v.975l5.029,1.262a2,2,0,0,0,1.629-.187,1.709,1.709,0,0,0,.781-1.19A48.535,48.535,0,0,0,50.275,15.3Z" transform="translate(-20.1 -13.761)" fill="#fff"/>
      </g>
      <g id="Group_6539" data-name="Group 6539" transform="translate(-3098.922 -9400.549)">
        <path id="Path_1024" data-name="Path 1024" d="M20.7,23.824l-.115-.574,1.033-.229a18.687,18.687,0,0,0-3.671-6.31h0V16.6L32.519,1.8a.9.9,0,0,1,1.262,0A39.511,39.511,0,0,1,42.5,17.4l1.033-.344A38.929,38.929,0,0,0,34.469.877a2.009,2.009,0,0,0-2.868,0l-14.456,14.8-.229.229a1.22,1.22,0,0,0,.229,1.377,18.847,18.847,0,0,1,3.557,6.54Z" transform="translate(-16.796 -0.275)" fill="#fff"/>
      </g>
    </g>
  </g>
</svg>
