<svg xmlns="http://www.w3.org/2000/svg" xmlns:xlink="http://www.w3.org/1999/xlink" width="88" height="88" viewBox="0 0 88 88">
  <defs>
    <clipPath id="clip-path">
      <path id="Path_939" data-name="Path 939" d="M393.485,441.82h.1a26.518,26.518,0,0,1,26.529,26.507v.1a26.518,26.518,0,0,1-26.529,26.507h-.1A26.518,26.518,0,0,1,367,468.427v-.1a26.518,26.518,0,0,1,26.485-26.507Z" transform="translate(-367 -441.82)" fill="none"/>
    </clipPath>
  </defs>
  <g id="Group_6563" data-name="Group 6563" transform="translate(3632 9645)">
    <rect id="Rectangle_304" data-name="Rectangle 304" width="88" height="88" rx="12" transform="translate(-3632 -9645)" fill="#e00707"/>
    <g id="g14" transform="translate(-3615 -9628)">
      <g id="Group_216" data-name="Group 216" transform="translate(0 0)" clip-path="url(#clip-path)">
        <g id="g16" transform="translate(10.328 5.276)">
          <g id="g22" transform="translate(3.543 0)">
            <path id="path24" d="M392.416,465.393a1.7,1.7,0,0,1-1.31,1.521,1.588,1.588,0,0,1-1.244-.211,3.809,3.809,0,0,1-1.222-1.266l-8.884-14.048a1.388,1.388,0,0,1,.311-1.943,7.162,7.162,0,0,1,1.377-.822,25.943,25.943,0,0,1,7.218-2,5.062,5.062,0,0,1,1.477,0,1.555,1.555,0,0,1,1.377,1.677c.1,1.877.255,3.764.389,5.652l.266,4.076c.111,1.566.211,3.132.311,4.7a22.456,22.456,0,0,1,0,2.665" transform="translate(-379.491 -446.571)" fill="#fff"/>
          </g>
          <g id="g26" transform="translate(19.311 12.54)">
            <path id="path28" d="M393.69,467.254a3.981,3.981,0,0,1,.389-.888c1.9-2.6,3.82-5.175,5.719-7.773a1.588,1.588,0,0,1,2.421-.3,10.084,10.084,0,0,1,1.955,2.11,17.049,17.049,0,0,1,2.277,3.92,3.576,3.576,0,0,1,.222.766,1.477,1.477,0,0,1-1.11,1.821c-1.111.311-2.31.6-3.465.888-1.91.477-3.831.922-5.741,1.41a2.01,2.01,0,0,1-2.576-1.932H393.7" transform="translate(-393.69 -457.864)" fill="#fff"/>
          </g>
          <g id="g30" transform="translate(0 19.714)">
            <path id="path32" d="M376.333,471.282a20.731,20.731,0,0,1,.444-5.108,4.444,4.444,0,0,1,.455-1.111,1.366,1.366,0,0,1,1.743-.633c1.621.622,3.243,1.277,4.864,1.932,1.41.566,2.8,1.166,4.209,1.721a1.988,1.988,0,0,1,.689,3.087,1.843,1.843,0,0,1-.7.466l-7.773,2.476-1.477.444a1.577,1.577,0,0,1-2.143-1.277c-.155-.655-.233-1.322-.344-1.988" transform="translate(-376.3 -464.324)" fill="#fff"/>
          </g>
          <g id="g34" transform="translate(19.877 27.505)">
            <path id="path36" d="M396.121,471.34a.82.82,0,0,1,.433.089l9.028,3,.156.056a1.588,1.588,0,0,1,.988,2.3,13.121,13.121,0,0,1-1.821,3,14.444,14.444,0,0,1-2.787,2.921,2.939,2.939,0,0,1-.777.422,1.366,1.366,0,0,1-1.721-.566c-.466-.689-.922-1.4-1.366-2.11-1.266-2.032-2.5-4.087-3.787-6.108a2.01,2.01,0,0,1,1.266-2.954h.389" transform="translate(-394.199 -471.34)" fill="#fff"/>
          </g>
          <g id="g38" transform="translate(6.478 29.463)">
            <path id="path40" d="M392.079,477.808v6.974a1.521,1.521,0,0,1-1.566,1.421,9.261,9.261,0,0,1-2.743-.489,16.19,16.19,0,0,1-4.586-2.043,2.924,2.924,0,0,1-.766-.755,1.266,1.266,0,0,1,0-1.6q1.111-1.333,2.166-2.632l4.142-4.886a1.976,1.976,0,0,1,3.331.522,2.059,2.059,0,0,1,.089.522v2.965h0" transform="translate(-382.134 -473.103)" fill="#fff"/>
          </g>
        </g>
      </g>
    </g>
  </g>
</svg>
