<svg xmlns="http://www.w3.org/2000/svg" width="88" height="88" viewBox="0 0 88 88">
  <g id="Group_6546" data-name="Group 6546" transform="translate(3518 9645)">
    <rect id="Rectangle_306" data-name="Rectangle 306" width="88" height="88" rx="12" transform="translate(-3518 -9645)" fill="#ff0000"/>
    <path id="Subtraction_4" data-name="Subtraction 4" d="M23.895,33.578c-.149,0-14.977-.012-18.667-1.008A6.018,6.018,0,0,1,1,28.338c-.984-3.7-1-11.471-1-11.549S.011,8.918,1,5.227A6.044,6.044,0,0,1,5.227,1C8.918.011,23.745,0,23.895,0S38.873.011,42.563,1a6.089,6.089,0,0,1,4.244,4.232c.946,3.7,1,11.483,1,11.562s-.011,7.859-1,11.549a6.076,6.076,0,0,1-4.244,4.232C38.873,33.566,24.044,33.578,23.895,33.578ZM19.128,9.72V23.933L31.6,16.789Z" transform="translate(-3498 -9618)" fill="#fff"/>
  </g>
</svg>
