<svg xmlns="http://www.w3.org/2000/svg" width="167" height="167" viewBox="0 0 167 167">
  <g id="Group_6574" data-name="Group 6574" transform="translate(8178 19543)">
    <rect id="Rectangle_2464" data-name="Rectangle 2464" width="167" height="167" transform="translate(-8178 -19543)" fill="none" opacity="0.707"/>
    <path id="airbnb" d="M174.188,119.4A33.414,33.414,0,0,0,171.72,107.6c-1.139-2.905-2.461-5.734-3.752-8.574q-15.411-33.585-32.336-66.444c-1.587-3.06-3.14-6.139-4.815-9.151a32.431,32.431,0,0,0-6.045-8.068A23.6,23.6,0,0,0,110.046,9h-2.51a23.5,23.5,0,0,0-15.12,6.559,32.75,32.75,0,0,0-5.843,7.882c-1.654,2.963-3.185,5.993-4.741,9Q70.477,54.485,59.794,76.861c-4.245,8.926-8.454,17.868-12.5,26.881a43.908,43.908,0,0,0-3.769,11.738,29.966,29.966,0,0,0,17.7,31.856,30.525,30.525,0,0,0,13.837,2.449,37.945,37.945,0,0,0,17.793-5.931c5.976-3.667,11.087-8.545,15.845-13.651A79.943,79.943,0,0,0,123.33,143.09a39.14,39.14,0,0,0,17.631,6.587,30.048,30.048,0,0,0,31.105-18.739,29.808,29.808,0,0,0,2.121-11.542Zm-65.456-2.67c-1.726-2.032-3.247-4.231-4.775-6.413a78.6,78.6,0,0,1-6.788-11.875,39,39,0,0,1-3.26-10.849,18.73,18.73,0,0,1,.829-8.944A13.181,13.181,0,0,1,100,72.157a16.306,16.306,0,0,1,18.974,1.18,13.787,13.787,0,0,1,4.565,8.9,28.671,28.671,0,0,1-2.077,13.2C118.5,103.211,113.8,110.184,108.732,116.726Zm55.882,9.532a21.161,21.161,0,0,1-9.967,12.49,21.756,21.756,0,0,1-14.089,2.387c-6.091-.948-11.557-4.18-16.292-8a86.469,86.469,0,0,1-9.617-9.288,110.778,110.778,0,0,0,12.617-19.125c2.977-6,5.239-12.511,5.454-19.262A25.324,25.324,0,0,0,130.033,73a22.873,22.873,0,0,0-12.7-10.9,25.983,25.983,0,0,0-15.743-.494A22.806,22.806,0,0,0,84.781,82.121c-.542,6.308,1.039,12.6,3.431,18.4,3.555,8.474,8.774,16.143,14.537,23.258a79.434,79.434,0,0,1-8.437,8.383c-4.679,3.96-10.032,7.407-16.1,8.718a22.085,22.085,0,0,1-14.69-1.722A21.119,21.119,0,0,1,52.69,125.909a21.789,21.789,0,0,1,.479-12.77c1.154-3.383,2.718-6.607,4.183-9.863Q72.6,70.052,89.325,37.539c1.663-3.225,3.3-6.465,5.06-9.637a21.644,21.644,0,0,1,5.469-6.859,14.609,14.609,0,0,1,18.124.341,25.255,25.255,0,0,1,5.734,7.786c3.446,6.472,6.755,13.02,10.066,19.56q14.173,28.051,27.231,56.645a68.564,68.564,0,0,1,3.608,9.023,21.684,21.684,0,0,1,0,11.86Z" transform="translate(-8203.192 -19538.998)" fill="#fc7977"/>
  </g>
</svg>
