<svg xmlns="http://www.w3.org/2000/svg" width="167" height="167" viewBox="0 0 167 167">
  <g id="Group_6576" data-name="Group 6576" transform="translate(7748 19543)">
    <rect id="Rectangle_2466" data-name="Rectangle 2466" width="167" height="167" transform="translate(-7748 -19543)" fill="none" opacity="0.707"/>
    <g id="Group_6556" data-name="Group 6556" transform="translate(-4533.04 -10184.568)">
      <path id="Path_6633" data-name="Path 6633" d="M11.04,9.48V133.251H26.519V9.48Z" transform="translate(-3197 -9348.514)" fill="#0f9" fillRule="evenodd"/>
      <path id="Path_6634" data-name="Path 6634" d="M26.7,14.7v92.814H42.12V14.7Z" transform="translate(-3119.787 -9322.779)" fill="#93f" fillRule="evenodd"/>
      <path id="Path_6635" data-name="Path 6635" d="M63.288,8.57H11.04V24.049H78.352V8.57Z" transform="translate(-3197 -9353.001)" fill="#fff35c" fillRule="evenodd"/>
      <path id="Path_6636" data-name="Path 6636" d="M18.87,24.049H42.059L34.349,8.57Z" transform="translate(-3158.394 -9353.001)" fillRule="evenodd" opacity="0.4"/>
      <path id="Path_6637" data-name="Path 6637" d="M42.12,22.8,26.7,15.09V38.279Z" transform="translate(-3119.787 -9320.858)" fillRule="evenodd" opacity="0.4"/>
      <path id="Path_6638" data-name="Path 6638" d="M103.913,29.44H11.04V44.919H119.332V29.44Z" transform="translate(-3197 -9250.102)" fill="#0cf" fillRule="evenodd"/>
      <path id="Path_6639" data-name="Path 6639" d="M52.438,39.528V24.049H36.959V8.57H21.48V54.947H67.857V39.528Z" transform="translate(-3145.525 -9353.001)" fill="#f66" fillRule="evenodd"/>
    </g>
  </g>
</svg>
