<svg id="instagram" xmlns="http://www.w3.org/2000/svg" xmlns:xlink="http://www.w3.org/1999/xlink" width="53.959" height="53.959" viewBox="0 0 53.959 53.959">
  <defs>
    <linearGradient id="linear-gradient" x1="-5.807" y1="6.806" x2="1.753" y2="-0.753" gradientUnits="objectBoundingBox">
      <stop offset="0" stop-color="#ffd521"/>
      <stop offset="0.05" stop-color="#ffd521"/>
      <stop offset="0.501" stop-color="#f50000"/>
      <stop offset="0.95" stop-color="#b900b4"/>
      <stop offset="1" stop-color="#b900b4"/>
    </linearGradient>
    <linearGradient id="linear-gradient-2" x1="0.009" y1="0.991" x2="0.917" y2="0.082" href="#linear-gradient"/>
    <linearGradient id="linear-gradient-3" x1="-0.456" y1="1.456" x2="1.313" y2="-0.313" href="#linear-gradient"/>
  </defs>
  <path id="Path_7" data-name="Path 7" d="M6.487-3.292a3.24,3.24,0,0,0-3.24-3.241A3.242,3.242,0,0,0,.005-3.292,3.24,3.24,0,0,0,3.247-.057a3.239,3.239,0,0,0,3.24-3.235" transform="translate(38.133 15.871)" fill="url(#linear-gradient)"/>
  <path id="Path_8" data-name="Path 8" d="M48.937-16.124a15.05,15.05,0,0,1-.925,5.009,8.334,8.334,0,0,1-2.025,3.1A8.243,8.243,0,0,1,42.889-6a15.005,15.005,0,0,1-5.015.937c-2.844.125-3.687.152-10.9.152s-8.055-.027-10.9-.152A14.956,14.956,0,0,1,11.069-6a8.252,8.252,0,0,1-3.1-2.013,8.224,8.224,0,0,1-2.02-3.1,14.874,14.874,0,0,1-.925-5.009c-.139-2.844-.164-3.7-.164-10.9s.025-8.061.164-10.905a14.973,14.973,0,0,1,.925-5.016,8.21,8.21,0,0,1,2.02-3.1,8.346,8.346,0,0,1,3.1-2.019,14.957,14.957,0,0,1,5.008-.932c2.844-.125,3.693-.157,10.9-.157s8.055.032,10.9.157a15.007,15.007,0,0,1,5.015.932,8.337,8.337,0,0,1,3.1,2.019,8.32,8.32,0,0,1,2.025,3.1,15.151,15.151,0,0,1,.925,5.016c.132,2.844.164,3.693.164,10.905s-.032,8.053-.164,10.9Zm4.857-22.024A19.608,19.608,0,0,0,52.536-44.7a13.149,13.149,0,0,0-3.108-4.783,13.265,13.265,0,0,0-4.776-3.109A19.666,19.666,0,0,0,38.1-53.84C35.225-53.979,34.307-54,26.976-54s-8.249.025-11.125.164A19.745,19.745,0,0,0,9.3-52.589,13.3,13.3,0,0,0,4.531-49.48,13.257,13.257,0,0,0,1.416-44.7,19.949,19.949,0,0,0,.157-38.148C.032-35.272,0-34.352,0-27.021S.032-18.779.157-15.9A20.033,20.033,0,0,0,1.416-9.352,13.233,13.233,0,0,0,4.531-4.576,13.3,13.3,0,0,0,9.3-1.461,19.916,19.916,0,0,0,15.851-.209c2.876.132,3.8.164,11.125.164S35.225-.077,38.1-.209a19.836,19.836,0,0,0,6.551-1.252,13.264,13.264,0,0,0,4.776-3.115,13.126,13.126,0,0,0,3.108-4.776A19.69,19.69,0,0,0,53.795-15.9c.132-2.876.164-3.795.164-11.119s-.032-8.251-.164-11.127Z" transform="translate(0 54.004)" fill="url(#linear-gradient-2)"/>
  <path id="Path_9" data-name="Path 9" d="M13.909-4.969a8.989,8.989,0,0,1-8.992-8.985,9,9,0,0,1,8.992-9,9,9,0,0,1,9,9,8.994,8.994,0,0,1-9,8.985Zm0-22.848A13.857,13.857,0,0,0,.06-13.955,13.849,13.849,0,0,0,13.909-.105,13.855,13.855,0,0,0,27.765-13.955,13.862,13.862,0,0,0,13.909-27.817Z" transform="translate(13.067 40.937)" fill="url(#linear-gradient-3)"/>
</svg>
