<svg xmlns="http://www.w3.org/2000/svg" width="165.283" height="149.09" viewBox="0 0 165.283 149.09">
  <g id="Group_6629" data-name="Group 6629" transform="translate(2309 375)">
    <path id="Subtraction_1" data-name="Subtraction 1" d="M98.7,98.312h0c-3.762-2.392-8.22-5.228-12.757-8.126-1.927-1.23-3.872-2.478-5.754-3.684-5.022-3.219-10.215-6.548-15.362-9.759a7.508,7.508,0,0,0-3.73-1.107c-9.69-.048-19.283-.048-28.559-.048H31.483c-5.451,0-11.088,0-16.631-.008a15.705,15.705,0,0,1-9.309-2.788A13.268,13.268,0,0,1,.509,65.137a16.838,16.838,0,0,1-.472-4C-.011,45.667-.012,29.977.032,14.5A14.909,14.909,0,0,1,3.067,5.19,13.586,13.586,0,0,1,11.175.332,18.549,18.549,0,0,1,14.233.077c.194,0,.39,0,.583.009h4.763c7.068,0,14.248.007,21.193.015h.336c6.985.007,14.207.014,21.315.014,15.764,0,27.885-.035,39.3-.114h.12A14.954,14.954,0,0,1,112.633,4.32a14.846,14.846,0,0,1,4.125,10.773c-.245,16.511-.241,31.26.013,45.09a15.586,15.586,0,0,1-4.24,11.361,13.41,13.41,0,0,1-9.653,4.016c-.333,0-.673-.012-1.009-.035h-.281c-.957,0-1.927.046-2.884.138V98.312ZM58.877,8.369c-.314.571-.613,1.086-.877,1.54a21.346,21.346,0,0,0-1.3,2.47c-2.022,4.862-3.977,9.759-5.622,13.909a2.915,2.915,0,0,1-2.687,2.083c-4.483.367-7.912.695-11.117,1.065-1.64.189-3.3.471-4.9.744-.718.122-1.46.249-2.193.366l-.18.847a35.8,35.8,0,0,0,2.617,2.983c3.215,2.961,6.531,5.924,9.738,8.789l1.135,1.014a3.187,3.187,0,0,1,1.1,3.424c-1.077,4.725-2.1,9.537-3.051,14.3a23.772,23.772,0,0,0-.329,3.111c-.039.609-.079,1.238-.142,1.946.592-.268,1.131-.5,1.606-.7a16.944,16.944,0,0,0,2.378-1.137l1.152-.712.006,0c3.219-1.99,6.548-4.047,9.695-6.255a5.081,5.081,0,0,1,6.608-.059c2.97,2.054,6.126,3.945,9.179,5.775l.011.007q.875.524,1.749,1.05a18.409,18.409,0,0,0,2.391,1.13c.479.2,1.021.428,1.62.7-.063-.676-.1-1.276-.141-1.855a20.91,20.91,0,0,0-.334-2.98c-1-4.7-2.1-9.368-3.162-13.881a4.114,4.114,0,0,1,1.34-4.462c3.773-3.324,7.466-6.794,10.631-9.786a15.824,15.824,0,0,0,1.671-1.979c.286-.377.583-.767.919-1.183-.418-.134-.786-.27-1.111-.39a6.851,6.851,0,0,0-1.637-.468l-.326-.034c-4.915-.51-10-1.036-15.006-1.405A3.7,3.7,0,0,1,66.748,25.7c-1.841-4.577-3.755-9.177-5.691-13.674a15.767,15.767,0,0,0-1.292-2.246C59.5,9.362,59.193,8.892,58.877,8.369Z" transform="translate(-2269 -366.757)" fill="#613983"/>
    <path id="Path_6661" data-name="Path 6661" d="M99.519,93.763q-21.975.1-43.952.006a27.479,27.479,0,0,1-6.107-.6A21.8,21.8,0,0,1,32.315,71.555c-.066-9.439-.013-18.882-.013-28.62h.007c-3.489,0-6.752-.039-10.014.008a13.748,13.748,0,0,0-13.9,13.6v.388q-.065,19.664,0,39.325a13.579,13.579,0,0,0,13.242,13.908h.458c1.325.033,2.652,0,4.252,0v23.564c.9-.683,1.459-1.1,2-1.534C36.99,125.308,45.6,118.389,54.3,111.576a6.355,6.355,0,0,1,3.607-1.264c11.116-.1,22.233-.03,33.349-.066,7.764-.025,13.415-4.7,14.5-11.919.08-.532.109-1.437-.171-1.6C103.652,95.594,102.123,93.751,99.519,93.763Z" transform="translate(-2309.111 -376.754)" fill="#613983"/>
    <path id="Path_6662" data-name="Path 6662" d="M165.363,24.49c-.044-13.1-9.273-22.607-22.373-22.663q-44.135-.145-88.27,0A21.879,21.879,0,0,0,33.552,16.555c-1.543,4.288-1.224,8.732-1.253,13.152-.009,1.64,0,3.279,0,5.084-3.884,0-7.475-.084-11.061.016C9.947,35.133.47,44.365.29,55.653.068,69.589.028,83.536.311,97.471c.175,8.617,4.649,14.892,12.349,18.765,1.694.849,3.541,1.375,5.494,2.116v32.492c.866-.681,1.466-1.148,2.066-1.623q18.573-14.875,37.237-29.627a5.406,5.406,0,0,1,3.093-1.069c10.342-.078,20.686-.038,31.029-.051,7.02-.01,13-2.5,17.4-8,2-2.494,3.31-5.532,5.021-8.474l33.509,21.384V93.576h0a10.674,10.674,0,0,1,1-.42c10.893-3.179,16.845-11.06,16.859-22.408C165.39,55.327,165.415,39.908,165.363,24.49ZM142.374,85.527a30.129,30.129,0,0,0-3.165.137v22.649c-4.446-2.827-8.606-5.475-12.759-8.127-7.032-4.491-14.036-9.027-21.115-13.442a7.492,7.492,0,0,0-3.73-1.107c-15.416-.075-30.832-.033-46.248-.056-7.324-.011-12.721-3.943-14.343-10.443a16.8,16.8,0,0,1-.471-4Q40.47,47.82,40.537,24.5c.02-7.327,4.357-12.792,11.143-14.174a18.435,18.435,0,0,1,3.642-.246c28.969-.013,57.94.114,86.908-.086,8.645-.06,15.164,6.281,15.033,15.093-.223,15.027-.263,30.064.013,45.09C157.446,79.474,150.734,86.1,142.374,85.527Zm-36.61,12.8c-1.085,7.219-6.736,11.894-14.5,11.919-11.116.036-22.233-.034-33.349.066a6.355,6.355,0,0,0-3.607,1.264c-8.7,6.813-17.313,13.732-25.956,20.618-.541.434-1.1.851-2,1.534V110.167c-1.6,0-2.927.033-4.252,0h-.458A13.579,13.579,0,0,1,8.4,96.256q-.065-19.66,0-39.325v-.388a13.748,13.748,0,0,1,13.9-13.6c3.262-.047,6.525-.008,10.014-.008H32.3c0,9.738-.053,19.181.013,28.62A21.8,21.8,0,0,0,49.46,93.169a27.479,27.479,0,0,0,6.107.6q21.977.094,43.952-.006c2.6-.012,4.133,1.831,6.074,2.967.28.163.251,1.07.171,1.6Z" transform="translate(-2309.111 -376.754)" fill="none"/>
  </g>
</svg>