<svg xmlns="http://www.w3.org/2000/svg" width="167" height="167" viewBox="0 0 167 167">
  <g id="Group_6573" data-name="Group 6573" transform="translate(8378 19543)">
    <rect id="Rectangle_2463" data-name="Rectangle 2463" width="167" height="167" transform="translate(-8378 -19543)" fill="none" opacity="0.707"/>
    <path id="pinterest" d="M-258.713-226.936c-38.187,0-58.468,25.635-58.468,53.549,0,12.978,6.91,29.137,17.961,34.281,1.677.78,2.574.436,2.96-1.183.293-1.23,1.786-7.241,2.458-10.036a2.645,2.645,0,0,0-.613-2.538C-298.072-157.3-301-165.452-301-173.058c0-19.516,14.778-38.4,39.957-38.4,21.738,0,36.962,14.814,36.962,36,0,23.938-12.089,40.521-27.817,40.521-8.687,0-15.189-7.183-13.1-15.99,2.495-10.52,7.329-21.871,7.329-29.463,0-6.8-3.647-12.465-11.2-12.465-8.88,0-16.012,9.186-16.012,21.491a31.947,31.947,0,0,0,2.647,13.138s-8.768,37.078-10.377,43.984c-1.779,7.642-1.08,18.408-.307,25.409q2.973,1.165,6.052,2.108c3.607-5.878,9-15.507,10.993-23.19,1.076-4.14,5.513-21.036,5.513-21.036,2.886,5.5,11.315,10.161,20.282,10.161,26.689,0,45.918-24.544,45.918-55.04C-204.161-205.062-228.016-226.936-258.713-226.936Z" transform="translate(-8033.819 -19303.064)" fill="#e60023"/>
  </g>
</svg>
