<svg xmlns="http://www.w3.org/2000/svg" width="167" height="167" viewBox="0 0 167 167">
  <g id="Group_6580" data-name="Group 6580" transform="translate(7136 19534)">
    <rect id="Rectangle_2469" data-name="Rectangle 2469" width="167" height="167" transform="translate(-7136 -19534)" fill="none" opacity="0.707"/>
    <g id="Group_246" data-name="Group 246" transform="translate(-7126 -19524.137)">
      <path id="Path_942" data-name="Path 942" d="M1108.247,596.091c-9.143,0-29.757-.208-29.757-.208v-4.447a110.1,110.1,0,0,0-22.65-64.461c-23.15-30.8-54.029-47.378-92.639-48.542a13.1,13.1,0,0,1-2.161-.332v-30.09a142.178,142.178,0,0,1,102.529,41.561c32.417,31.212,46.756,72.689,44.677,106.394" transform="translate(-960.841 -447.996)" fill="#f78422"/>
      <path id="Path_943" data-name="Path 943" d="M1028.93,557.254c-7.731-44.137-22.775-59.182-67.91-67.826V460.335c46.589-3.076,98.789,41.1,97.417,96.919Z" transform="translate(-960.904 -409.533)" fill="#f78422"/>
      <path id="Path_944" data-name="Path 944" d="M980.684,514.374a20.24,20.24,0,1,1,20.779-19.616,20.778,20.778,0,0,1-20.779,19.616" transform="translate(-960.992 -366.238)" fill="#f78422"/>
    </g>
  </g>
</svg>
