<svg xmlns="http://www.w3.org/2000/svg" width="167" height="167" viewBox="0 0 167 167">
  <g id="Group_6572" data-name="Group 6572" transform="translate(8578 19543)">
    <rect id="Rectangle_2462" data-name="Rectangle 2462" width="167" height="167" transform="translate(-8578 -19543)" fill="none" opacity="0.707"/>
    <g id="Group_6558" data-name="Group 6558" transform="translate(-5109.614 -10167.83)">
      <path id="Path_1012" data-name="Path 1012" d="M53.942,66.961A15.291,15.291,0,1,1,38.651,51.67H53.942Z" transform="translate(-3480.746 -9339.191)" fill="#e01e5a"/>
      <path id="Path_1013" data-name="Path 1013" d="M37.389,67.371a15.291,15.291,0,1,1,30.555,0V105.6a15.291,15.291,0,0,1-30.555,0Z" transform="translate(-3456.493 -9339.6)" fill="#e01e5a"/>
      <path id="Path_1014" data-name="Path 1014" d="M52.691,54.183A15.291,15.291,0,1,1,67.982,38.891V54.183Z" transform="translate(-3456.449 -9387.771)" fill="#36c5f0"/>
      <path id="Path_1015" data-name="Path 1015" d="M76.51,37.629a15.291,15.291,0,1,1,0,30.555H38.282a15.291,15.291,0,0,1,0-30.555Z" transform="translate(-3480.267 -9363.517)" fill="#36c5f0"/>
      <path id="Path_1016" data-name="Path 1016" d="M65.44,52.9A15.291,15.291,0,1,1,80.731,68.192H65.44Z" transform="translate(-3407.925 -9363.521)" fill="#2eb67d"/>
      <path id="Path_1017" data-name="Path 1017" d="M81.994,76.72a15.291,15.291,0,1,1-30.555,0V38.492a15.291,15.291,0,0,1,30.555,0Z" transform="translate(-3432.177 -9387.342)" fill="#2eb67d"/>
      <path id="Path_1018" data-name="Path 1018" d="M66.691,65.68A15.291,15.291,0,1,1,51.4,80.971V65.68Z" transform="translate(-3432.221 -9314.947)" fill="#ecb22e"/>
      <path id="Path_1019" data-name="Path 1019" d="M67.1,82.234a15.291,15.291,0,1,1,0-30.555h38.228a15.291,15.291,0,0,1,0,30.555Z" transform="translate(-3432.63 -9339.202)" fill="#ecb22e"/>
    </g>
  </g>
</svg>
