<svg xmlns="http://www.w3.org/2000/svg" width="167" height="167" viewBox="0 0 167 167">
  <g id="Group_6583" data-name="Group 6583" transform="translate(7461 20101)">
    <rect id="Rectangle_2457" data-name="Rectangle 2457" width="167" height="167" transform="translate(-7461 -20101)" fill="none" opacity="0.707"/>
    <path id="soundcloud" d="M57.187,205.975,56,214.681l1.187,8.706a.594.594,0,0,0,1.187,0l1.187-8.706-1.187-8.706C58.374,204.788,57.187,204.788,57.187,205.975Zm7.123-5.54c0-1.187-1.187-1.187-1.187,0l-1.979,14.246,1.583,13.85a.8.8,0,1,0,1.583,0l1.583-13.85Zm23.347-11.871L86.47,214.681l.791,15.828c0,3.166,2.77,3.166,2.77,0l1.583-15.828-1.583-26.117C90.031,186.585,87.657,186.585,87.657,188.564ZM75.39,197.269l-1.583,17.411,1.187,15.828c0,2.374,1.979,2.374,1.979,0l1.583-15.828-1.583-17.411A.8.8,0,1,0,75.39,197.269Zm27.7,33.24,1.187-15.828-1.187-34.823c0-2.374-2.77-2.374-2.77,0l-1.187,34.823.791,15.828C99.924,233.675,103.09,233.675,103.09,230.509Zm26.908,0,.791-15.828L130,174.318a1.981,1.981,0,1,0-3.957,0l-.791,40.363.791,15.828C126.041,233.675,130,233.675,130,230.509Zm-13.454,0,1.187-15.828-1.187-35.218a1.781,1.781,0,1,0-3.561,0l-.791,35.218.791,15.828C112.982,233.675,116.544,233.675,116.544,230.509Zm-32.844,0,1.187-15.828L83.7,198.457c0-1.187-2.374-1.187-2.374,0l-1.187,16.224,1.187,15.828C81.326,233.279,83.7,233.279,83.7,230.509Zm-13.058,0,1.583-15.828-1.583-17.016a.8.8,0,1,0-1.583,0l-1.583,17.016,1.583,15.828C69.058,232.092,70.641,232.092,70.641,230.509Zm49.068-49.464-.791,33.635.4,15.828c0,3.166,3.957,3.166,3.957,0l.791-15.828-.791-33.635C123.271,178.275,119.709,178.275,119.709,181.045ZM96.758,230.509l1.187-15.828-1.187-32.053c0-2.374-2.77-2.374-2.77,0L92.8,214.681l.791,15.828C93.592,233.675,96.758,233.675,96.758,230.509Zm13.058,0L111,214.681l-1.187-36.01a1.594,1.594,0,1,0-3.166,0l-1.187,36.01,1.187,15.828C106.651,233.675,109.817,233.675,109.817,230.509Zm77.559-35.218A34.4,34.4,0,0,0,140.682,166.4c-1.583.791-1.979,1.187-1.979,2.374v61.731a2.216,2.216,0,0,0,1.979,2.374h54.212a19.421,19.421,0,0,0,19.39-19.39C214.284,198.852,200.435,190.938,187.376,195.291Zm-54.608-24.534-1.187,43.924,1.187,15.828c0,3.166,3.957,3.166,3.957,0l1.187-15.828-1.187-43.924A1.981,1.981,0,1,0,132.768,170.757Z" transform="translate(-7513 -20216.049)" fill="#fc4000"/>
  </g>
</svg>
