<svg xmlns="http://www.w3.org/2000/svg" width="35.063" height="39.93" viewBox="0 0 35.063 39.93">
  <g id="icons8-tiktok_2_" data-name="icons8-tiktok (2)" transform="translate(-6 -4.07)">
    <path id="Path_5" data-name="Path 5" d="M20,37a5,5,0,0,0,5-5V6.07h5.208c-.031-.14-.072-.276-.1-.419h0c-.044-.248-.076-.495-.1-.746V4.07H23V30a5,5,0,0,1-5,5,4.95,4.95,0,0,1-2.375-.625A4.981,4.981,0,0,0,20,37Z" fill="#81d4fa"/>
    <path id="Path_6" data-name="Path 6" d="M33.718,11.407a9.012,9.012,0,0,1-1.607-3.756h0c-.044-.248-.076-.495-.1-.746V6.07h-1.8A9.068,9.068,0,0,0,33.718,11.407Z" fill="#f55376"/>
    <path id="Path_7" data-name="Path 7" d="M18,25a4.984,4.984,0,0,0-2.375,9.375A4.95,4.95,0,0,1,15,32a5,5,0,0,1,6-4.9v-7.05c-.331-.028-.662-.051-1-.051s-.669.023-1,.05V25.1A5.062,5.062,0,0,0,18,25Z" fill="#f55376"/>
    <path id="Path_8" data-name="Path 8" d="M36.257,13.783a9.042,9.042,0,0,0,2.806,1.131V13.155a9.043,9.043,0,0,1-4.806-1.373c-.186-.116-.361-.247-.538-.376A9.1,9.1,0,0,0,36.257,13.783Z" fill="#81d4fa"/>
    <path id="Path_9" data-name="Path 9" d="M19,20.05v-2c-.331-.027-.662-.05-1-.05a11.991,11.991,0,0,0-7.419,21.419A11.981,11.981,0,0,1,19,20.05Z" fill="#81d4fa"/>
    <path id="Path_10" data-name="Path 10" d="M39.062,14.914v4.733a15.516,15.516,0,0,1-9.052-2.894l0,13.247L30,29.982c0,.006,0,.012,0,.018a11.988,11.988,0,0,1-19.419,9.419A11.991,11.991,0,0,0,32,32c0-.006,0-.012,0-.018l.014.018,0-13.248a15.516,15.516,0,0,0,9.052,2.894V15.155A9.014,9.014,0,0,1,39.062,14.914Z" fill="#ec407a"/>
    <path id="Path_11" data-name="Path 11" d="M30,30c0-.006,0-.012,0-.018l.014.018,0-13.248a15.516,15.516,0,0,0,9.052,2.894V14.913a8.854,8.854,0,0,1-5.344-3.507,9.064,9.064,0,0,1-3.51-5.337H25V32a4.984,4.984,0,0,1-9.375,2.375A4.989,4.989,0,0,1,19,25.1v-5.05a11.98,11.98,0,0,0-8.419,19.368A11.988,11.988,0,0,0,30,30Z"/>
  </g>
</svg>
