<svg xmlns="http://www.w3.org/2000/svg" width="167" height="167" viewBox="0 0 167 167">
  <g id="Group_6569" data-name="Group 6569" transform="translate(7152 19758)">
    <rect id="Rectangle_2460" data-name="Rectangle 2460" width="167" height="167" transform="translate(-7152 -19758)" fill="none" opacity="0.707"/>
    <path id="Path_971" data-name="Path 971" d="M833.314,551.325a40.479,40.479,0,0,0,2.054,14.63,25.923,25.923,0,0,0,7.207,9.514,34.238,34.238,0,0,0,12.577,6.81,50.841,50.841,0,0,0,16.685,2.378,76.789,76.789,0,0,0,15.639-1.693,78,78,0,0,0,16-5.8V555.541a38.483,38.483,0,0,1-20.756,6.811,21.292,21.292,0,0,1-10.559-2.739,10.6,10.6,0,0,1-4.756-5.441,63.179,63.179,0,0,1-1.369-15.315v-35.53h33.007V481.706H866.035V446.68H846.251a58.731,58.731,0,0,1-4.757,17.693,39.642,39.642,0,0,1-9.189,11.892,36.327,36.327,0,0,1-13.946,7.5v19.711h15.279v48Z" transform="translate(-7929.36 -20190.336)" fill="#36465d"/>
  </g>
</svg>
