<svg xmlns="http://www.w3.org/2000/svg" width="167" height="167" viewBox="0 0 167 167">
  <g id="Group_6565" data-name="Group 6565" transform="translate(7782 19785)">
    <rect id="Rectangle_2456" data-name="Rectangle 2456" width="167" height="167" transform="translate(-7782 -19785)" fill="none" opacity="0"/>
    <path id="Path_957" data-name="Path 957" d="M371.49,409.053a87.268,87.268,0,0,0,46.546,13.615c56.824,0,88.747-47.864,86.807-90.687a59.383,59.383,0,0,0,15.166-15.942,64.507,64.507,0,0,1-17.532,4.655,29.752,29.752,0,0,0,13.266-16.757,55.584,55.584,0,0,1-19.394,7.408,31.031,31.031,0,0,0-22.187-9.736A30.216,30.216,0,0,0,444.566,339a86.38,86.38,0,0,1-62.953-32,30.487,30.487,0,0,0,9.348,40.844,29.324,29.324,0,0,1-14.041-3.879,30.759,30.759,0,0,0,24.552,30.371,27.148,27.148,0,0,1-13.653.388,30.217,30.217,0,0,0,28.315,21.1A58.182,58.182,0,0,1,371.49,409.053Z" transform="translate(-8144.49 -20063.609)" fill="#29a9e1"/>
  </g>
</svg>
