<svg xmlns="http://www.w3.org/2000/svg" width="167" height="167" viewBox="0 0 167 167">
  <g id="Group_6568" data-name="Group 6568" transform="translate(7363 19758)">
    <rect id="Rectangle_2459" data-name="Rectangle 2459" width="167" height="167" transform="translate(-7363 -19758)" fill="none" opacity="0.707"/>
    <path id="Path_970" data-name="Path 970" d="M791.354,449.2c-20.5-.736-34.869,10.964-42.075,35.1a29.905,29.905,0,0,1,11-2.557c7.749,0,10.964,4.378,9.841,12.785-.349,5.115-3.642,12.824-9.841,22.316s-11,14.645-13.909,14.645c-3.874,0-7.748-7.748-10.964-22.7-1.123-4.378-3.293-15.69-5.85-33.977-2.557-16.853-9.88-24.873-21.231-23.788-4.727.388-12.437,4.765-21.929,13.521-6.935,6.586-14.257,12.824-21.579,19.371l6.973,9.143a40.135,40.135,0,0,1,11.623-6.973c5.114,0,9.841,8.058,14.257,24.137q5.967,21.967,12.049,43.9,8.794,24.137,21.928,24.137,20.863,0,51.218-39.518c19.372-25.222,29.6-44.98,30.336-59.587C814.019,459.432,806.7,449.553,791.354,449.2Z" transform="translate(-8018.82 -20188.561)" fill="#22b8eb"/>
  </g>
</svg>
