<svg xmlns="http://www.w3.org/2000/svg" width="167" height="167" viewBox="0 0 167 167">
  <g id="Group_6567" data-name="Group 6567" transform="translate(7563 19752)">
    <rect id="Rectangle_2458" data-name="Rectangle 2458" width="167" height="167" transform="translate(-7563 -19752)" fill="none" opacity="0.707"/>
    <g id="Workplace" transform="translate(-7546.999 -19739.01)">
      <g id="OBJECTS" transform="translate(-0.001 0.01)">
        <path id="Path_5672" data-name="Path 5672" d="M133.708,69.6c-5.385,38.223-24.195,37.551-24.195,37.551s-10.568,2.506-18.064-21.976L86.442,72.385s-3.952,10.161-5.289,13.548c-1.225,3.116-6.774,30.749-25.86,18.138-4.7-3.1-7.056-11.606-12.063-23.416C36.692,65.312,30.511,48.462,30.511,48.462H49.7L63.055,81.005s3.952-9.484,5.081-12.718C78.787,37.335,94.006,44.747,99.9,56.173c2.038,3.952,4.1,10.076,5.871,14.852,2.4,6.469,4.866,12.763,4.866,12.763,1.891-2.506,3.009-6.706,4.747-12.763,1.558-5.447,1.377-21.033-3.912-30.212C103.784,27.479,81.695,7.851,46.43,23.922c0,0-47.909,26.069-18.42,77.388,0,0,18.657,31.612,58.708,20.587v18.911C34.683,148.972,5.56,110.247,1.3,86.289-2.219,66.452-.864,31.955,34.683,10.448,81.345-17.777,141.5,14.343,133.708,69.6" transform="translate(0.001 -0.01)" fill="#20252d"/>
      </g>
    </g>
  </g>
</svg>
