<svg xmlns="http://www.w3.org/2000/svg" width="167" height="167" viewBox="0 0 167 167">
  <g id="Group_6579" data-name="Group 6579" transform="translate(7363 19543)">
    <rect id="Rectangle_2468" data-name="Rectangle 2468" width="167" height="167" transform="translate(-7363 -19543)" fill="none" opacity="0.707"/>
    <g id="STYLE_COLOR" transform="translate(-7368.899 -19548.486)">
      <path id="Path_5703" data-name="Path 5703" d="M27.59,58.439c-.453-.453-.88-1.759-.453-2.194a.453.453,0,0,1,.453-.453l39.53-39.53a4.008,4.008,0,0,1,5.273,0h0A107,107,0,0,1,96.548,60.625h0L72.828,87.419,37.252,76.438a34.456,34.456,0,0,0-9.661-18Z" transform="translate(40.918 1.603)" fill="#28a8ea"/>
      <path id="Path_5704" data-name="Path 5704" d="M107.924,27.75a4.044,4.044,0,0,0-4.833-3.074h0L29.3,44.439a48.261,48.261,0,0,1,0,22.4L53.9,97.588,89.032,83.08l14.055,3.953a3.981,3.981,0,0,0,4.833-2.634h0a123.463,123.463,0,0,0,0-56.649Z" transform="translate(48.851 33.172)" fill="#0078d4"/>
      <path id="Path_5705" data-name="Path 5705" d="M37.357,34.2a47.822,47.822,0,0,1-9.643,18.008,1.646,1.646,0,0,0,0,2.634l39.53,39.53a4.008,4.008,0,0,0,5.273,0h0A105.4,105.4,0,0,0,96.672,50.449Z" transform="translate(41.234 65.812)" fill="#0358a7"/>
      <path id="Path_5706" data-name="Path 5706" d="M57.549,103.9V28.349A6,6,0,0,0,51.4,22.2H37.342L27.68,31.863a.453.453,0,0,1-.453.453c-.453.88-.453,1.759.453,2.194a43.342,43.342,0,0,1,10.1,18.008h0a48.261,48.261,0,0,1,0,22.4c-.453,1.759-1.319,3.953-1.759,5.708a36.845,36.845,0,0,1-7.9,12.3,1.646,1.646,0,0,0,0,2.634L42.628,110.07h9.226a5.916,5.916,0,0,0,5.694-6.17Z" transform="translate(40.81 25.101)" opacity="0.1"/>
      <path id="Path_5707" data-name="Path 5707" d="M53.056,105.339V29.349A6,6,0,0,0,46.908,23.2H32.853L27.58,28.474a.453.453,0,0,1-.453.453c-.453.88-.453,1.759.453,2.194a43.342,43.342,0,0,1,10.1,18.008h0a48.262,48.262,0,0,1,0,22.4c-.453,1.759-1.319,3.953-1.759,5.708a36.846,36.846,0,0,1-7.907,12.3,1.646,1.646,0,0,0,0,2.634L47.343,111.5a6.56,6.56,0,0,0,5.712-6.161Z" transform="translate(40.47 28.494)" opacity="0.2"/>
      <path id="Path_5708" data-name="Path 5708" d="M53.056,96.113V29.349A6,6,0,0,0,46.908,23.2H32.853L27.58,28.474a.453.453,0,0,1-.453.453c-.453.88-.453,1.759.453,2.194a43.342,43.342,0,0,1,10.1,18.008h0a48.262,48.262,0,0,1,0,22.4c-.453,1.759-1.319,3.953-1.759,5.708a36.846,36.846,0,0,1-7.907,12.3,1.646,1.646,0,0,0,0,2.634l9.661,9.661H46.9a5.658,5.658,0,0,0,6.152-5.722Z" transform="translate(40.47 28.494)" opacity="0.2"/>
      <path id="Path_5709" data-name="Path 5709" d="M48.326,96.113V29.349A6,6,0,0,0,42.178,23.2H32.952l-5.273,5.273a.453.453,0,0,1-.453.453c-.453.88-.453,1.759.453,2.194a43.342,43.342,0,0,1,10.1,18.008h0a48.262,48.262,0,0,1,0,22.4c-.453,1.759-1.319,3.953-1.759,5.708a36.846,36.846,0,0,1-7.907,12.3,1.646,1.646,0,0,0,0,2.634l9.661,9.661h4.393a5.658,5.658,0,0,0,6.157-5.722Z" transform="translate(40.806 28.494)" opacity="0.2"/>
      <path id="Back_Plate" d="M21.049,23.2H82.98a6,6,0,0,1,6.148,6.148V91.28a6,6,0,0,1-6.148,6.148H21.049A6,6,0,0,1,14.9,91.284V29.349A6.615,6.615,0,0,1,21.049,23.2Z" transform="translate(0 28.494)" fill="#0078d4"/>
      <path id="Path_5710" data-name="Path 5710" d="M36.872,46.544a6.243,6.243,0,0,1,.88,2.634h0c.453-.88.453-1.759.88-2.634l9.24-17.573a4.479,4.479,0,0,1,3.514-2.194h0A4.257,4.257,0,0,1,54.9,32.925l-12.74,22.4A3.291,3.291,0,0,0,41.7,57.52V68.954a3.935,3.935,0,0,1-3.953,3.953h-.88a3.935,3.935,0,0,1-3.962-3.953h0V57.525a3.958,3.958,0,0,0-.453-2.194L19.761,32.485a3.967,3.967,0,0,1,1.759-5.708,3.292,3.292,0,0,1,2.194-.453h.88a3.477,3.477,0,0,1,3.514,2.194Z" transform="translate(14.485 38.973)" fill="#fff"/>
      <rect id="Rectangle_2411" data-name="Rectangle 2411" width="148.022" height="148.022" transform="translate(14.901 14.8)" fill="none"/>
    </g>
  </g>
</svg>
