<svg xmlns="http://www.w3.org/2000/svg" width="167" height="167" viewBox="0 0 167 167">
  <g id="Group_6578" data-name="Group 6578" transform="translate(7537 19526)">
    <rect id="Rectangle_2467" data-name="Rectangle 2467" width="167" height="167" transform="translate(-7537 -19526)" fill="none" opacity="0.707"/>
    <g id="Group_6577" data-name="Group 6577" transform="translate(1.937)">
      <g id="g22" transform="translate(-7499.604 -19516.52)">
        <path id="path24" d="M424.482,512.086a5.913,5.913,0,0,1-4.561,5.3,5.528,5.528,0,0,1-4.329-.734,13.26,13.26,0,0,1-4.252-4.407l-30.924-48.9a4.832,4.832,0,0,1,1.083-6.764,24.932,24.932,0,0,1,4.793-2.861,90.31,90.31,0,0,1,25.126-6.958,17.62,17.62,0,0,1,5.141,0,5.412,5.412,0,0,1,4.793,5.837c.348,6.533.889,13.1,1.353,19.675l.927,14.186c.387,5.451.735,10.9,1.082,16.351a78.147,78.147,0,0,1,0,9.277" transform="translate(-379.491 -446.571)" fill="#be362e"/>
      </g>
      <g id="g26" transform="translate(-7444.716 -19472.869)">
        <path id="path28" d="M393.69,490.551a13.855,13.855,0,0,1,1.353-3.092c6.61-9.045,13.3-18.013,19.907-27.058a5.527,5.527,0,0,1,8.427-1.044,35.1,35.1,0,0,1,6.8,7.345,59.346,59.346,0,0,1,7.924,13.645,12.44,12.44,0,0,1,.773,2.667,5.141,5.141,0,0,1-3.865,6.339c-3.866,1.082-8.04,2.088-12.06,3.093-6.649,1.662-13.336,3.208-19.985,4.909A7,7,0,0,1,394,490.628h-.271" transform="translate(-393.69 -457.864)" fill="#be362e"/>
      </g>
      <g id="g30" transform="translate(-7511.937 -19447.898)">
        <path id="path32" d="M376.416,488.546a72.169,72.169,0,0,1,1.546-17.781,15.474,15.474,0,0,1,1.585-3.866,4.755,4.755,0,0,1,6.069-2.2c5.644,2.165,11.287,4.445,16.931,6.726,4.909,1.971,9.741,4.058,14.65,5.991a6.919,6.919,0,0,1,2.4,10.746,6.415,6.415,0,0,1-2.435,1.624L390.1,498.4l-5.141,1.546A5.489,5.489,0,0,1,377.5,495.5c-.541-2.281-.811-4.6-1.2-6.92" transform="translate(-376.3 -464.324)" fill="#be362e"/>
      </g>
      <g id="g34" transform="translate(-7442.747 -19420.777)">
        <path id="path36" d="M400.889,471.34a2.854,2.854,0,0,1,1.508.309l31.427,10.436.542.193a5.528,5.528,0,0,1,3.44,8,45.677,45.677,0,0,1-6.339,10.437,50.281,50.281,0,0,1-9.7,10.167,10.231,10.231,0,0,1-2.706,1.469,4.754,4.754,0,0,1-5.991-1.972c-1.624-2.4-3.208-4.871-4.755-7.344-4.406-7.074-8.7-14.225-13.181-21.26a7,7,0,0,1,4.406-10.283h1.353" transform="translate(-394.199 -471.34)" fill="#be362e"/>
      </g>
      <g id="g38" transform="translate(-7489.386 -19413.963)">
        <path id="path40" d="M416.754,489.482v24.275a5.3,5.3,0,0,1-5.45,4.948,32.236,32.236,0,0,1-9.548-1.7,56.352,56.352,0,0,1-15.964-7.112,10.177,10.177,0,0,1-2.667-2.628,4.407,4.407,0,0,1,0-5.566q3.866-4.639,7.538-9.161l14.418-17.008a6.88,6.88,0,0,1,11.6,1.816,7.168,7.168,0,0,1,.309,1.817v10.321h0" transform="translate(-382.134 -473.103)" fill="#be362e"/>
      </g>
    </g>
  </g>
</svg>
