<svg xmlns="http://www.w3.org/2000/svg" width="167" height="167" viewBox="0 0 167 167">
  <g id="youtube" transform="translate(7430 20108)">
    <rect id="Rectangle_2456" data-name="Rectangle 2456" width="167" height="167" transform="translate(-7430 -20108)" fill="none" opacity="0.707"/>
    <path id="play" d="M-8278.357-20560.8v-46.441l41.494,23.1-41.492,23.344Z" transform="translate(916 558.932)" fill="#fff"/>
    <path id="youtube-2" data-name="youtube" d="M79.5,109.716c-.5,0-49.832-.038-62.112-3.294A19.848,19.848,0,0,1,3.313,92.6C.038,80.5,0,55.113,0,54.858S.038,29.14,3.313,17.081A19.932,19.932,0,0,1,17.393,3.254C29.673.037,79.008,0,79.5,0s49.84.037,62.12,3.254a20.083,20.083,0,0,1,14.121,13.827c3.148,12.092,3.312,37.522,3.313,37.777s-.038,25.678-3.313,37.737a20.039,20.039,0,0,1-14.121,13.827C129.341,109.679,80,109.716,79.5,109.716ZM63.643,31.761V78.2l41.495-23.343Z" transform="translate(-7426 -20080.068)" fill="red"/>
  </g>
</svg>
